<?xml version="1.0" standalone="no"?>
<!DOCTYPE svg PUBLIC "-//W3C//DTD SVG 1.1//EN" "http://www.w3.org/Graphics/SVG/1.1/DTD/svg11.dtd" >
<svg xmlns="http://www.w3.org/2000/svg">
<metadata></metadata>
<defs>
<font id="titilliumtextitalic61wt1000sl" horiz-adv-x="1126" >
<font-face units-per-em="2048" ascent="1536" descent="-512" />
<missing-glyph horiz-adv-x="456" />
<glyph horiz-adv-x="2048" />
<glyph horiz-adv-x="2048" />
<glyph unicode="&#xd;" horiz-adv-x="456" />
<glyph unicode=" "  horiz-adv-x="456" />
<glyph unicode="&#x09;" horiz-adv-x="456" />
<glyph unicode="&#xa0;" horiz-adv-x="456" />
<glyph unicode="!" horiz-adv-x="509" d="M61 0l39 170h74l-39 -170h-74zM156 432l229 995h68l-240 -995h-57z" />
<glyph unicode="&#x22;" horiz-adv-x="194" d="M332 995l98 435h72l-102 -435h-68zM616 995l98 435h72l-102 -435h-68z" />
<glyph unicode="#" horiz-adv-x="1085" d="M121 389l16 66h246l115 463h-246l16 65h246l98 389h74l-98 -389h385l98 389h74l-98 -389h245l-16 -65h-246l-115 -463h246l-16 -66h-246l-94 -389h-74l94 389h-385l-94 -389h-74l95 389h-246zM457 455h385l114 463h-385z" />
<glyph unicode="$" horiz-adv-x="1030" d="M154 16l12 64q66 -8 133 -17q57 -6 122.5 -11t123.5 -5q182 0 282.5 109.5t100.5 292.5q0 51 -12.5 84.5t-40 58t-71.5 41t-110 35.5q-76 20 -136 42.5t-101 53.5t-63.5 76t-22.5 112q0 106 34.5 185.5t99 131.5t152.5 78.5t197 26.5q59 0 117.5 -6t105.5 -14 q55 -8 109 -21l-12 -59q-57 8 -115 16q-49 6 -108.5 12.5t-110.5 6.5q-182 0 -290 -87t-108 -270q0 -49 17.5 -81.5t52.5 -56t87 -43t124 -40.5q68 -20 120 -41.5t88 -52.5t53 -76t17 -110q0 -109 -32.5 -195t-94 -147.5t-148.5 -94t-194 -32.5q-66 0 -132 5t-121 11 q-66 8 -125 18zM326 -246l665 1864h68l-670 -1864h-63z" />
<glyph unicode="%" horiz-adv-x="1085" d="M354 1165q37 147 111 210t170 63q94 0 136 -63.5t5 -211.5q-37 -147 -112.5 -214.5t-167.5 -67.5q-94 0 -136.5 67t-5.5 217zM383 12l649 1424l66 -11l-649 -1423zM417.5 1003.5q18.5 -57.5 94.5 -57.5q78 0 122 56.5t71 160.5t9 156.5t-96 52.5q-76 0 -120.5 -51 t-71.5 -156q-27 -104 -8.5 -161.5zM711 285q37 147 109.5 209.5t168.5 62.5q94 0 137 -63.5t7 -210.5q-37 -147 -113 -215t-168 -68q-94 0 -136 67.5t-5 217.5zM773 122.5q18 -56.5 93 -56.5q78 0 123 56t72 161q27 104 8.5 156.5t-96.5 52.5q-76 0 -120 -51.5t-71 -155.5 q-27 -106 -9 -162.5z" />
<glyph unicode="&#x26;" horiz-adv-x="1361" d="M188 291q0 117 24 202t76 149.5t135 112.5t200 91q-12 27 -21.5 48t-15.5 42.5t-9.5 44.5t-3.5 51q0 92 25 169t72 133.5t115.5 87t156.5 30.5q111 0 179.5 -48t68.5 -165q0 -170 -113.5 -287.5t-310.5 -189.5l274 -381q35 59 68 132t61 161h78q-35 -106 -76 -195.5 t-81 -156.5l210 -277l-57 -51l-203 262q-53 -70 -104 -121t-108.5 -85t-125 -51t-151.5 -17q-166 0 -264.5 70.5t-98.5 238.5zM266 291q0 -131 77 -185.5t208 -54.5q264 0 442 264l-336 469q-109 -39 -183.5 -86t-120.5 -106.5t-66.5 -134t-20.5 -166.5zM651 1032 q0 -55 17.5 -106.5t58.5 -106.5q203 76 294 175.5t91 244.5q0 82 -47 114.5t-129 32.5q-72 0 -126 -27.5t-89 -75.5t-52.5 -112.5t-17.5 -138.5z" />
<glyph unicode="'" horiz-adv-x="194" d="M297 995l98 435h72l-102 -435h-68z" />
<glyph unicode="(" horiz-adv-x="505" d="M205 207q0 127 19.5 251t51 240.5t71.5 224t83 199.5q98 217 225 410h72q-127 -203 -225 -424q-43 -94 -83 -201.5t-72 -223.5t-51.5 -236.5t-19.5 -239.5q0 -117 4.5 -204t10.5 -144q6 -68 14 -113h-72q-8 55 -14 125q-6 59 -10 144t-4 192z" />
<glyph unicode=")" horiz-adv-x="505" d="M53 -242q127 203 225 424q43 94 83 201.5t72 223.5t51.5 236.5t19.5 239.5q0 117 -4.5 204t-10.5 144q-6 68 -14 113h72q8 -55 14 -125q6 -59 10 -144t4 -192q0 -127 -19.5 -251t-51 -240.5t-71.5 -224t-83 -199.5q-98 -217 -225 -410h-72z" />
<glyph unicode="*" horiz-adv-x="1085" d="M279 938l225 164l-223 164l41 55l225 -166l86 264l65 -20l-86 -266h277v-70h-281l86 -264l-65 -21l-86 266l-226 -161z" />
<glyph unicode="+" d="M111 479v70h413v434h74v-434h418v-70h-418v-438h-74v438h-413z" />
<glyph unicode="," horiz-adv-x="329" d="M2 -264l176 434h82l-201 -434h-57z" />
<glyph unicode="-" horiz-adv-x="856" d="M276 516l17 72h500l-19 -72h-498z" />
<glyph unicode="." horiz-adv-x="483" d="M147 0l39 170h74l-39 -170h-74z" />
<glyph unicode="/" horiz-adv-x="1030" d="M213 -78l870 1591l54 -28l-871 -1589z" />
<glyph unicode="0" d="M51 348q0 106 16.5 224t51.5 232t87 216t122.5 181t159.5 125t198 46q188 0 288.5 -95t100.5 -284q0 -117 -18.5 -236.5t-55 -232t-91 -211t-125 -172t-159.5 -116.5t-194 -43q-178 0 -279.5 91t-101.5 275zM125 354q0 -160 84 -232.5t223 -72.5q141 0 247.5 89 t178.5 227.5t107.5 305.5t35.5 322q0 154 -80.5 233t-234.5 79q-98 0 -177 -45.5t-141.5 -120t-108.5 -173t-75.5 -204t-44 -211t-14.5 -197.5z" />
<glyph unicode="1" d="M295 1092l473 262h66l-314 -1354h-74l291 1257l-426 -231z" />
<glyph unicode="2" d="M14 0l15 61l602 498q80 66 151.5 130.5t125 129t84 131t30.5 135.5q0 121 -79 171.5t-216 50.5q-63 0 -134 -8.5t-130 -18.5q-70 -10 -139 -25l4 64q61 14 129 27q57 10 127.5 19t142.5 9q180 0 274.5 -69.5t94.5 -219.5q0 -80 -32 -151.5t-85 -139t-124 -132 t-148 -127.5l-574 -467h760l-16 -68h-863z" />
<glyph unicode="3" d="M41 49l18 66q61 -18 127 -33q55 -12 123 -22.5t131 -10.5q86 0 167 24.5t145.5 73t103.5 120t39 167.5q0 111 -65.5 179.5t-213.5 68.5h-268l17 68h268q57 0 122.5 24.5t122 68.5t94.5 106.5t38 140.5q0 117 -64.5 166t-206.5 49q-74 0 -145.5 -7.5t-128.5 -15.5 q-68 -10 -129 -22l6 65q59 12 127 23q57 10 129 17t147 7q178 0 258 -69.5t80 -198.5q0 -76 -24.5 -137.5t-66.5 -109.5t-96 -82t-112 -52q78 -29 131.5 -94.5t53.5 -188.5q0 -117 -45 -203.5t-120 -143t-171 -84t-197 -27.5q-74 0 -144.5 10t-125.5 22q-66 14 -125 35z" />
<glyph unicode="4" d="M84 270l14 60l697 1024h79l-702 -1016h608l113 491h74l-113 -491h188l-16 -68h-188l-62 -270h-74l62 270h-680z" />
<glyph unicode="5" d="M2 37l21 72q66 -18 133 -31q57 -10 124.5 -19.5t131.5 -9.5q102 0 192 40t156.5 109.5t105.5 164t39 200.5q0 102 -72.5 156.5t-211.5 54.5q-66 0 -133.5 -17.5t-125.5 -39.5q-68 -25 -131 -55l-67 8l209 684h749l-16 -68h-682l-170 -547q61 29 127 52q55 18 121.5 34.5 t130.5 16.5q162 0 254 -66.5t92 -212.5q0 -121 -45 -226.5t-123 -184t-182.5 -124.5t-225.5 -46q-70 0 -140 8t-130 18q-68 12 -131 29z" />
<glyph unicode="6" d="M41 436q0 90 17.5 194.5t54.5 209t93 201t136 170t182.5 117.5t229.5 44q61 0 118.5 -6t104.5 -14q53 -8 102 -19l-18 -63q-51 8 -105 16q-47 6 -104 12.5t-117 6.5q-125 0 -222 -54.5t-169 -138.5t-119 -185.5t-69 -193.5q72 27 147 49q63 18 139 33.5t144 15.5 q180 0 267 -82.5t87 -224.5q0 -121 -37 -220t-105.5 -171t-169 -111.5t-227.5 -39.5q-193 0 -276.5 110.5t-83.5 343.5zM115 436q0 -197 63.5 -292t220.5 -95q117 0 205 37t146.5 98.5t87 142.5t28.5 169q0 131 -66.5 199.5t-234.5 68.5q-74 0 -149.5 -16.5t-136.5 -34.5 q-72 -23 -142 -51q-6 -29 -12 -66q-4 -31 -7 -72t-3 -88z" />
<glyph unicode="7" d="M92 10l832 1202l16 70h-719l17 72h794l-35 -156l-839 -1216z" />
<glyph unicode="8" d="M-23 242q0 100 32 177t84 132t122 94t147 68q-109 41 -148.5 96t-39.5 152q0 70 28.5 142.5t94 131.5t175 98t271.5 39q219 0 313.5 -71.5t94.5 -200.5q0 -55 -23.5 -115.5t-70.5 -114t-117 -96.5t-164 -61q72 -23 117 -50.5t69.5 -61.5t34 -71.5t9.5 -78.5 q0 -23 -5.5 -66t-26 -94t-60.5 -106.5t-107.5 -100.5t-167.5 -73.5t-244 -28.5q-82 0 -157.5 12t-133 42t-92.5 80t-35 126zM51 250q0 -92 93.5 -146.5t269.5 -54.5q147 0 246.5 41t160 100.5t86 124t25.5 113.5q0 61 -18.5 101t-52.5 68t-82 45t-109 34h-224 q-66 -18 -136 -50t-127.5 -82t-94.5 -123t-37 -171zM248 958q0 -70 45 -125t170 -92h223q47 8 113.5 33t128 67t105.5 102.5t44 143.5q0 115 -83 166.5t-269 51.5q-139 0 -231.5 -31t-146.5 -81t-76.5 -111.5t-22.5 -123.5z" />
<glyph unicode="9" d="M41 20l18 64q51 -10 105 -18q47 -6 104.5 -11.5t116.5 -5.5q125 0 222.5 54.5t169 138.5t118.5 185t70 194q-74 -27 -148 -50q-66 -18 -140.5 -33.5t-141.5 -15.5q-180 0 -267.5 83t-87.5 224q0 121 37 220.5t105.5 171t169 111.5t227.5 40q193 0 276.5 -110.5 t83.5 -343.5q0 -90 -17.5 -195t-54 -209t-93 -200.5t-136.5 -170t-182 -117.5t-229 -44q-61 0 -120 5t-106 13q-53 8 -100 20zM254 858q0 -66 15.5 -116t50 -83.5t93 -51t142.5 -17.5q72 0 148.5 15.5t138.5 35.5q72 23 141 51q4 29 10 66q4 31 8.5 71.5t4.5 88.5 q0 197 -63.5 292t-221.5 95q-117 0 -205 -37t-146.5 -98.5t-87 -142.5t-28.5 -169z" />
<glyph unicode=":" horiz-adv-x="274" d="M149 0l39 170h74l-39 -170h-74zM313 721l39 170h74l-39 -170h-74z" />
<glyph unicode=";" horiz-adv-x="483" d="M22 -264l176 434h82l-201 -434h-57zM313 721l39 170h74l-39 -170h-74z" />
<glyph unicode="&#x3c;" d="M129 477v74l868 442v-80l-800 -399l800 -399v-84z" />
<glyph unicode="=" d="M129 305v70h868v-70h-868zM129 651v70h868v-70h-868z" />
<glyph unicode="&#x3e;" d="M129 31l868 446v74l-868 442v-80l800 -399l-800 -399v-84z" />
<glyph unicode="?" horiz-adv-x="751" d="M256 2l39 168h70l-37 -168h-72zM367 385q0 14 2 29q2 12 4 27.5t6 31.5q16 78 68.5 147.5t148.5 147.5q90 74 150.5 128t96.5 103.5t51 102.5t15 127q0 78 -66.5 115.5t-178.5 37.5q-41 0 -93.5 -7t-97.5 -15q-53 -10 -106 -23v66q51 14 104 24q47 10 101.5 17.5 t103.5 7.5q66 0 122 -13.5t98 -40t66.5 -69.5t24.5 -100q0 -84 -16.5 -144.5t-56.5 -116t-108.5 -114.5t-172.5 -145q-86 -70 -128 -129.5t-52 -114.5l-17 -80h-69z" />
<glyph unicode="@" horiz-adv-x="1916" d="M205 242q0 301 58.5 531.5t187.5 385t337.5 234.5t509.5 80q162 0 292 -31t222.5 -103.5t142.5 -192.5t50 -296q0 -154 -23.5 -308.5t-83 -279.5t-160 -202.5t-253.5 -77.5q-123 0 -177.5 44t-29.5 167q-51 -59 -111 -107q-51 -41 -118.5 -72.5t-143.5 -31.5 q-125 0 -185.5 68.5t-60.5 191.5q0 86 15.5 179t45.5 182t73 169t100 140.5t127 95t151 34.5q39 0 99.5 -6t118.5 -14q68 -8 139 -21q-39 -168 -72 -311q-14 -61 -28.5 -123.5t-28 -118t-22.5 -98.5t-15 -67q-14 -66 -21.5 -110t4 -72.5t43 -41t97.5 -12.5q135 0 221 75 t135 191.5t68.5 258t19.5 276.5q0 156 -40 261t-119.5 171t-197.5 94.5t-274 28.5q-283 0 -477 -76t-314 -222.5t-173 -363.5t-53 -499q0 -172 39.5 -285t116.5 -178.5t191.5 -91t264.5 -25.5q31 0 77 3t91 7q53 4 108 11l-8 -68q-59 -6 -112 -10q-47 -4 -94.5 -6t-77.5 -2 q-172 0 -299 35.5t-210 112.5t-123 200t-40 297zM735 242q0 -92 43.5 -143.5t141.5 -51.5q66 0 133 42t123 95q66 61 127 140q27 109 51 219q23 94 46 202.5t46 200.5q-45 6 -94 15q-41 6 -90.5 11t-90.5 5q-109 0 -189.5 -73t-135.5 -182.5t-83 -238.5t-28 -241z" />
<glyph unicode="A" horiz-adv-x="1175" d="M74 0l760 1434h182l78 -1434h-74l-25 440l-612 2l-233 -442h-76zM420 508h571l-45 858h-72z" />
<glyph unicode="B" horiz-adv-x="1220" d="M211 0l330 1434h440q160 0 242 -60.5t82 -208.5q0 -86 -25 -155.5t-64.5 -122.5t-92 -89t-107.5 -55q88 -23 142 -78t54 -167q0 -240 -138 -369t-398 -129h-465zM301 70h391q215 0 329 112.5t114 313.5q0 63 -25 103t-65.5 63.5t-97 31.5t-118.5 8h-383zM461 770h385 q88 0 158.5 30.5t121 84t77 125t26.5 153.5q0 117 -63.5 160t-198.5 43h-369z" />
<glyph unicode="C" horiz-adv-x="1044" d="M227 332q0 129 19.5 262t57.5 257t97.5 233.5t138 191.5t179 129t221.5 47q59 0 118.5 -6t106.5 -14q55 -8 109 -19l-17 -65q-53 8 -108 16q-47 6 -104.5 12t-112.5 6q-158 0 -274.5 -95t-195.5 -246.5t-118 -338t-39 -370.5q0 -123 74 -202t237 -79q61 0 122 6t108 15 q55 8 108 20l-6 -69q-53 -12 -110 -21q-49 -8 -109.5 -14t-122.5 -6q-92 0 -162.5 26.5t-119 73.5t-73 110.5t-24.5 139.5z" />
<glyph unicode="D" horiz-adv-x="1269" d="M209 0l332 1434h454q193 0 277 -101.5t84 -318.5q0 -109 -19.5 -226.5t-57.5 -230.5t-94.5 -213t-129 -177t-162.5 -122t-195 -45h-489zM301 68h412q88 0 163.5 43t138 116.5t112 170t83 200.5t51 212t17.5 204q0 180 -63.5 266t-221.5 86h-393z" />
<glyph unicode="E" horiz-adv-x="1112" d="M209 0l332 1434h772l-17 -68h-700l-137 -596h585l-16 -68h-584l-145 -634h698l-16 -68h-772z" />
<glyph unicode="F" horiz-adv-x="1095" d="M209 0l332 1434h780l-18 -68h-705l-152 -651h590l-18 -68h-586l-149 -647h-74z" />
<glyph unicode="G" horiz-adv-x="1200" d="M238 358q0 123 18 251t56 250t96.5 229.5t138.5 188.5t181 128t226 47q72 0 143.5 -8t129.5 -19q68 -10 125 -24l-21 -62q-59 12 -127 23q-57 8 -126.5 15t-139.5 7q-109 0 -196 -46t-156.5 -123.5t-120.5 -181t-84 -217.5t-49.5 -232.5t-16.5 -225.5q0 -162 84 -235.5 t246 -73.5q55 0 113.5 6t105.5 17q55 8 111 22l127 547h-271l17 68h344l-156 -670q-59 -16 -127 -29q-57 -10 -127.5 -19t-140.5 -9q-195 0 -299 91t-104 285z" />
<glyph unicode="H" horiz-adv-x="1353" d="M209 0l332 1434h71l-155 -682h782l158 682h71l-329 -1434h-74l158 684h-783l-157 -684h-74z" />
<glyph unicode="I" horiz-adv-x="440" d="M182 0l332 1434h72l-330 -1434h-74z" />
<glyph unicode="J" horiz-adv-x="591" d="M74 -145l12 67q80 0 129 11.5t80 45t51.5 96t42.5 163.5l277 1196h73v-2l-278 -1213q-25 -111 -48.5 -182.5t-62.5 -111.5t-103.5 -55t-172.5 -15z" />
<glyph unicode="K" horiz-adv-x="1161" d="M209 0l332 1434h71l-159 -693h225l594 693h88l-623 -723l295 -711h-82l-274 674h-238l-155 -674h-74z" />
<glyph unicode="L" horiz-adv-x="1030" d="M209 0l332 1434h71l-313 -1366h635l-16 -68h-709z" />
<glyph unicode="M" horiz-adv-x="1654" d="M209 0l332 1434h149l148 -1323l786 1323h148l-330 -1434h-74l315 1366h-24l-782 -1323h-95l-155 1323h-29l-315 -1366h-74z" />
<glyph unicode="N" horiz-adv-x="1337" d="M209 0l336 1434h166q6 -27 26.5 -119t48 -220t61.5 -277.5t65.5 -292t59 -264.5t44.5 -193h47l323 1366h70l-336 -1434h-166q-12 59 -33.5 153.5t-47 210t-55.5 246.5t-59.5 263.5t-58 259.5t-53.5 233h-47l-321 -1366h-70z" />
<glyph unicode="O" horiz-adv-x="1275" d="M240 403q0 123 21.5 249t61 243t100 218t137.5 177t172 119t206 43q217 0 324.5 -101.5t107.5 -320.5q0 -123 -19.5 -249t-57.5 -242.5t-96 -218t-136 -177t-175 -118.5t-214 -43q-115 0 -197 22.5t-134 72.5t-76.5 130t-24.5 196zM315 401q0 -98 18.5 -165.5 t60.5 -108.5t111 -59.5t167 -18.5q109 0 197.5 44t157.5 119t119 173t83 207.5t48 222.5t15 217q0 182 -85 267t-269 85q-104 0 -190 -45t-156 -121.5t-121 -176t-86 -209t-52.5 -220t-17.5 -211.5z" />
<glyph unicode="P" horiz-adv-x="1196" d="M211 0l332 1434h477q158 0 227.5 -76t69.5 -221q0 -121 -31 -232.5t-94.5 -195.5t-159.5 -134.5t-225 -50.5h-399l-121 -524h-76zM424 594h399q109 0 188 46t129 122t74.5 173t24.5 202q0 113 -53 170t-182 57h-404z" />
<glyph unicode="Q" horiz-adv-x="1275" d="M240 403q0 123 21.5 249t61 243t100 218t137.5 177t172 119t206 43q217 0 324.5 -101.5t107.5 -320.5q0 -123 -19.5 -249t-57.5 -242.5t-96 -218t-136 -177t-175 -118.5t-214 -43q-115 0 -197 22.5t-134 72.5t-76.5 130t-24.5 196zM315 401q0 -98 18.5 -165.5 t60.5 -108.5t111 -59.5t167 -18.5q109 0 197.5 44t157.5 119t119 173t83 207.5t48 222.5t15 217q0 182 -85 267t-269 85q-104 0 -190 -45t-156 -121.5t-121 -176t-86 -209t-52.5 -220t-17.5 -211.5zM844 33l69 22l103 -317l-70 -23z" />
<glyph unicode="R" horiz-adv-x="1224" d="M207 0l332 1434h454q158 0 242 -69t84 -237q0 -135 -40 -231t-99.5 -158.5t-129 -96.5t-128.5 -44l182 -598h-74l-180 590h-430l-137 -590h-76zM434 657h381q96 0 175 34t134.5 95.5t86 148.5t30.5 193q0 135 -64.5 186.5t-199.5 51.5h-381z" />
<glyph unicode="S" horiz-adv-x="1040" d="M125 16l14 68q72 -10 142 -18q59 -6 128.5 -11.5t129.5 -5.5q96 0 170.5 31t127 86t80 134t27.5 175q0 53 -13 89t-42 61.5t-76 44t-117 37.5q-80 23 -143.5 45t-107.5 56t-67.5 81t-23.5 119q0 113 37 195.5t104.5 138t162 83t208.5 27.5q61 0 123 -7t113 -15 q59 -8 115 -21l-13 -61q-61 10 -123 18q-53 6 -114.5 12t-114.5 6q-193 0 -307.5 -92t-114.5 -284q0 -53 18.5 -88t55.5 -59.5t92 -44t131 -42.5q72 -23 127 -45t92 -55t56.5 -80t19.5 -117q0 -115 -35 -206t-99.5 -155.5t-156.5 -99t-205 -34.5q-68 0 -138.5 5t-129.5 11 q-68 8 -133 18z" />
<glyph unicode="T" horiz-adv-x="972" d="M338 1366l16 68h932l-18 -68h-428l-316 -1366h-73l315 1366h-428z" />
<glyph unicode="U" horiz-adv-x="1249" d="M260 264q0 31 6 74t15 80l233 1016h74l-236 -1031q-6 -27 -11 -65.5t-5 -71.5q0 -113 86 -164t235 -51q190 0 288.5 89t139.5 263l236 1031h74l-236 -1031q-23 -102 -62.5 -181t-100 -132t-145.5 -80.5t-198 -27.5q-178 0 -285.5 68.5t-107.5 213.5z" />
<glyph unicode="V" d="M412 1434h73l41 -1366h111l674 1366h73l-704 -1434h-221z" />
<glyph unicode="W" horiz-adv-x="1695" d="M385 0l49 1434h68q0 -10 -2 -75t-5 -161t-7.5 -217t-8.5 -245t-8 -242.5t-7 -212t-5 -151.5t-2 -62h71q20 51 68.5 158.5t110 241.5t129 281.5t128 279.5t107.5 235.5t68 148.5h78l-3 -96q-2 -127 -5 -281.5t-5 -320.5l-4 -332t-2 -315h68l50 112.5t90 205.5t113.5 263.5 t124 286.5t119 273t97.5 225h69q-10 -20 -35.5 -81t-63.5 -148t-84 -194.5t-95 -222t-99.5 -231.5t-95.5 -221.5t-83 -191.5t-62 -144h-185q0 18 1 75.5t3.5 140.5t4.5 184.5t4 210t4 216t4 201.5t4 168t2 115q-14 -31 -52 -117t-91.5 -205t-114.5 -257t-121.5 -274 t-115 -256t-89.5 -202h-184z" />
<glyph unicode="X" horiz-adv-x="1130" d="M84 0l594 711l-256 723h86l235 -666l549 666h84l-592 -723l254 -711h-86l-233 657l-549 -657h-86z" />
<glyph unicode="Y" horiz-adv-x="1050" d="M403 1434h72l211 -734l559 734h76l-614 -818l-146 -616h-74l146 631z" />
<glyph unicode="Z" horiz-adv-x="1107" d="M125 -2l33 147q160 176 274.5 303t200.5 221.5t151.5 168t130 144.5t135 147.5t167.5 181.5l10 55h-778l14 68h850l-33 -150l-1059 -1167l-10 -51h780l-16 -68h-850z" />
<glyph unicode="[" horiz-adv-x="583" d="M20 -250l418 1780h367l-14 -68h-285l-387 -1644h284l-18 -68h-365z" />
<glyph unicode="\" horiz-adv-x="1085" d="M571 1495l54 18l307 -1599l-53 -18z" />
<glyph unicode="]" horiz-adv-x="583" d="M-41 -248l14 68h285l387 1644h-284l18 68h365l-418 -1780h-367z" />
<glyph unicode="^" d="M147 662l369 690h74l387 -690h-82l-342 616l-324 -616h-82z" />
<glyph unicode="_" horiz-adv-x="1030" d="M-4 -240l16 78h920l-21 -78h-915z" />
<glyph unicode="`" horiz-adv-x="1060" d="M623 1427l36 50l328 -195l-37 -45z" />
<glyph unicode="a" horiz-adv-x="1007" d="M215 242q0 86 15.5 179t45 182t72.5 169t100.5 140.5t127 95t151.5 34.5q43 0 104.5 -6t118.5 -14q68 -8 135 -21l-155 -667q-12 -49 -22.5 -107.5t-18.5 -107.5q-8 -59 -19 -117l-67 -4q10 59 18 113q8 45 15.5 87t11.5 60q-53 -78 -117 -139q-53 -53 -123.5 -95 t-146.5 -42q-125 0 -185.5 68.5t-60.5 191.5zM291 242q0 -92 43 -142.5t141 -50.5q43 0 89 23.5t90 60.5t83 78t69 78t46 61l16 23l133 573q-43 6 -90 15q-41 6 -89 11t-95 5q-109 0 -189.5 -73t-136 -182.5t-83 -238.5t-27.5 -241z" />
<glyph unicode="b" horiz-adv-x="1046" d="M231 23l340 1472h72l-149 -643q51 53 108 94q49 35 112.5 65.5t135.5 30.5q76 0 125 -21.5t76.5 -59t39 -92t11.5 -119.5q0 -49 -11.5 -126t-37 -162t-65.5 -171t-97 -154.5t-133 -111.5t-170 -43q-51 0 -112.5 6t-115.5 14q-63 8 -129 21zM315 78q51 -8 101 -17 q41 -6 88 -10t82 -4q84 0 149.5 41t114.5 106.5t82 145.5t54.5 156.5t30.5 143.5t9 103q0 49 -6 92.5t-26.5 74t-59.5 48t-105 17.5q-59 0 -121.5 -36t-115.5 -77q-61 -49 -121 -110z" />
<glyph unicode="c" horiz-adv-x="849" d="M217 264q0 145 33 285.5t100.5 250t169 176t238.5 66.5q37 0 76.5 -4t72.5 -8q37 -6 74 -10l-18 -64q-33 4 -70 11q-31 4 -66.5 7t-68.5 3q-121 0 -209 -60.5t-144.5 -161t-84 -227.5t-27.5 -258q0 -104 56.5 -163.5t191.5 -59.5q29 0 68.5 5t76.5 14q43 8 90 20v-66 q-41 -12 -84 -20q-37 -8 -81 -13t-87 -5q-82 0 -140 20.5t-95 57t-54.5 89t-17.5 115.5z" />
<glyph unicode="d" horiz-adv-x="1046" d="M211 240q0 88 15.5 182t45 183t73.5 169t100.5 139.5t125 94t148.5 34.5q53 0 106.5 -5t94.5 -11q49 -8 92 -16l112 485h72l-346 -1495h-70l54 233q-55 -72 -117 -127q-53 -47 -121 -85.5t-139 -38.5q-123 0 -184.5 67.5t-61.5 190.5zM287 240q0 -96 44 -143.5t140 -47.5 q66 0 133.5 47t124.5 105q68 68 131 151l137 594q-41 6 -88 15q-41 6 -90 11t-100 5q-104 0 -185 -73t-136.5 -183.5t-83 -239.5t-27.5 -241z" />
<glyph unicode="e" horiz-adv-x="987" d="M207 268q0 125 32.5 262.5t100.5 251t170 187t244 73.5q119 0 192.5 -50t73.5 -161q0 -94 -37 -155.5t-110.5 -98t-181 -51t-249.5 -14.5h-129q-14 -55 -22 -118.5t-8 -110.5q0 -113 61.5 -172.5t165.5 -59.5q59 0 119.5 9.5t107.5 19.5q55 12 109 31v-68 q-53 -18 -111 -31q-49 -12 -112.5 -21t-128.5 -9q-129 0 -208 74.5t-79 211.5zM328 578h133q119 0 210 11t152.5 39.5t92 77t30.5 123.5q0 80 -50 114t-144 34q-86 0 -153 -29.5t-118 -84t-89 -127t-64 -158.5z" />
<glyph unicode="f" horiz-adv-x="638" d="M92 -471l330 1429h-131l16 66h129l29 121q25 102 55.5 173t70.5 114t90 62t116 19q25 0 52.5 -2t49.5 -6q27 -4 53 -8l-14 -63q-25 2 -51 6q-23 4 -50.5 6t-54.5 2q-49 0 -86 -17.5t-65.5 -54.5t-51 -95t-42.5 -140l-29 -117h315l-18 -66h-309l-224 -958l-120 -471h-60z " />
<glyph unicode="g" horiz-adv-x="980" d="M59 -215q0 57 28 106.5t70 89t92 71.5t95 57q-10 10 -18.5 29.5t-8.5 45.5q0 35 15.5 70t36.5 63q23 35 53 68q-143 57 -143 238q0 66 25.5 139.5t75.5 136t126 103t178 40.5q41 0 70.5 -5t50.5 -11q23 -8 41 -14l305 12l-16 -72h-226q23 -29 37.5 -66.5t14.5 -97.5 q0 -61 -24 -134.5t-76 -138t-135 -107.5t-200 -43h-14t-18 2q-10 0 -21 2q-25 -33 -43 -64q-16 -27 -28.5 -57.5t-12.5 -54.5q0 -41 40 -58.5t146 -28.5q94 -8 157 -25.5t99.5 -46t51 -69.5t14.5 -96q0 -61 -36 -126t-103.5 -116t-164.5 -83.5t-220 -32.5q-72 0 -129.5 20 t-98.5 57t-63.5 87.5t-22.5 109.5zM133 -207q0 -98 64.5 -156.5t191.5 -58.5q90 0 168 21.5t136.5 60.5t92 92t33.5 119q0 39 -12 67.5t-40 48t-73.5 32t-113.5 20.5q-31 4 -66 8t-63 8q-35 6 -68 11q-47 -23 -91 -53.5t-80 -65.5t-57.5 -74t-21.5 -80zM352 627 q0 -86 41 -141.5t150 -55.5q94 0 159.5 37t106.5 89t59.5 109.5t18.5 100.5q0 104 -46 157.5t-165 53.5q-80 0 -140.5 -36t-101.5 -89t-61.5 -114.5t-20.5 -110.5z" />
<glyph unicode="h" horiz-adv-x="1103" d="M180 0l346 1495h72l-164 -707q53 72 115 127q53 47 121.5 87t144.5 40q111 0 173.5 -63.5t62.5 -173.5q0 -76 -12.5 -146.5t-26.5 -132.5l-123 -526h-72l123 528q14 57 26.5 131t12.5 140q0 84 -46 130t-130 46q-68 0 -138.5 -47t-127.5 -105q-68 -68 -129 -151 l-156 -672h-72z" />
<glyph unicode="i" horiz-adv-x="417" d="M174 0l238 1024h71l-237 -1024h-72zM475 1307l29 123h74l-29 -123h-74z" />
<glyph unicode="j" horiz-adv-x="452" d="M-141 -428q100 49 158.5 85t94 79t56 103.5t43.5 160.5l238 1024h71l-237 -1024q-18 -80 -34 -136.5t-35 -99.5t-45 -74.5t-63.5 -60t-92 -56.5t-130.5 -62zM518 1315l27 119h71l-26 -119h-72z" />
<glyph unicode="k" horiz-adv-x="940" d="M209 0l346 1495h72l-207 -895h172l444 424h94l-481 -467l230 -557h-80l-224 535h-172l-122 -535h-72z" />
<glyph unicode="l" horiz-adv-x="438" d="M180 0l346 1495h72l-346 -1495h-72z" />
<glyph unicode="m" horiz-adv-x="1701" d="M233 0l238 1024h72l-54 -231q53 70 115 125q53 47 121 85.5t143 38.5q84 0 130 -32.5t69 -71.5q25 -45 31 -102q51 57 110 102q49 39 113.5 71.5t132.5 32.5q111 0 173.5 -63.5t62.5 -173.5q0 -72 -13.5 -144.5t-27.5 -134.5l-123 -526h-72l123 528q14 57 26.5 131 t12.5 140q0 84 -46 130t-130 46q-59 0 -121 -37t-111 -80q-57 -51 -110 -115q0 -23 -4 -55q-6 -53 -31 -162l-123 -526h-72l123 528q14 57 26.5 134t12.5 137q0 84 -45 130t-129 46q-70 0 -138.5 -47t-125.5 -103q-68 -68 -129 -149l-158 -676h-72z" />
<glyph unicode="n" horiz-adv-x="1114" d="M213 0l238 1024h71l-53 -231q53 70 115 125q53 47 120.5 85.5t143.5 38.5q111 0 174 -63.5t63 -173.5q0 -72 -12 -141.5t-26 -131.5l-125 -532h-72l123 528q14 57 26.5 131t12.5 140q0 84 -46 130t-130 46q-70 0 -138.5 -47t-126.5 -103q-68 -68 -129 -149l-157 -676h-72 z" />
<glyph unicode="o" horiz-adv-x="1024" d="M205 285q0 160 39 298t108.5 240.5t163.5 160.5t203 58q158 0 241.5 -81.5t83.5 -239.5q0 -156 -37.5 -291t-106.5 -234.5t-166 -156.5t-214 -57q-158 0 -236.5 72.5t-78.5 230.5zM281 285q0 -117 58 -177.5t181 -60.5q100 0 182 55.5t141.5 148.5t92.5 215t33 255 q0 117 -60.5 186.5t-189.5 69.5q-98 0 -178 -56.5t-138.5 -151.5t-90 -221t-31.5 -263z" />
<glyph unicode="p" horiz-adv-x="1050" d="M94 -471l346 1495h70l-53 -233q55 70 116 124q53 47 121 87t140 40q129 0 187 -69.5t58 -200.5q0 -82 -15 -172t-44 -178t-72 -168t-100 -140.5t-126 -96t-151 -35.5q-53 0 -105 5t-93 11q-49 8 -94 18l-113 -487h-72zM293 80q41 -8 88 -17q41 -6 90 -11t100 -5 q72 0 131.5 35t107.5 92t84 132t60.5 156t37 160.5t12.5 149.5q0 104 -43.5 153.5t-141.5 49.5q-63 0 -132 -47t-126 -105q-68 -68 -131 -151z" />
<glyph unicode="q" horiz-adv-x="1046" d="M211 246q0 82 15.5 173t44 180t71.5 169t100.5 141.5t126 97t150.5 35.5q53 0 115.5 -6t117.5 -14q66 -8 129 -21l-336 -1452h-69l155 682q-53 -72 -114 -125q-53 -47 -120.5 -85.5t-141.5 -38.5q-125 0 -184.5 69.5t-59.5 194.5zM287 250q0 -100 43 -150.5t143 -50.5 q63 0 131 46t125 104q68 68 131 151l137 596q-43 6 -88 15q-41 6 -89 11t-101 5q-104 0 -184 -71.5t-135.5 -181.5t-84 -237t-28.5 -237z" />
<glyph unicode="r" horiz-adv-x="688" d="M195 0l239 1024h70l-35 -156q59 35 127 70q57 29 129 58.5t147 47.5l-16 -71q-57 -14 -127 -43t-131 -58q-72 -35 -145 -75l-185 -797h-73z" />
<glyph unicode="s" horiz-adv-x="940" d="M135 14l15 66q53 -8 106 -17q47 -6 98.5 -11t96.5 -5q70 0 133 16.5t111 51.5t77 88t29 127q0 41 -13.5 67.5t-42 44t-74.5 29.5t-112 27q-63 14 -112.5 28.5t-82 37t-49 55t-16.5 81.5q0 70 27.5 132.5t79 109.5t123 73.5t159.5 26.5q47 0 103.5 -5t103.5 -9 q55 -8 111 -14l-19 -64q-55 6 -108 13q-47 4 -101.5 9t-103.5 5q-68 0 -124 -21.5t-95 -58.5t-60.5 -85t-21.5 -99q0 -31 9 -53.5t33.5 -39t66.5 -29.5t108 -28q70 -16 123 -31.5t89 -39t54 -58.5t18 -90q0 -90 -34.5 -158.5t-94 -113.5t-138.5 -67.5t-167 -22.5 q-51 0 -104 5t-98 11q-53 8 -103 16z" />
<glyph unicode="t" horiz-adv-x="722" d="M272 158q0 53 9.5 109.5t21.5 105.5l137 585h-149l16 66h152l80 332h71l-82 -332h334l-16 -66h-334l-137 -583q-12 -53 -19.5 -109.5t-7.5 -97.5q0 -53 31 -87t96 -34q20 0 49 1t58 5q33 4 65 8l-4 -63q-31 -4 -61 -8q-27 -4 -57.5 -6t-59.5 -2q-92 0 -142.5 42 t-50.5 134z" />
<glyph unicode="u" horiz-adv-x="1083" d="M211 219q0 76 12.5 143.5t26.5 129.5l125 532h71l-122 -528q-14 -57 -26.5 -131t-12.5 -140q0 -78 43 -127t133 -49q68 0 137.5 46t126.5 104q68 66 129 149l158 676h71l-237 -1024h-72l53 231q-53 -72 -114 -125q-53 -47 -121 -85.5t-143 -38.5q-111 0 -174.5 63.5 t-63.5 173.5z" />
<glyph unicode="v" horiz-adv-x="933" d="M311 1024h74l47 -958h82l508 958h78l-545 -1024h-193z" />
<glyph unicode="w" horiz-adv-x="1480" d="M319 1024h72l12 -958h33l484 938h92l41 -938h34l465 958h76l-495 -1024h-152l-35 915l-465 -915h-147z" />
<glyph unicode="x" horiz-adv-x="886" d="M78 0l436 512l-195 512h78l176 -465l390 465h88l-443 -518l193 -506h-80l-170 457l-385 -457h-88z" />
<glyph unicode="y" horiz-adv-x="933" d="M229 -467l252 467h-119l-51 1024h74l47 -958h82l508 958h78l-793 -1491h-78z" />
<glyph unicode="z" horiz-adv-x="935" d="M121 0l6 66l819 892h-606l16 66h695l-11 -66l-817 -892h606l-14 -66h-694z" />
<glyph unicode="{" horiz-adv-x="555" d="M139 598l17 72q70 18 115.5 41.5t75.5 56.5t45.5 75t27.5 101q14 68 26.5 143.5t30.5 133.5q25 78 59.5 135t84 95t115 58.5t153.5 24.5l-12 -74q-84 -4 -143.5 -24.5t-100.5 -57.5t-65.5 -91t-39.5 -124q-10 -53 -21 -119.5t-22 -115.5q-14 -68 -34.5 -115t-49 -81 t-69.5 -55.5t-96 -39.5q53 -18 92 -58t39 -120q0 -31 -16.5 -89.5t-35 -126t-35 -135t-16.5 -116.5q0 -86 53.5 -128t169.5 -42l-20 -74q-145 6 -209.5 60.5t-64.5 162.5q0 51 16 120t34.5 135.5t35 124t16.5 85.5q0 74 -39 108t-117 54z" />
<glyph unicode="|" horiz-adv-x="1085" d="M496 -471v1966h71v-1966h-71z" />
<glyph unicode="}" horiz-adv-x="555" d="M-53 -258l12 74q84 4 143.5 24.5t100.5 57.5t65.5 91t39.5 124q10 53 21 119.5t22 115.5q14 68 34.5 115t49 81t69.5 55.5t96 39.5q-53 18 -92 58t-39 120q0 31 16.5 89.5t35 126t35 135t16.5 116.5q0 86 -53.5 128t-169.5 42l20 74q145 -6 209.5 -60.5t64.5 -162.5 q0 -51 -16 -120t-34.5 -135.5t-35 -124t-16.5 -85.5q0 -74 39 -108t117 -54l-17 -72q-70 -18 -115.5 -41.5t-75.5 -56.5t-45.5 -75t-27.5 -101q-14 -68 -26.5 -143.5t-30.5 -133.5q-25 -78 -59.5 -135t-84 -95t-115 -58.5t-153.5 -24.5z" />
<glyph unicode="~" d="M131 543q37 31 76 55q35 20 75 37.5t78 17.5q43 0 99.5 -23.5t113 -51t106.5 -51t85 -23.5q29 0 63.5 16.5t67.5 36.5q37 23 78 53l22 -63q-37 -33 -75 -58q-35 -23 -75 -39t-79 -16q-43 0 -99.5 23.5t-112.5 51.5t-107.5 51.5t-84.5 23.5q-29 0 -64.5 -16.5t-68.5 -37.5 q-37 -23 -75 -53z" />
<glyph unicode="&#xa1;" horiz-adv-x="509" d="M61 -405l240 995h57l-229 -995h-68zM340 852l39 170h74l-39 -170h-74z" />
<glyph unicode="&#xa2;" horiz-adv-x="849" d="M203 305q0 41 6 91t22 110q55 215 168 323.5t271 114.5v-4q4 23 10 44.5t10 43.5q4 10 5 22.5t5 22.5q4 16 8.5 33.5t8.5 34.5q4 16 8 33.5t8 33.5h68q-4 -16 -8.5 -34.5t-8.5 -34.5t-8 -34t-8 -34q-8 -35 -15.5 -64.5t-15.5 -64.5q33 -2 72 -5t72 -7q37 -4 75 -8 q-2 -4 -2 -7.5t-2 -7.5q-4 -8 -4 -12q0 -2 -1 -4t-1 -4q-2 -4 -2 -7t-2 -8q-4 -12 -4 -14q-2 -4 -2 -14q-55 4 -105 10q-43 4 -86 7t-71 3q-154 0 -237 -87t-128 -271q-12 -53 -19 -96t-7 -78q0 -96 56 -132t187 -36q29 0 74 2t86 6q49 4 100 8q-4 -10 -5 -12t-1 -4 q0 -4 -1 -6t-1 -6q0 -2 -1 -5.5t-1 -5.5q-4 -12 -8 -39q-43 -4 -84 -8q-35 -4 -75 -7t-70 -3v4q-8 -33 -15.5 -65.5t-15.5 -65.5t-15.5 -65.5t-15.5 -63.5h-69q2 8 4 16.5t4 16.5t3 16t3 17q4 16 8 32.5t8 32.5q4 23 10.5 43.5t10.5 40.5q4 10 5 20.5t5 20.5 q-66 2 -115 13.5t-82.5 37t-51 66.5t-17.5 104z" />
<glyph unicode="&#xa3;" horiz-adv-x="1030" d="M104 0l17 68h196l158 696h-147l16 67h148l28 127q23 96 47.5 176t65.5 136.5t102.5 88.5t157.5 32q41 0 88 -4.5t86 -8.5q45 -6 88 -10l-14 -61l-90 8q-39 4 -86 6t-88 2q-74 0 -119 -27.5t-75 -77t-49.5 -118t-39.5 -150.5l-29 -119h449l-17 -67h-448l-156 -696h346 l166 32v-63l-166 -37h-635z" />
<glyph unicode="&#xa4;" horiz-adv-x="1083" d="M125 154l194 192l52 -51l-193 -195zM125 879l53 53l193 -195l-52 -51zM193 516.5q0 67.5 25.5 131t76.5 114.5t114.5 76.5t131 25.5t131 -25.5t114.5 -76.5t77 -114.5t26 -131t-25.5 -131t-77.5 -115.5q-51 -51 -114.5 -76.5t-131 -25.5t-131 25.5t-114.5 76.5t-76.5 115 t-25.5 131.5zM268 516q0 -53 19.5 -104t58.5 -90t90 -58.5t104.5 -19.5t103.5 19.5t91 58.5q39 39 58.5 90t19.5 104t-19.5 103.5t-58.5 91.5q-41 39 -91 58t-103.5 19t-104.5 -19t-90 -58q-39 -41 -58.5 -91.5t-19.5 -103.5zM711 295l51 51l194 -192l-53 -54zM711 737 l192 195l53 -53l-194 -193z" />
<glyph unicode="&#xa5;" horiz-adv-x="1050" d="M178 375l17 67h393l47 201l-10 37h-375l16 68h332l-242 606h78l252 -637l545 637h94l-524 -606h321l-14 -68h-365l-34 -41l-45 -197h389l-17 -67h-389l-88 -375h-72l86 375h-395z" />
<glyph unicode="&#xa6;" horiz-adv-x="1085" d="M496 299h71v-770h-71v770zM496 725v770h71v-770h-71z" />
<glyph unicode="&#xa7;" horiz-adv-x="1030" d="M127 -223l23 73q59 -8 116 -14q49 -6 102.5 -10t94.5 -4q82 0 142.5 31.5t101.5 79t61 101.5t20 101q0 33 -9 56.5t-33.5 40t-69.5 28.5t-117 23q-82 10 -136 30.5t-86 48t-45 63.5t-13 79q0 63 25.5 120.5t57.5 102.5q37 53 84 98q-20 29 -30 56.5t-10 89.5 q0 72 26.5 140.5t80.5 121.5t133 85t183 32q45 0 96.5 -5.5t96.5 -9.5q53 -6 102 -12l-20 -74q-57 6 -111 13q-47 4 -96 9t-84 5q-164 0 -244 -84t-80 -217q0 -51 17.5 -80t48.5 -45t72 -24.5t88 -14.5q76 -6 127 -25.5t82.5 -47t45 -62.5t13.5 -72q0 -57 -23.5 -117.5 t-52.5 -109.5q-33 -57 -73 -113q25 -29 29.5 -55.5t4.5 -65.5t-19.5 -104.5t-68.5 -130t-130 -111.5t-204 -47q-45 0 -99 4t-103 8q-57 6 -117 15zM352 539q0 -78 48.5 -122t189.5 -61q61 -10 112.5 -22t88.5 -35q33 49 59 100q23 43 42 93.5t19 93.5q0 59 -49 97t-176 54 q-66 10 -123 26.5t-71 29.5q-39 -41 -70 -84q-27 -37 -48.5 -83t-21.5 -87z" />
<glyph unicode="&#xa8;" horiz-adv-x="1619" d="M535 1296l30 134h58l-31 -134h-57zM891 1296l27 134h61l-31 -134h-57z" />
<glyph unicode="&#xa9;" horiz-adv-x="1085" d="M20 889q0 113 39 212t109 173t166 117t209 43t209 -43t165.5 -117t109.5 -173.5t40 -211.5q0 -113 -40 -212t-109.5 -173t-166 -116t-208.5 -42q-113 0 -209 42t-166 116t-109 173t-39 212zM86 889q0 -98 34 -185.5t95 -152t145 -102t183 -37.5q98 0 182 37.5t145.5 102 t96 152t34.5 185.5t-34.5 186t-96 152.5t-145.5 102.5t-182 38t-182.5 -38t-145.5 -102.5t-95 -152.5t-34 -186zM319 887q0 70 9.5 128t34 99t67.5 64.5t113 23.5q29 0 55.5 -2t48.5 -6q25 -4 47 -6l-2 -66q-27 2 -51 6q-23 4 -48.5 6.5t-49.5 2.5q-53 0 -85 -16.5 t-48.5 -49.5t-20.5 -79t-4 -105q0 -117 29.5 -181.5t128.5 -64.5q23 0 48 2t48 6q27 4 53 8l2 -65q-25 -4 -51 -8q-23 -4 -50.5 -6.5t-49.5 -2.5q-68 0 -111 23t-68.5 63.5t-35 98t-9.5 127.5z" />
<glyph unicode="&#xaa;" horiz-adv-x="1030" d="M463 905q0 10 2 22.5t6 24.5v-2q37 147 180 160q8 0 15.5 1t17.5 1h16.5t18.5 2h10q14 2 29.5 3t32.5 3q16 2 30.5 2t30.5 2v-4q2 6 3 11.5t3 11.5t3 11t3 11q14 63 -3 86t-70 23q-27 0 -61 -2t-66 -6q-37 -4 -78 -6q2 10 3 17t3 17v9q0 6 2 10q0 10 4 18q39 4 76 8 q33 4 67.5 6.5t63.5 2.5q66 0 96.5 -26t30.5 -85q0 -27 -10 -74v-2q-4 -16 -8.5 -33.5t-8.5 -33.5t-7 -33t-7 -33q-4 -20 -10.5 -40.5t-10.5 -41.5q-4 -14 -6 -27.5t-6 -25.5q2 -37 62 -43q-4 -10 -6.5 -16.5t-4.5 -12.5q-2 -4 -2 -10q-2 -4 -1 -7t-1 -7t-3 -5t-1 -8 q-35 2 -55.5 12.5t-38.5 34.5v-2q-39 -14 -80 -22q-35 -10 -77 -16.5t-83 -6.5q-51 0 -79.5 33t-24.5 88zM532 946q-18 -88 58 -88q29 0 64.5 5t68.5 11q37 8 74 19q4 18 10 38.5t10 41.5q4 23 8 42t11 42q-10 -2 -29 -2q-8 0 -14.5 -1t-12.5 -1q-10 -2 -28.5 -3t-28.5 -1 q-8 -2 -19.5 -2h-19.5q-6 0 -12 -1.5t-13 -1.5h-12q-90 -6 -115 -98z" />
<glyph unicode="&#xab;" horiz-adv-x="835" d="M199 494l16 45l387 262l-20 -70l-306 -213l199 -233l-22 -72zM506 494l16 45l387 262l-20 -70l-306 -213l199 -233l-22 -72z" />
<glyph unicode="&#xac;" d="M131 610v70h864v-422h-73v352h-791z" />
<glyph unicode="&#xad;" horiz-adv-x="856" d="M276 516l17 72h500l-19 -72h-498z" />
<glyph unicode="&#xae;" horiz-adv-x="1085" d="M20 889q0 113 39 212t109 173t166 117t209 43t209 -43t165.5 -117t109.5 -173.5t40 -211.5q0 -113 -40 -212t-109.5 -173t-166 -116t-208.5 -42q-113 0 -209 42t-166 116t-109 173t-39 212zM86 889q0 -98 34 -185.5t95 -152t145 -102t183 -37.5q98 0 182 37.5t145.5 102 t96 152t34.5 185.5t-34.5 186t-96 152.5t-145.5 102.5t-182 38t-182.5 -38t-145.5 -102.5t-95 -152.5t-34 -186zM334 586v604h190q117 0 174.5 -39t57.5 -143q0 -72 -27 -117t-94 -62l133 -243h-72l-135 237h-162v-237h-65zM399 887h164q68 0 97.5 25.5t29.5 95.5t-40 94 t-124 24h-127v-239z" />
<glyph unicode="&#xaf;" horiz-adv-x="868" d="M485 1323l13 55h518l-15 -55h-516z" />
<glyph unicode="&#xb0;" d="M285 1174q0 125 76.5 201.5t201.5 76.5t202 -77t77 -201q0 -125 -77 -201t-202 -76t-201.5 76t-76.5 201zM354 1174q0 -96 56.5 -153.5t152.5 -57.5t154.5 57t58.5 154q0 96 -58.5 154t-154.5 58t-152.5 -58t-56.5 -154z" />
<glyph unicode="&#xb1;" d="M111 102v70h905v-70h-905zM111 631v69h413v283h74v-283h418v-69h-418v-295h-74v295h-413z" />
<glyph unicode="&#xb2;" horiz-adv-x="542" d="M301 979l16 70l254 213q57 47 101.5 94t60.5 108q14 55 -14.5 79t-77.5 24q-27 0 -59.5 -4t-61.5 -9q-35 -6 -69 -12l12 68q33 6 67 12q29 4 64 9t68 5q188 0 145 -174q-18 -72 -68.5 -128t-128.5 -120l-196 -165h303l-17 -70h-399z" />
<glyph unicode="&#xb3;" horiz-adv-x="542" d="M303 983l23 66q31 -6 65 -11q29 -4 67 -6t77 -2q68 0 106.5 33t50.5 86q18 72 -9.5 98.5t-80.5 26.5h-133l16 69h133q16 0 38 10.5t41.5 28t36 41t22.5 50.5q10 47 -9.5 70.5t-87.5 23.5q-35 0 -70.5 -3t-64.5 -8q-35 -4 -65 -8l10 66q33 4 70 10q31 4 66.5 8t70.5 4 q100 0 139 -38.5t16 -124.5q-12 -47 -35.5 -78t-45.5 -49q-27 -23 -58 -33q25 -8 44.5 -17.5t30.5 -27t12 -45t-9 -72.5q-25 -98 -90.5 -144t-163.5 -46q-39 0 -76 3t-67 7q-37 6 -70 12z" />
<glyph unicode="&#xb4;" horiz-adv-x="1099" d="M596 1300l416 195l12 -59l-416 -191z" />
<glyph unicode="&#xb6;" horiz-adv-x="1030" d="M258 981q0 76 34 156t93 144.5t143 106.5t183 42h632l-14 -74h-188l-320 -1356h-69l319 1356h-293l-321 -1356h-70l170 711q-80 0 -136 23.5t-92 60t-53.5 85t-17.5 101.5z" />
<glyph unicode="&#xb7;" horiz-adv-x="483" d="M278 553l39 170h74l-39 -170h-74z" />
<glyph unicode="&#xb8;" horiz-adv-x="1619" d="M668 -399l16 63q25 -2 49 -4q23 -2 49.5 -3t51.5 -1q45 0 73.5 19.5t40.5 70.5q6 27 2 42t-15 24.5t-26.5 12.5t-31.5 3h-105l45 182h64l-31 -119h10q35 0 68 -8t55.5 -25.5t32.5 -45t0 -66.5q-23 -84 -75 -119t-118 -35q-33 0 -60.5 1t-49.5 4q-25 2 -45 4z" />
<glyph unicode="&#xb9;" horiz-adv-x="542" d="M449 1481l235 137h74l-158 -639h-74l140 559l-197 -115z" />
<glyph unicode="&#xba;" horiz-adv-x="1030" d="M496 954q0 25 3 53.5t11 61.5q37 145 106.5 212t180.5 67q86 0 127 -38t41 -122v-18.5t-2 -18.5q-2 -18 -5.5 -39.5t-9.5 -44.5v2q-63 -285 -282 -285q-170 0 -170 170zM561 967q0 -109 119 -109q84 0 130 47t75 164q8 33 10 58.5t2 46.5q0 55 -27.5 77.5t-87.5 22.5 q-84 0 -131 -45t-76 -160q-14 -57 -14 -102z" />
<glyph unicode="&#xbb;" horiz-adv-x="892" d="M14 213l20 70l306 213l-199 233l22 72l254 -281l-16 -45zM449 213l20 70l306 213l-199 233l22 72l254 -281l-16 -45z" />
<glyph unicode="&#xbc;" horiz-adv-x="3282" d="M295 1092l473 262h66l-314 -1354h-74l291 1257l-426 -231zM1339 -78l870 1591l54 -28l-871 -1589zM2241 270l14 60l697 1024h79l-702 -1016h608l113 491h74l-113 -491h188l-16 -68h-188l-62 -270h-74l62 270h-680z" />
<glyph unicode="&#xbf;" horiz-adv-x="751" />
<glyph unicode="&#xc0;" horiz-adv-x="1175" d="M74 0l760 1434h182l78 -1434h-74l-25 440l-612 2l-233 -442h-76zM420 508h571l-45 858h-72zM817 1827l31 51l327 -199l-34 -53z" />
<glyph unicode="&#xc1;" horiz-adv-x="1175" d="M74 0l760 1434h182l78 -1434h-74l-25 440l-612 2l-233 -442h-76zM420 508h571l-45 858h-72zM784 1686l418 196l18 -61l-420 -193z" />
<glyph unicode="&#xc2;" horiz-adv-x="1175" d="M74 0l760 1434h182l78 -1434h-74l-25 440l-612 2l-233 -442h-76zM420 508h571l-45 858h-72zM633 1645l319 262h31l207 -262h-78l-156 196l-245 -196h-78z" />
<glyph unicode="&#xc3;" horiz-adv-x="1175" d="M74 0l760 1434h182l78 -1434h-74l-25 440l-612 2l-233 -442h-76zM420 508h571l-45 858h-72zM688 1758q39 33 76 57q31 23 64.5 41t58.5 18q33 0 70.5 -20.5t76.5 -44t73 -44t58 -20.5q12 0 39 15.5t55 35.5q33 23 68 54l8 -60q-37 -31 -71 -53q-29 -20 -61 -36.5 t-54 -16.5q-31 0 -70 20.5t-76.5 44t-72.5 44t-58 20.5q-16 0 -46.5 -17.5t-59.5 -39.5q-37 -25 -74 -58z" />
<glyph unicode="&#xc4;" horiz-adv-x="1175" d="M74 0l760 1434h182l78 -1434h-74l-25 440l-612 2l-233 -442h-76zM420 508h571l-45 858h-72zM772 1702l29 135h66l-35 -135h-60zM1143 1702l33 135h59l-32 -135h-60z" />
<glyph unicode="&#xc5;" horiz-adv-x="1175" d="M74 0l760 1434h182l78 -1434h-74l-25 440l-612 2l-233 -442h-76zM420 508h571l-45 858h-72zM799 1548q23 92 84.5 137t142.5 45q78 0 120.5 -43t19.5 -139q-20 -80 -77.5 -131t-150.5 -49q-86 0 -124.5 49t-14.5 131zM858 1548q-10 -49 8.5 -85t84.5 -36q123 0 155 121 q10 55 -11 89t-81 34q-59 0 -99.5 -32t-56.5 -91z" />
<glyph unicode="&#xc6;" horiz-adv-x="1175" d="M74 0l757 1434h1047l-14 -70h-703l-143 -594h588l-15 -70h-587l-148 -630h700l-14 -70h-772l100 440h-493l-232 -440h-71zM418 510h473l205 854h-230z" />
<glyph unicode="&#xc7;" horiz-adv-x="1044" d="M227 332q0 129 19.5 262t57.5 257t97.5 233.5t138 191.5t179 129t221.5 47q59 0 118.5 -6t106.5 -14q55 -8 109 -19l-17 -65q-53 8 -108 16q-47 6 -104.5 12t-112.5 6q-158 0 -274.5 -95t-195.5 -246.5t-118 -338t-39 -370.5q0 -123 74 -202t237 -79q61 0 122 6t108 15 q55 8 108 20l-6 -69q-53 -12 -110 -21q-49 -8 -109.5 -14t-122.5 -6q-92 0 -162.5 26.5t-119 73.5t-73 110.5t-24.5 139.5zM404 -399l16 63q25 -2 49 -4q23 -2 49.5 -3t51.5 -1q45 0 73.5 19.5t40.5 70.5q6 27 2 42t-15 24.5t-26.5 12.5t-31.5 3h-105l45 182h64l-31 -119h10 q35 0 68 -8t55.5 -25.5t32.5 -45t0 -66.5q-23 -84 -75 -119t-118 -35q-33 0 -60.5 1t-49.5 4q-25 2 -45 4z" />
<glyph unicode="&#xc8;" horiz-adv-x="1112" d="M209 0l332 1434h772l-17 -68h-700l-137 -596h585l-16 -68h-584l-145 -634h698l-16 -68h-772zM825 1827l31 51l327 -199l-34 -53z" />
<glyph unicode="&#xc9;" horiz-adv-x="1112" d="M209 0l332 1434h772l-17 -68h-700l-137 -596h585l-16 -68h-584l-145 -634h698l-16 -68h-772zM793 1686l418 196l18 -61l-420 -193z" />
<glyph unicode="&#xca;" horiz-adv-x="1112" d="M209 0l332 1434h772l-17 -68h-700l-137 -596h585l-16 -68h-584l-145 -634h698l-16 -68h-772zM707 1637l319 262h31l207 -262h-78l-156 196l-245 -196h-78z" />
<glyph unicode="&#xcb;" horiz-adv-x="1112" d="M209 0l332 1434h772l-17 -68h-700l-137 -596h585l-16 -68h-584l-145 -634h698l-16 -68h-772zM778 1702l29 135h66l-35 -135h-60zM1149 1702l33 135h59l-32 -135h-60z" />
<glyph unicode="&#xcc;" horiz-adv-x="440" d="M182 0l332 1434h72l-330 -1434h-74zM453 1827l31 51l327 -199l-34 -53z" />
<glyph unicode="&#xcd;" horiz-adv-x="440" d="M182 0l332 1434h72l-330 -1434h-74zM420 1686l418 196l18 -61l-420 -193z" />
<glyph unicode="&#xce;" horiz-adv-x="440" d="M182 0l332 1434h72l-330 -1434h-74zM334 1637l319 262h31l207 -262h-78l-156 196l-245 -196h-78z" />
<glyph unicode="&#xcf;" horiz-adv-x="440" d="M182 0l332 1434h72l-330 -1434h-74zM405 1702l29 135h66l-35 -135h-60zM776 1702l33 135h59l-32 -135h-60z" />
<glyph unicode="&#xd0;" horiz-adv-x="1269" d="M209 4l336 1434h483q166 0 247 -107.5t81 -302.5q0 -102 -19.5 -217t-57.5 -228.5t-94.5 -218t-130 -184.5t-164.5 -128t-198 -48h-483zM211 680v4q2 8 3 16.5t3 18.5t4 19.5t4 19.5h566q-4 -16 -6.5 -23.5t-4.5 -15.5q-2 -10 -4 -20.5t-4 -18.5h-561zM293 82h416 q88 0 163.5 44t139 116.5t113 169t84 200t52 209t17.5 197.5q0 76 -14.5 138.5t-46 107.5t-82 70.5t-121.5 25.5h-416z" />
<glyph unicode="&#xd1;" horiz-adv-x="1337" d="M209 0l336 1434h166q6 -27 26.5 -119t48 -220t61.5 -277.5t65.5 -292t59 -264.5t44.5 -193h47l323 1366h70l-336 -1434h-166q-12 59 -33.5 153.5t-47 210t-55.5 246.5t-59.5 263.5t-58 259.5t-53.5 233h-47l-321 -1366h-70zM764 1754q39 33 76 57q31 23 64.5 41t58.5 18 q33 0 70.5 -20.5t76.5 -44t73 -44t58 -20.5q12 0 39 15.5t55 35.5q33 23 68 54l8 -60q-37 -31 -71 -53q-29 -20 -61 -36.5t-54 -16.5q-31 0 -70 20.5t-76.5 44t-72.5 44t-58 20.5q-16 0 -46.5 -17.5t-59.5 -39.5q-37 -25 -74 -58z" />
<glyph unicode="&#xd2;" horiz-adv-x="1275" d="M240 403q0 123 21.5 249t61 243t100 218t137.5 177t172 119t206 43q217 0 324.5 -101.5t107.5 -320.5q0 -123 -19.5 -249t-57.5 -242.5t-96 -218t-136 -177t-175 -118.5t-214 -43q-115 0 -197 22.5t-134 72.5t-76.5 130t-24.5 196zM315 401q0 -98 18.5 -165.5 t60.5 -108.5t111 -59.5t167 -18.5q109 0 197.5 44t157.5 119t119 173t83 207.5t48 222.5t15 217q0 182 -85 267t-269 85q-104 0 -190 -45t-156 -121.5t-121 -176t-86 -209t-52.5 -220t-17.5 -211.5zM866 1827l31 51l327 -199l-34 -53z" />
<glyph unicode="&#xd3;" horiz-adv-x="1275" d="M240 403q0 123 21.5 249t61 243t100 218t137.5 177t172 119t206 43q217 0 324.5 -101.5t107.5 -320.5q0 -123 -19.5 -249t-57.5 -242.5t-96 -218t-136 -177t-175 -118.5t-214 -43q-115 0 -197 22.5t-134 72.5t-76.5 130t-24.5 196zM315 401q0 -98 18.5 -165.5 t60.5 -108.5t111 -59.5t167 -18.5q109 0 197.5 44t157.5 119t119 173t83 207.5t48 222.5t15 217q0 182 -85 267t-269 85q-104 0 -190 -45t-156 -121.5t-121 -176t-86 -209t-52.5 -220t-17.5 -211.5zM834 1686l418 196l18 -61l-420 -193z" />
<glyph unicode="&#xd4;" horiz-adv-x="1275" d="M240 403q0 123 21.5 249t61 243t100 218t137.5 177t172 119t206 43q217 0 324.5 -101.5t107.5 -320.5q0 -123 -19.5 -249t-57.5 -242.5t-96 -218t-136 -177t-175 -118.5t-214 -43q-115 0 -197 22.5t-134 72.5t-76.5 130t-24.5 196zM315 401q0 -98 18.5 -165.5 t60.5 -108.5t111 -59.5t167 -18.5q109 0 197.5 44t157.5 119t119 173t83 207.5t48 222.5t15 217q0 182 -85 267t-269 85q-104 0 -190 -45t-156 -121.5t-121 -176t-86 -209t-52.5 -220t-17.5 -211.5zM748 1645l319 262h31l207 -262h-78l-156 196l-245 -196h-78z" />
<glyph unicode="&#xd5;" horiz-adv-x="1275" d="M240 403q0 123 21.5 249t61 243t100 218t137.5 177t172 119t206 43q217 0 324.5 -101.5t107.5 -320.5q0 -123 -19.5 -249t-57.5 -242.5t-96 -218t-136 -177t-175 -118.5t-214 -43q-115 0 -197 22.5t-134 72.5t-76.5 130t-24.5 196zM315 401q0 -98 18.5 -165.5 t60.5 -108.5t111 -59.5t167 -18.5q109 0 197.5 44t157.5 119t119 173t83 207.5t48 222.5t15 217q0 182 -85 267t-269 85q-104 0 -190 -45t-156 -121.5t-121 -176t-86 -209t-52.5 -220t-17.5 -211.5zM735 1754q39 33 76 57q31 23 64.5 41t58.5 18q33 0 70.5 -20.5t76.5 -44 t73 -44t58 -20.5q12 0 39 15.5t55 35.5q33 23 68 54l8 -60q-37 -31 -71 -53q-29 -20 -61 -36.5t-54 -16.5q-31 0 -70 20.5t-76.5 44t-72.5 44t-58 20.5q-16 0 -46.5 -17.5t-59.5 -39.5q-37 -25 -74 -58z" />
<glyph unicode="&#xd6;" horiz-adv-x="1275" d="M240 403q0 123 21.5 249t61 243t100 218t137.5 177t172 119t206 43q217 0 324.5 -101.5t107.5 -320.5q0 -123 -19.5 -249t-57.5 -242.5t-96 -218t-136 -177t-175 -118.5t-214 -43q-115 0 -197 22.5t-134 72.5t-76.5 130t-24.5 196zM315 401q0 -98 18.5 -165.5 t60.5 -108.5t111 -59.5t167 -18.5q109 0 197.5 44t157.5 119t119 173t83 207.5t48 222.5t15 217q0 182 -85 267t-269 85q-104 0 -190 -45t-156 -121.5t-121 -176t-86 -209t-52.5 -220t-17.5 -211.5zM819 1702l29 135h66l-35 -135h-60zM1190 1702l33 135h59l-32 -135h-60z " />
<glyph unicode="&#xd7;" d="M156 156l360 358l-360 358l49 50l358 -361l359 361l49 -50l-361 -358l361 -358l-49 -50l-359 361l-358 -361z" />
<glyph unicode="&#xd8;" horiz-adv-x="1275" d="M152 -193q236 346 462 678q96 141 200 294t205 301.5t195.5 286.5t171.5 253l60 -27l-1239 -1818zM240 403q0 123 21.5 249t61 243t100 218t137.5 177t172 119t206 43q217 0 324.5 -101.5t107.5 -320.5q0 -123 -19.5 -249t-57.5 -242.5t-96 -218t-136 -177t-175 -118.5 t-214 -43q-115 0 -197 22.5t-134 72.5t-76.5 130t-24.5 196zM315 401q0 -98 18.5 -165.5t60.5 -108.5t111 -59.5t167 -18.5q109 0 197.5 44t157.5 119t119 173t83 207.5t48 222.5t15 217q0 182 -85 267t-269 85q-104 0 -190 -45t-156 -121.5t-121 -176t-86 -209t-52.5 -220 t-17.5 -211.5z" />
<glyph unicode="&#xd9;" horiz-adv-x="1249" d="M260 264q0 31 6 74t15 80l233 1016h74l-236 -1031q-6 -27 -11 -65.5t-5 -71.5q0 -113 86 -164t235 -51q190 0 288.5 89t139.5 263l236 1031h74l-236 -1031q-23 -102 -62.5 -181t-100 -132t-145.5 -80.5t-198 -27.5q-178 0 -285.5 68.5t-107.5 213.5zM852 1827l31 51 l327 -199l-34 -53z" />
<glyph unicode="&#xda;" horiz-adv-x="1249" d="M260 264q0 31 6 74t15 80l233 1016h74l-236 -1031q-6 -27 -11 -65.5t-5 -71.5q0 -113 86 -164t235 -51q190 0 288.5 89t139.5 263l236 1031h74l-236 -1031q-23 -102 -62.5 -181t-100 -132t-145.5 -80.5t-198 -27.5q-178 0 -285.5 68.5t-107.5 213.5zM819 1686l418 196 l18 -61l-420 -193z" />
<glyph unicode="&#xdb;" horiz-adv-x="1249" d="M260 264q0 31 6 74t15 80l233 1016h74l-236 -1031q-6 -27 -11 -65.5t-5 -71.5q0 -113 86 -164t235 -51q190 0 288.5 89t139.5 263l236 1031h74l-236 -1031q-23 -102 -62.5 -181t-100 -132t-145.5 -80.5t-198 -27.5q-178 0 -285.5 68.5t-107.5 213.5zM733 1637l319 262h31 l207 -262h-78l-156 196l-245 -196h-78z" />
<glyph unicode="&#xdc;" horiz-adv-x="1249" d="M260 264q0 31 6 74t15 80l233 1016h74l-236 -1031q-6 -27 -11 -65.5t-5 -71.5q0 -113 86 -164t235 -51q190 0 288.5 89t139.5 263l236 1031h74l-236 -1031q-23 -102 -62.5 -181t-100 -132t-145.5 -80.5t-198 -27.5q-178 0 -285.5 68.5t-107.5 213.5zM804 1702l29 135h66 l-35 -135h-60zM1175 1702l33 135h59l-32 -135h-60z" />
<glyph unicode="&#xdd;" horiz-adv-x="1050" d="M403 1434h72l211 -734l559 734h76l-614 -818l-146 -616h-74l146 631zM719 1686l418 196l18 -61l-420 -193z" />
<glyph unicode="&#xde;" horiz-adv-x="1196" d="M209 0q23 98 45 195.5t45 195.5q18 82 37.5 163t40.5 163q41 174 84 358.5t84 358.5h69q-4 -16 -7 -33t-7 -33t-7 -31.5t-7 -31.5t-7.5 -30.5t-7.5 -29.5q-4 -16 -7 -29.5t-7 -29.5h404q166 0 242.5 -71t76.5 -204q0 -10 -1 -17t-1 -17q-2 -29 -7 -60t-14 -65 q-25 -102 -68.5 -189.5t-107 -151t-147.5 -100.5t-186 -37h-406v5l-8 -36t-8 -34q-10 -39 -17 -68q-4 -18 -8 -35.5t-8 -35.5t-7 -36t-7 -34h-70zM360 352h404q88 0 156.5 31t121 85t88 127t56.5 157q18 76 18 139q0 104 -61.5 160.5t-198.5 56.5h-405v4 q-23 -98 -44.5 -192.5t-43.5 -190.5l-56 -227q-10 -37 -17 -75t-18 -75z" />
<glyph unicode="&#xdf;" horiz-adv-x="1146" d="M84 -471l367 1567q27 115 62.5 194.5t85.5 128.5t116.5 71.5t154.5 22.5q152 0 220.5 -55t68.5 -158q0 -66 -16.5 -116.5t-44 -88.5t-64.5 -68t-80 -52q-86 -47 -122.5 -76t-36.5 -70q0 -20 4 -36.5t17 -32t38 -32.5t64 -42q57 -35 95 -61.5t61.5 -55t33.5 -64.5t10 -89 q0 -98 -30.5 -178t-90 -136.5t-145.5 -88t-199 -31.5q-35 0 -71.5 4t-67.5 10q-37 6 -72 14l11 66q37 -8 73 -15q33 -6 69 -10t67 -4q180 0 281 99.5t101 267.5q0 37 -7 63.5t-26.5 51t-54 50t-88.5 58.5q-86 53 -115.5 93t-29.5 89q0 33 9 59.5t31.5 50t62.5 48t100 57.5 q78 41 118.5 100.5t40.5 155.5q0 80 -48 119t-169 39q-78 0 -134 -20.5t-97 -63.5t-68.5 -110.5t-50.5 -163.5l-364 -1561h-70z" />
<glyph unicode="&#xe0;" horiz-adv-x="1042" d="M215 242q0 86 15.5 179t45 182t72.5 169t100.5 140.5t127 95t151.5 34.5q43 0 104.5 -6t118.5 -14q68 -8 135 -21l-155 -667q-12 -49 -22.5 -107.5t-18.5 -107.5q-8 -59 -19 -117l-67 -4q10 59 18 113q8 45 15.5 87t11.5 60q-53 -78 -117 -139q-53 -53 -123.5 -95 t-146.5 -42q-125 0 -185.5 68.5t-60.5 191.5zM291 242q0 -92 43 -142.5t141 -50.5q43 0 89 23.5t90 60.5t83 78t69 78t46 61l16 23l133 573q-43 6 -90 15q-41 6 -89 11t-95 5q-109 0 -189.5 -73t-136 -182.5t-83 -238.5t-27.5 -241zM623 1427l36 50l328 -195l-37 -45z" />
<glyph unicode="&#xe1;" horiz-adv-x="1042" d="M215 242q0 86 15.5 179t45 182t72.5 169t100.5 140.5t127 95t151.5 34.5q43 0 104.5 -6t118.5 -14q68 -8 135 -21l-155 -667q-12 -49 -22.5 -107.5t-18.5 -107.5q-8 -59 -19 -117l-67 -4q10 59 18 113q8 45 15.5 87t11.5 60q-53 -78 -117 -139q-53 -53 -123.5 -95 t-146.5 -42q-125 0 -185.5 68.5t-60.5 191.5zM291 242q0 -92 43 -142.5t141 -50.5q43 0 89 23.5t90 60.5t83 78t69 78t46 61l16 23l133 573q-43 6 -90 15q-41 6 -89 11t-95 5q-109 0 -189.5 -73t-136 -182.5t-83 -238.5t-27.5 -241zM604 1300l416 195l12 -59l-416 -191z" />
<glyph unicode="&#xe2;" horiz-adv-x="1042" d="M215 242q0 86 15.5 179t45 182t72.5 169t100.5 140.5t127 95t151.5 34.5q43 0 104.5 -6t118.5 -14q68 -8 135 -21l-155 -667q-12 -49 -22.5 -107.5t-18.5 -107.5q-8 -59 -19 -117l-67 -4q10 59 18 113q8 45 15.5 87t11.5 60q-53 -78 -117 -139q-53 -53 -123.5 -95 t-146.5 -42q-125 0 -185.5 68.5t-60.5 191.5zM291 242q0 -92 43 -142.5t141 -50.5q43 0 89 23.5t90 60.5t83 78t69 78t46 61l16 23l133 573q-43 6 -90 15q-41 6 -89 11t-95 5q-109 0 -189.5 -73t-136 -182.5t-83 -238.5t-27.5 -241zM530 1219l299 276h31l178 -276h-73 l-132 204l-229 -204h-74z" />
<glyph unicode="&#xe3;" horiz-adv-x="1042" d="M215 242q0 86 15.5 179t45 182t72.5 169t100.5 140.5t127 95t151.5 34.5q43 0 104.5 -6t118.5 -14q68 -8 135 -21l-155 -667q-12 -49 -22.5 -107.5t-18.5 -107.5q-8 -59 -19 -117l-67 -4q10 59 18 113q8 45 15.5 87t11.5 60q-53 -78 -117 -139q-53 -53 -123.5 -95 t-146.5 -42q-125 0 -185.5 68.5t-60.5 191.5zM291 242q0 -92 43 -142.5t141 -50.5q43 0 89 23.5t90 60.5t83 78t69 78t46 61l16 23l133 573q-43 6 -90 15q-41 6 -89 11t-95 5q-109 0 -189.5 -73t-136 -182.5t-83 -238.5t-27.5 -241zM526 1366q35 25 68 47q29 16 59.5 31.5 t52.5 15.5q27 0 63 -16.5t72.5 -37t69.5 -36.5t54 -16q12 0 36.5 12t46.5 29q27 18 58 41l2 -58q-31 -25 -60 -43q-25 -16 -52 -28.5t-50 -12.5q-27 0 -62.5 16.5t-72.5 37t-71 37t-54 16.5q-16 0 -41 -15.5t-51 -31.5q-31 -20 -64 -45z" />
<glyph unicode="&#xe4;" horiz-adv-x="1042" d="M215 242q0 86 15.5 179t45 182t72.5 169t100.5 140.5t127 95t151.5 34.5q43 0 104.5 -6t118.5 -14q68 -8 135 -21l-155 -667q-12 -49 -22.5 -107.5t-18.5 -107.5q-8 -59 -19 -117l-67 -4q10 59 18 113q8 45 15.5 87t11.5 60q-53 -78 -117 -139q-53 -53 -123.5 -95 t-146.5 -42q-125 0 -185.5 68.5t-60.5 191.5zM291 242q0 -92 43 -142.5t141 -50.5q43 0 89 23.5t90 60.5t83 78t69 78t46 61l16 23l133 573q-43 6 -90 15q-41 6 -89 11t-95 5q-109 0 -189.5 -73t-136 -182.5t-83 -238.5t-27.5 -241zM592 1296l30 134h58l-31 -134h-57z M948 1296l27 134h61l-31 -134h-57z" />
<glyph unicode="&#xe5;" horiz-adv-x="1042" d="M215 242q0 86 15.5 179t45 182t72.5 169t100.5 140.5t127 95t151.5 34.5q43 0 104.5 -6t118.5 -14q68 -8 135 -21l-155 -667q-12 -49 -22.5 -107.5t-18.5 -107.5q-8 -59 -19 -117l-67 -4q10 59 18 113q8 45 15.5 87t11.5 60q-53 -78 -117 -139q-53 -53 -123.5 -95 t-146.5 -42q-125 0 -185.5 68.5t-60.5 191.5zM291 242q0 -92 43 -142.5t141 -50.5q43 0 89 23.5t90 60.5t83 78t69 78t46 61l16 23l133 573q-43 6 -90 15q-41 6 -89 11t-95 5q-109 0 -189.5 -73t-136 -182.5t-83 -238.5t-27.5 -241zM678 1366q6 35 26.5 68.5t51.5 59.5 t68 42t76 16q80 0 113.5 -54t15.5 -132q-23 -86 -82.5 -135t-137.5 -49q-88 0 -116.5 52t-14.5 132zM736 1366q-10 -47 12.5 -87t75.5 -40t94 37t53 90q10 45 -11.5 86t-74.5 41t-96 -38t-53 -89z" />
<glyph unicode="&#xe6;" horiz-adv-x="1611" d="M156 164q0 47 16 119q20 86 53 140t83 87t122 50.5t170 29.5q23 2 45.5 4t46.5 6q23 4 48.5 5t47.5 5q12 2 23.5 2t24.5 2l49 7v-5q4 12 6 24.5t4 27.5q4 14 6 26.5t6 26.5q12 55 13 100q0 78 -42 111t-126 33q-53 0 -117 -3.5t-119 -7.5q-66 -4 -131 -8q2 8 3 17.5 t3 19.5q0 4 1 6t1 6q2 6 2 13.5t2 13.5q61 4 127 10q55 4 120 7t124 3q111 0 164 -51t57 -145q78 94 178.5 145t202.5 51q135 0 208 -65.5t73 -212.5q0 -45 -6.5 -97.5t-22.5 -115.5q-2 -6 -3 -11t-3 -12q-2 -6 -3 -13t-3 -11q-2 -2 -2 -6q0 -2 -1 -3t-1 -3q-2 -4 -2 -13 h-686v4q-29 -127 -29 -213q0 -109 50 -162t171 -53q53 0 115.5 2t115.5 6q63 4 127 11q-6 -10 -6 -13v-4q0 -4 -1 -5t-1 -5q-2 -12 -3 -23.5t-3 -23.5q-66 -6 -129 -10q-55 -4 -116.5 -6t-114.5 -2q-100 0 -160 31.5t-88 86.5q-4 -2 -11.5 -4t-9.5 -4q-12 -4 -20 -8 q-10 -4 -21.5 -8t-19.5 -8q-4 -2 -40 -15.5t-93.5 -29t-131 -28.5t-153.5 -13q-190 0 -190 182zM231 190q1 -135 134 -135q66 0 140.5 13.5t141 31t115.5 34t65 22.5q-4 20 -6 44.5t-2 49.5q0 59 11.5 134t31.5 161q-27 -4 -54.5 -6t-53.5 -7q-18 -2 -36 -3t-36 -3 q-10 -2 -18.5 -2t-18.5 -2q-16 -2 -34.5 -4t-37.5 -4l-73 -6q-205 -25 -256 -225q-12 -49 -13 -93zM936 553h612v-4q14 61 21.5 111.5t7.5 93.5q0 117 -56.5 166t-166.5 49q-147 0 -256 -94.5t-162 -321.5z" />
<glyph unicode="&#xe7;" horiz-adv-x="849" d="M217 264q0 145 33 285.5t100.5 250t169 176t238.5 66.5q37 0 76.5 -4t72.5 -8q37 -6 74 -10l-18 -64q-33 4 -70 11q-31 4 -66.5 7t-68.5 3q-121 0 -209 -60.5t-144.5 -161t-84 -227.5t-27.5 -258q0 -104 56.5 -163.5t191.5 -59.5q29 0 68.5 5t76.5 14q43 8 90 20v-66 q-41 -12 -84 -20q-37 -8 -81 -13t-87 -5q-82 0 -140 20.5t-95 57t-54.5 89t-17.5 115.5zM297 -399l16 63q25 -2 49 -4q23 -2 49.5 -3t51.5 -1q45 0 73.5 19.5t40.5 70.5q6 27 2 42t-15 24.5t-26.5 12.5t-31.5 3h-105l45 182h64l-31 -119h10q35 0 68 -8t55.5 -25.5t32.5 -45 t0 -66.5q-23 -84 -75 -119t-118 -35q-33 0 -60.5 1t-49.5 4q-25 2 -45 4z" />
<glyph unicode="&#xe8;" horiz-adv-x="987" d="M207 268q0 125 32.5 262.5t100.5 251t170 187t244 73.5q119 0 192.5 -50t73.5 -161q0 -94 -37 -155.5t-110.5 -98t-181 -51t-249.5 -14.5h-129q-14 -55 -22 -118.5t-8 -110.5q0 -113 61.5 -172.5t165.5 -59.5q59 0 119.5 9.5t107.5 19.5q55 12 109 31v-68 q-53 -18 -111 -31q-49 -12 -112.5 -21t-128.5 -9q-129 0 -208 74.5t-79 211.5zM328 578h133q119 0 210 11t152.5 39.5t92 77t30.5 123.5q0 80 -50 114t-144 34q-86 0 -153 -29.5t-118 -84t-89 -127t-64 -158.5zM615 1427l36 50l328 -195l-37 -45z" />
<glyph unicode="&#xe9;" horiz-adv-x="987" d="M207 268q0 125 32.5 262.5t100.5 251t170 187t244 73.5q119 0 192.5 -50t73.5 -161q0 -94 -37 -155.5t-110.5 -98t-181 -51t-249.5 -14.5h-129q-14 -55 -22 -118.5t-8 -110.5q0 -113 61.5 -172.5t165.5 -59.5q59 0 119.5 9.5t107.5 19.5q55 12 109 31v-68 q-53 -18 -111 -31q-49 -12 -112.5 -21t-128.5 -9q-129 0 -208 74.5t-79 211.5zM328 578h133q119 0 210 11t152.5 39.5t92 77t30.5 123.5q0 80 -50 114t-144 34q-86 0 -153 -29.5t-118 -84t-89 -127t-64 -158.5zM592 1300l416 195l12 -59l-416 -191z" />
<glyph unicode="&#xea;" horiz-adv-x="987" d="M207 268q0 125 32.5 262.5t100.5 251t170 187t244 73.5q119 0 192.5 -50t73.5 -161q0 -94 -37 -155.5t-110.5 -98t-181 -51t-249.5 -14.5h-129q-14 -55 -22 -118.5t-8 -110.5q0 -113 61.5 -172.5t165.5 -59.5q59 0 119.5 9.5t107.5 19.5q55 12 109 31v-68 q-53 -18 -111 -31q-49 -12 -112.5 -21t-128.5 -9q-129 0 -208 74.5t-79 211.5zM328 578h133q119 0 210 11t152.5 39.5t92 77t30.5 123.5q0 80 -50 114t-144 34q-86 0 -153 -29.5t-118 -84t-89 -127t-64 -158.5zM518 1219l299 276h31l178 -276h-73l-132 204l-229 -204h-74z " />
<glyph unicode="&#xeb;" horiz-adv-x="987" d="M207 268q0 125 32.5 262.5t100.5 251t170 187t244 73.5q119 0 192.5 -50t73.5 -161q0 -94 -37 -155.5t-110.5 -98t-181 -51t-249.5 -14.5h-129q-14 -55 -22 -118.5t-8 -110.5q0 -113 61.5 -172.5t165.5 -59.5q59 0 119.5 9.5t107.5 19.5q55 12 109 31v-68 q-53 -18 -111 -31q-49 -12 -112.5 -21t-128.5 -9q-129 0 -208 74.5t-79 211.5zM328 578h133q119 0 210 11t152.5 39.5t92 77t30.5 123.5q0 80 -50 114t-144 34q-86 0 -153 -29.5t-118 -84t-89 -127t-64 -158.5zM582 1296l30 134h58l-31 -134h-57zM938 1296l27 134h61 l-31 -134h-57z" />
<glyph unicode="&#xec;" horiz-adv-x="507" d="M217 0l240 1024h67l-239 -1024h-68zM324 1427l36 50l328 -195l-37 -45z" />
<glyph unicode="&#xed;" horiz-adv-x="507" d="M217 0l240 1024h67l-239 -1024h-68zM418 1300l416 195l12 -59l-416 -191z" />
<glyph unicode="&#xee;" horiz-adv-x="507" d="M217 0l240 1024h67l-239 -1024h-68zM288 1219l299 276h31l178 -276h-73l-132 204l-229 -204h-74z" />
<glyph unicode="&#xef;" horiz-adv-x="507" d="M217 0l240 1024h67l-239 -1024h-68zM355 1296l30 134h58l-31 -134h-57zM711 1296l27 134h61l-31 -134h-57z" />
<glyph unicode="&#xf0;" horiz-adv-x="1030" d="M182 276q0 139 42 249t114 186.5t164 118.5t194 42q57 0 117.5 -14t112.5 -31q59 -20 114 -45q2 18 7 39q4 16 6 37t2 39q0 82 -28 160t-88 147.5t-154.5 129t-227.5 104.5l43 71q311 -104 437 -301.5t65 -470.5q-49 -207 -107.5 -350t-130 -233.5t-159 -131 t-195.5 -40.5q-94 0 -156.5 26.5t-100.5 68.5t-54.5 94t-16.5 105zM254 285q0 -98 65.5 -162t206.5 -64q94 0 172 50.5t138.5 137.5t106.5 204.5t81 250.5q-4 2 -38 16.5t-84 32t-108.5 31t-109.5 13.5q-86 0 -164 -39t-137 -107.5t-94 -162t-35 -201.5zM549 1192l538 328 l33 -60l-538 -325z" />
<glyph unicode="&#xf1;" horiz-adv-x="1116" d="M213 0l238 1024h71l-53 -231q53 70 115 125q53 47 120.5 85.5t143.5 38.5q111 0 174 -63.5t63 -173.5q0 -72 -12 -141.5t-26 -131.5l-125 -532h-72l123 528q14 57 26.5 131t12.5 140q0 84 -46 130t-130 46q-70 0 -138.5 -47t-126.5 -103q-68 -68 -129 -149l-157 -676h-72 zM596 1366q35 25 68 47q29 16 59.5 31.5t52.5 15.5q27 0 63 -16.5t72.5 -37t69.5 -36.5t54 -16q12 0 36.5 12t46.5 29q27 18 58 41l2 -58q-31 -25 -60 -43q-25 -16 -52 -28.5t-50 -12.5q-27 0 -62.5 16.5t-72.5 37t-71 37t-54 16.5q-16 0 -41 -15.5t-51 -31.5 q-31 -20 -64 -45z" />
<glyph unicode="&#xf2;" horiz-adv-x="1042" d="M205 285q0 160 39 298t108.5 240.5t163.5 160.5t203 58q158 0 241.5 -81.5t83.5 -239.5q0 -156 -37.5 -291t-106.5 -234.5t-166 -156.5t-214 -57q-158 0 -236.5 72.5t-78.5 230.5zM281 285q0 -117 58 -177.5t181 -60.5q100 0 182 55.5t141.5 148.5t92.5 215t33 255 q0 117 -60.5 186.5t-189.5 69.5q-98 0 -178 -56.5t-138.5 -151.5t-90 -221t-31.5 -263zM639 1427l36 50l328 -195l-37 -45z" />
<glyph unicode="&#xf3;" horiz-adv-x="1042" d="M205 285q0 160 39 298t108.5 240.5t163.5 160.5t203 58q158 0 241.5 -81.5t83.5 -239.5q0 -156 -37.5 -291t-106.5 -234.5t-166 -156.5t-214 -57q-158 0 -236.5 72.5t-78.5 230.5zM281 285q0 -117 58 -177.5t181 -60.5q100 0 182 55.5t141.5 148.5t92.5 215t33 255 q0 117 -60.5 186.5t-189.5 69.5q-98 0 -178 -56.5t-138.5 -151.5t-90 -221t-31.5 -263zM619 1300l416 195l12 -59l-416 -191z" />
<glyph unicode="&#xf4;" horiz-adv-x="1042" d="M205 285q0 160 39 298t108.5 240.5t163.5 160.5t203 58q158 0 241.5 -81.5t83.5 -239.5q0 -156 -37.5 -291t-106.5 -234.5t-166 -156.5t-214 -57q-158 0 -236.5 72.5t-78.5 230.5zM281 285q0 -117 58 -177.5t181 -60.5q100 0 182 55.5t141.5 148.5t92.5 215t33 255 q0 117 -60.5 186.5t-189.5 69.5q-98 0 -178 -56.5t-138.5 -151.5t-90 -221t-31.5 -263zM544 1219l299 276h31l178 -276h-73l-132 204l-229 -204h-74z" />
<glyph unicode="&#xf5;" horiz-adv-x="1042" d="M205 285q0 160 39 298t108.5 240.5t163.5 160.5t203 58q158 0 241.5 -81.5t83.5 -239.5q0 -156 -37.5 -291t-106.5 -234.5t-166 -156.5t-214 -57q-158 0 -236.5 72.5t-78.5 230.5zM281 285q0 -117 58 -177.5t181 -60.5q100 0 182 55.5t141.5 148.5t92.5 215t33 255 q0 117 -60.5 186.5t-189.5 69.5q-98 0 -178 -56.5t-138.5 -151.5t-90 -221t-31.5 -263zM540 1366q35 25 68 47q29 16 59.5 31.5t52.5 15.5q27 0 63 -16.5t72.5 -37t69.5 -36.5t54 -16q12 0 36.5 12t46.5 29q27 18 58 41l2 -58q-31 -25 -60 -43q-25 -16 -52 -28.5t-50 -12.5 q-27 0 -62.5 16.5t-72.5 37t-71 37t-54 16.5q-16 0 -41 -15.5t-51 -31.5q-31 -20 -64 -45z" />
<glyph unicode="&#xf6;" horiz-adv-x="1042" d="M205 285q0 160 39 298t108.5 240.5t163.5 160.5t203 58q158 0 241.5 -81.5t83.5 -239.5q0 -156 -37.5 -291t-106.5 -234.5t-166 -156.5t-214 -57q-158 0 -236.5 72.5t-78.5 230.5zM281 285q0 -117 58 -177.5t181 -60.5q100 0 182 55.5t141.5 148.5t92.5 215t33 255 q0 117 -60.5 186.5t-189.5 69.5q-98 0 -178 -56.5t-138.5 -151.5t-90 -221t-31.5 -263zM609 1296l30 134h58l-31 -134h-57zM965 1296l27 134h61l-31 -134h-57z" />
<glyph unicode="&#xf7;" d="M109 479v70h909v-70h-909zM524 80v164h78v-164h-78zM524 784v164h78v-164h-78z" />
<glyph unicode="&#xf8;" horiz-adv-x="1024" d="M143 -209q2 4 11 16q8 12 16 25.5t16 26.5q20 27 41 61l80 129q2 4 10 12q2 2 2 3.5t3 3.5q2 2 3 4t3 4q66 106 131 212.5t133 213.5q27 43 52.5 85t51.5 85q10 16 20.5 31.5t20.5 31.5l74 117l74 117q2 4 4 7t4 7t2 7t4 7q8 14 17.5 28.5t19.5 31.5q10 16 18.5 29.5 t18.5 29.5q4 8 10 15.5t10 15.5q6 8 11.5 16t11.5 19q8 14 16 27.5t17 27.5l12 -6q4 -4 6 -4q2 -2 8 -2q4 -4 6 -4q2 -2 9 -2l7 -3.5l7 -3.5q-4 -6 -8 -13t-9 -13q-2 -4 -4 -6t-4 -6q-14 -20 -27.5 -41t-27.5 -43q-6 -10 -12 -19.5t-13 -19.5q-6 -10 -12 -19.5t-10 -17.5 l-13.5 -22.5t-15.5 -22.5q-2 -2 -2 -4t-2 -4q-2 -4 -2 -5l-2 -2l-6 -12q-16 -29 -34.5 -57.5t-37.5 -57.5l-61 -98q-35 -53 -67 -105.5t-66 -105.5q-20 -33 -39 -63.5t-39 -63.5q-16 -27 -33.5 -53.5t-34.5 -52.5q-37 -59 -73.5 -116.5t-71.5 -115.5q-4 -4 -5 -7t-3 -7 t-4.5 -6t-4.5 -6q-6 -10 -13 -21.5t-13 -21.5q-14 -23 -26.5 -43.5t-26.5 -42.5q-43 -66 -82 -129q-12 4 -25 10q-4 2 -7 2t-7 2t-8.5 4t-8.5 4zM205 289q0 160 39 298t108.5 240.5t163.5 161t203 58.5q158 0 241.5 -82t83.5 -240q0 -156 -37.5 -291t-106.5 -234.5 t-166 -156.5t-214 -57q-158 0 -236.5 72.5t-78.5 230.5zM281 289q0 -117 58 -177.5t181 -60.5q100 0 182 55.5t141.5 148.5t92.5 215t33 255q0 117 -60.5 186.5t-189.5 69.5q-98 0 -178 -56.5t-138.5 -151.5t-90 -221t-31.5 -263z" />
<glyph unicode="&#xf9;" horiz-adv-x="1083" d="M211 219q0 76 12.5 143.5t26.5 129.5l125 532h71l-122 -528q-14 -57 -26.5 -131t-12.5 -140q0 -78 43 -127t133 -49q68 0 137.5 46t126.5 104q68 66 129 149l158 676h71l-237 -1024h-72l53 231q-53 -72 -114 -125q-53 -47 -121 -85.5t-143 -38.5q-111 0 -174.5 63.5 t-63.5 173.5zM625 1427l36 50l328 -195l-37 -45z" />
<glyph unicode="&#xfa;" horiz-adv-x="1083" d="M211 219q0 76 12.5 143.5t26.5 129.5l125 532h71l-122 -528q-14 -57 -26.5 -131t-12.5 -140q0 -78 43 -127t133 -49q68 0 137.5 46t126.5 104q68 66 129 149l158 676h71l-237 -1024h-72l53 231q-53 -72 -114 -125q-53 -47 -121 -85.5t-143 -38.5q-111 0 -174.5 63.5 t-63.5 173.5zM604 1300l416 195l12 -59l-416 -191z" />
<glyph unicode="&#xfb;" horiz-adv-x="1083" d="M211 219q0 76 12.5 143.5t26.5 129.5l125 532h71l-122 -528q-14 -57 -26.5 -131t-12.5 -140q0 -78 43 -127t133 -49q68 0 137.5 46t126.5 104q68 66 129 149l158 676h71l-237 -1024h-72l53 231q-53 -72 -114 -125q-53 -47 -121 -85.5t-143 -38.5q-111 0 -174.5 63.5 t-63.5 173.5zM501 1219l299 276h31l178 -276h-73l-132 204l-229 -204h-74z" />
<glyph unicode="&#xfc;" horiz-adv-x="1083" d="M211 219q0 76 12.5 143.5t26.5 129.5l125 532h71l-122 -528q-14 -57 -26.5 -131t-12.5 -140q0 -78 43 -127t133 -49q68 0 137.5 46t126.5 104q68 66 129 149l158 676h71l-237 -1024h-72l53 231q-53 -72 -114 -125q-53 -47 -121 -85.5t-143 -38.5q-111 0 -174.5 63.5 t-63.5 173.5zM555 1296l30 134h58l-31 -134h-57zM911 1296l27 134h61l-31 -134h-57z" />
<glyph unicode="&#xfd;" horiz-adv-x="933" d="M229 -467l252 467h-119l-51 1024h74l47 -958h82l508 958h78l-793 -1491h-78zM576 1300l416 195l12 -59l-416 -191z" />
<glyph unicode="&#xfe;" horiz-adv-x="1067" d="M102 -467l463 1958h70l-143 -594q10 8 43.5 31.5t81 49.5t105 45t116.5 19q129 0 186 -75.5t57 -206.5q0 -53 -7 -107.5t-23 -120.5q-66 -270 -191 -410t-344 -140q-41 0 -83 3t-75.5 7t-54 8t-20.5 6l-113 -473h-68zM297 80q4 0 26.5 -4t55.5 -9.5t71.5 -8.5t77.5 -3 q94 0 166 29t125 87t93 149.5t69 214.5q27 109 27 198q0 236 -185 236q-66 0 -128 -25.5t-113.5 -56.5t-82 -55.5t-30.5 -22.5z" />
<glyph unicode="&#xff;" horiz-adv-x="933" d="M229 -467l252 467h-119l-51 1024h74l47 -958h82l508 958h78l-793 -1491h-78zM564 1296l30 134h58l-31 -134h-57zM920 1296l27 134h61l-31 -134h-57z" />
<glyph unicode="&#x152;" horiz-adv-x="1837" d="M225 348q0 10 1 19.5t1 19.5q6 84 15.5 167t23.5 153q39 156 96.5 292t138.5 236t191.5 158.5t257.5 58.5q25 0 63 -1t80 -4t83 -6t73 -7h762l-14 -68h-692l-144 -596h576l-13 -68h-575l-150 -634h693l-19 -68l-760 -2q-37 -4 -81 -6t-85.5 -5t-78.5 -4t-64 -1 q-186 0 -282.5 99t-96.5 267zM305 365q0 -66 16.5 -122.5t53.5 -98.5t97.5 -66.5t150.5 -24.5q16 0 65 2t102.5 5t95.5 6l42 2l305 1298q-16 4 -96 10t-203 13q-131 0 -228.5 -59.5t-167 -157t-115.5 -218t-77 -243.5q-25 -104 -33 -189.5t-8 -156.5z" />
<glyph unicode="&#x153;" horiz-adv-x="1703" d="M195 231q0 23 2 50.5t6 56.5q6 45 16 94t23 103q33 137 78 233t106 157.5t142 89t186 27.5q139 0 213.5 -58t85.5 -187q80 133 186.5 189t220.5 56q139 0 211 -66.5t72 -213.5q0 -47 -7 -99.5t-22 -113.5q-4 -10 -6 -22.5t-6 -24.5q-2 -6 -3 -11.5t-3 -11.5h-684v4 q-31 -123 -31 -213q0 -109 51 -162t170 -53q51 0 113.5 2t116.5 6q63 4 127 11q-2 -4 -2.5 -10.5t-2.5 -12.5q-4 -16 -4 -20v-6v-5q0 -4 -1 -10t-1 -10q-63 -6 -129 -10q-55 -4 -118.5 -6t-116.5 -2q-135 0 -198.5 58t-76.5 163v-2q-59 -115 -154.5 -167t-248.5 -52 q-168 0 -239.5 57t-71.5 192zM266 250q0 -104 56.5 -149.5t197.5 -45.5q106 0 176 29t117 88t78 148.5t59 209.5q31 125 31 211q0 45 -10 86q-20 76 -77.5 109t-154.5 33q-92 0 -159.5 -20.5t-116.5 -70t-85 -133t-65 -210.5q-23 -90 -35 -160t-12 -125zM1028 553h612v-4 q16 61 22.5 112.5t6.5 94.5q0 117 -56.5 165t-166.5 48q-145 0 -255 -94.5t-163 -321.5z" />
<glyph unicode="&#x178;" horiz-adv-x="1050" d="M403 1434h72l211 -734l559 734h76l-614 -818l-146 -616h-74l146 631zM704 1702l29 135h66l-35 -135h-60zM1075 1702l33 135h59l-32 -135h-60z" />
<glyph unicode="&#x2c6;" horiz-adv-x="1619" d="M827 1219l299 276h31l178 -276h-73l-132 204l-229 -204h-74z" />
<glyph unicode="&#x2dc;" horiz-adv-x="847" d="M479 1366q35 25 68 47q29 16 59.5 31.5t52.5 15.5q27 0 63 -16.5t72.5 -37t69.5 -36.5t54 -16q12 0 36.5 12t46.5 29q27 18 58 41l2 -58q-31 -25 -60 -43q-25 -16 -52 -28.5t-50 -12.5q-27 0 -62.5 16.5t-72.5 37t-71 37t-54 16.5q-16 0 -41 -15.5t-51 -31.5 q-31 -20 -64 -45z" />
<glyph unicode="&#x2000;" horiz-adv-x="953" />
<glyph unicode="&#x2001;" horiz-adv-x="1907" />
<glyph unicode="&#x2002;" horiz-adv-x="953" />
<glyph unicode="&#x2003;" horiz-adv-x="1907" />
<glyph unicode="&#x2004;" horiz-adv-x="635" />
<glyph unicode="&#x2005;" horiz-adv-x="476" />
<glyph unicode="&#x2006;" horiz-adv-x="317" />
<glyph unicode="&#x2007;" horiz-adv-x="317" />
<glyph unicode="&#x2008;" horiz-adv-x="238" />
<glyph unicode="&#x2009;" horiz-adv-x="381" />
<glyph unicode="&#x200a;" horiz-adv-x="105" />
<glyph unicode="&#x2010;" horiz-adv-x="856" d="M276 516l17 72h500l-19 -72h-498z" />
<glyph unicode="&#x2011;" horiz-adv-x="856" d="M276 516l17 72h500l-19 -72h-498z" />
<glyph unicode="&#x2012;" horiz-adv-x="856" d="M276 516l17 72h500l-19 -72h-498z" />
<glyph unicode="&#x2013;" horiz-adv-x="1024" d="M0 516v70h1024v-70h-1024z" />
<glyph unicode="&#x2014;" horiz-adv-x="2048" d="M0 516v70h2048v-70h-2048z" />
<glyph unicode="&#x2018;" horiz-adv-x="329" d="M268 1019l191 414h55l-168 -414h-78z" />
<glyph unicode="&#x2019;" horiz-adv-x="329" d="M344 1020l168 414h78l-191 -414h-55z" />
<glyph unicode="&#x201a;" horiz-adv-x="329" d="M-13 -328l177 434h82l-201 -434h-58z" />
<glyph unicode="&#x201c;" horiz-adv-x="661" d="M389 1028l191 414h55l-168 -414h-78zM669 1028l191 414h55l-168 -414h-78z" />
<glyph unicode="&#x201d;" horiz-adv-x="583" d="M348 1020l168 414h78l-191 -414h-55zM629 1020l168 414h78l-191 -414h-55z" />
<glyph unicode="&#x201e;" horiz-adv-x="583" d="M32 -320l177 434h82l-201 -434h-58zM327 -320l177 434h82l-201 -434h-58z" />
<glyph unicode="&#x2022;" horiz-adv-x="1085" d="M287 225v594h512v-594h-512z" />
<glyph unicode="&#x2026;" horiz-adv-x="1495" d="M147 0l39 170h74l-39 -170h-74zM641 0l39 170h74l-39 -170h-74zM1124 0l39 170h74l-39 -170h-74z" />
<glyph unicode="&#x202f;" horiz-adv-x="381" />
<glyph unicode="&#x2039;" horiz-adv-x="528" d="M199 494l16 45l387 262l-20 -70l-306 -213l199 -233l-22 -72z" />
<glyph unicode="&#x203a;" horiz-adv-x="528" d="M199 213l20 70l306 213l-199 233l22 72l254 -281l-16 -45z" />
<glyph unicode="&#x205f;" horiz-adv-x="476" />
<glyph unicode="&#x20ac;" d="M115 465l16 65h799l-15 -65h-800zM190 797l17 65h799l-15 -65h-801zM215 313q0 121 18.5 247t54.5 244t92 221t131 180t169 122t209 45q55 0 111.5 -6t101.5 -12q53 -8 102 -19l-16 -61q-49 8 -103 16q-45 6 -98 11.5t-106 5.5q-147 0 -259 -90.5t-186 -233.5 t-110.5 -319.5t-36.5 -350.5q0 -117 69.5 -190.5t223.5 -73.5q59 0 114.5 5t102.5 14q53 8 102 20l-4 -68q-51 -12 -104 -20q-47 -8 -104.5 -13t-115.5 -5q-88 0 -154.5 24.5t-111.5 69.5t-68.5 105.5t-23.5 131.5z" />
<glyph unicode="&#x2122;" horiz-adv-x="1085" d="M14 1208v64h410v-64h-170v-528h-68v528h-172zM496 678v594h102l172 -496l178 496h103v-594h-66v528l-180 -506h-72l-172 506v-528h-65z" />
<glyph unicode="&#xe000;" horiz-adv-x="1024" d="M0 0v1024h1024v-1024h-1024z" />
<glyph unicode="&#xfb04;" horiz-adv-x="1716" d="M92 -471l330 1429h-131l16 66h129l29 121q25 102 55.5 173t70.5 114t90 62t116 19q25 0 52.5 -2t49.5 -6q27 -4 53 -8l-14 -63q-25 2 -51 6q-23 4 -50.5 6t-54.5 2q-49 0 -86 -17.5t-65.5 -54.5t-51 -95t-42.5 -140l-29 -117h315l-18 -66h-309l-224 -958l-120 -471h-60z M731 -471l330 1429h-131l16 66h129l29 121q25 102 55.5 173t70.5 114t90 62t116 19q25 0 52.5 -2t49.5 -6q27 -4 53 -8l-14 -63q-25 2 -51 6q-23 4 -50.5 6t-54.5 2q-49 0 -86 -17.5t-65.5 -54.5t-51 -95t-42.5 -140l-29 -117h315l-18 -66h-309l-224 -958l-120 -471h-60z M1458 0l346 1495h72l-346 -1495h-72z" />
</font>
</defs>
</svg>
