<?xml version="1.0" standalone="no"?>
<!DOCTYPE svg PUBLIC "-//W3C//DTD SVG 1.1//EN" "http://www.w3.org/Graphics/SVG/1.1/DTD/svg11.dtd" >
<svg xmlns="http://www.w3.org/2000/svg">
<metadata></metadata>
<defs>
<font id="titilliumtextitali800wt1000sl" horiz-adv-x="1126" >
<font-face units-per-em="2048" ascent="1536" descent="-512" />
<missing-glyph horiz-adv-x="456" />
<glyph horiz-adv-x="2048" />
<glyph horiz-adv-x="2048" />
<glyph unicode="&#xd;" horiz-adv-x="456" />
<glyph unicode=" "  horiz-adv-x="456" />
<glyph unicode="&#x09;" horiz-adv-x="456" />
<glyph unicode="&#xa0;" horiz-adv-x="456" />
<glyph unicode="!" horiz-adv-x="970" d="M305 0l66 285h237l-65 -285h-238zM428 510l201 920h248l-232 -920h-217z" />
<glyph unicode="&#x22;" horiz-adv-x="210" d="M344 915l115 498h219l-133 -498h-201zM563 915l115 498h219l-133 -498h-201z" />
<glyph unicode="#" horiz-adv-x="1085" d="M92 348l49 197h205l66 266h-205l49 197h205l88 348h205l-88 -348h247l88 348h205l-88 -348h207l-49 -197h-207l-65 -266h206l-49 -197h-207l-86 -348h-204l86 348h-248l-86 -348h-205l86 348h-205zM551 545h248l65 266h-248z" />
<glyph unicode="$" horiz-adv-x="1030" d="M152 49l38 170q66 -12 132 -20q55 -8 118.5 -13.5t116.5 -5.5q127 0 197.5 56.5t70.5 183.5q0 33 -8 56.5t-30.5 43t-63.5 40t-107 48.5q-70 29 -120 58.5t-82.5 68.5t-49 88t-16.5 117q0 96 33 176t93.5 138.5t146.5 90t192 31.5q76 0 147.5 -10t126.5 -23 q66 -14 123 -32l-41 -170q-61 10 -125 18q-53 6 -114.5 12.5t-112.5 6.5q-111 0 -171 -56.5t-60 -158.5q0 -31 8 -53.5t30.5 -42t61.5 -39t102 -46.5q80 -35 133.5 -66.5t85 -69.5t44 -86t12.5 -114q0 -115 -37 -201.5t-102.5 -146t-158.5 -90.5t-206 -31q-78 0 -150.5 10.5 t-129.5 24.5q-68 16 -127 37zM229 -244l787 1831h153l-788 -1831h-152z" />
<glyph unicode="%" horiz-adv-x="1085" d="M240 12l823 1454l143 -51l-825 -1454zM307 1145q37 147 117 219t194 72q115 0 159 -72t7 -221q-37 -147 -117.5 -221t-193.5 -74q-115 0 -159 73.5t-7 223.5zM467 1029q4 -38 41 -38q39 0 60.5 37t41.5 115t15.5 113.5t-43.5 35.5q-37 0 -58.5 -34.5t-42.5 -112.5 q-18 -78 -14 -116zM674 297q37 147 116.5 219t194.5 72q113 0 158 -72t8 -221q-37 -147 -118 -221t-193 -74q-115 0 -159 73.5t-7 223.5zM832 181q4 -38 40 -38q39 0 60.5 37t42.5 115q20 78 15 113.5t-42 35.5t-59.5 -34.5t-40.5 -112.5q-20 -78 -16 -116z" />
<glyph unicode="&#x26;" horiz-adv-x="1361" d="M147 324q0 193 100.5 311.5t305.5 198.5q-29 53 -43 97t-14 109q0 98 30.5 170t84 120t128 70.5t160.5 22.5q164 0 251 -67.5t87 -220.5q0 -74 -18.5 -133.5t-62.5 -107.5t-115.5 -90t-176.5 -83l180 -244q12 20 29 52t31 68t26.5 73t18.5 65h217q-12 -49 -34.5 -106.5 t-50.5 -113.5t-58.5 -106.5t-57.5 -82.5l172 -209l-155 -142l-170 199q-90 -92 -198.5 -144.5t-256.5 -52.5q-119 0 -197.5 28t-126 75t-67 109.5t-19.5 134.5zM391 352q0 -94 56.5 -134t156.5 -40q39 0 82 11.5t82 31t74 46t59 55.5l-260 368q-74 -33 -122 -69.5 t-76.5 -78.5t-40 -89t-11.5 -101zM731 1034q0 -66 13.5 -108.5t35.5 -75.5q68 33 111 61.5t67.5 59t33.5 65.5t9 78q0 113 -106 113q-82 0 -123 -54.5t-41 -138.5z" />
<glyph unicode="'" horiz-adv-x="210" d="M217 915l115 498h219l-133 -498h-201z" />
<glyph unicode="(" horiz-adv-x="505" d="M127 188q0 131 19.5 259t51 248t71.5 228.5t83 200.5q98 217 226 408h241q-127 -188 -225 -406q-43 -92 -83 -200.5t-71.5 -228t-51 -247.5t-19.5 -262q0 -86 4 -163.5t8 -139.5q6 -72 14 -137h-241q-8 74 -15 152q-4 66 -8 142.5t-4 145.5z" />
<glyph unicode=")" horiz-adv-x="505" d="M-39 -242q127 188 225 406q43 92 83 200.5t71.5 228t51 247.5t19.5 262q0 86 -4 163.5t-8 139.5q-6 72 -14 137h241q8 -74 15 -152q4 -66 8 -142.5t4 -145.5q0 -131 -19.5 -259t-51 -248t-71.5 -228.5t-83 -200.5q-98 -217 -226 -408h-241z" />
<glyph unicode="*" horiz-adv-x="1085" d="M227 938l217 160l-211 153l84 115l209 -154l82 252l135 -45l-77 -254h256v-135h-258l79 -250l-133 -39l-84 250l-213 -162z" />
<glyph unicode="+" d="M96 410v208h359v363h213v-363h362v-208h-362v-367h-213v367h-359z" />
<glyph unicode="," horiz-adv-x="329" d="M-76 -266l226 551h258l-291 -551h-193z" />
<glyph unicode="-" horiz-adv-x="856" d="M258 438l53 211h514l-53 -211h-514z" />
<glyph unicode="." horiz-adv-x="483" d="M84 0l66 285h237l-65 -285h-238z" />
<glyph unicode="/" horiz-adv-x="1030" d="M162 -27l880 1495l191 -77l-881 -1495z" />
<glyph unicode="0" d="M33 397q0 209 46 387.5t129 310.5t199 206.5t255 74.5q227 0 329.5 -110.5t102.5 -313.5q0 -211 -47.5 -390t-130 -309t-199.5 -203t-254 -73q-225 0 -327.5 109t-102.5 311zM279 428q0 -123 41.5 -183.5t146.5 -60.5q90 0 160.5 72t120 180.5t75 238.5t25.5 245 q0 125 -42.5 187t-148.5 62q-92 0 -162.5 -73.5t-118.5 -184t-72.5 -240.5t-24.5 -243z" />
<glyph unicode="1" d="M205 1063l512 289h209l-312 -1352h-239l246 1067l-353 -193z" />
<glyph unicode="2" d="M14 0l45 197l449 383q176 150 268 249t92 183q0 88 -48 122.5t-171 34.5q-55 0 -114.5 -6t-110.5 -12q-59 -8 -115 -16l31 176q57 18 121 32q53 12 120.5 22.5t133.5 10.5q205 0 302 -74.5t97 -234.5q0 -90 -25.5 -161.5t-72.5 -136t-112.5 -123t-145.5 -120.5l-414 -319 h586l-47 -207h-869z" />
<glyph unicode="3" d="M16 35l52 182q66 -8 133 -16q57 -6 122.5 -11.5t120.5 -5.5q59 0 114.5 16.5t97.5 49.5t68 81t26 111q0 70 -43 105t-154 35h-260l45 200h266q39 0 84 18.5t85 51.5t66.5 77t26.5 95q0 72 -48 108.5t-154 36.5q-63 0 -126 -5t-116 -11q-61 -8 -119 -14l27 176 q61 16 129 31q57 10 124.5 20t133.5 10q205 0 300 -69.5t95 -219.5q0 -72 -15.5 -125t-48 -95t-80.5 -78.5t-114 -73.5q37 -18 63.5 -41t44 -52.5t25.5 -70.5t8 -98q0 -104 -42 -191.5t-117.5 -150t-181 -98.5t-230.5 -36q-76 0 -148.5 9.5t-130.5 19.5q-68 12 -129 29z" />
<glyph unicode="4" d="M61 238l41 176l590 938h252l-604 -914h356l90 389h240l-90 -389h137l-45 -200h-137l-55 -238h-240l55 238h-590z" />
<glyph unicode="5" d="M-23 57l56 187q70 -18 137 -31q59 -10 127 -19.5t127 -9.5q68 0 126 23.5t101 64.5t67.5 95.5t24.5 117.5q0 84 -43 126t-141 42q-45 0 -90 -10t-80 -22q-41 -14 -80 -31l-176 39l223 723h795l-49 -207h-584l-123 -346q43 14 84 26q35 10 75 19.5t69 9.5q186 0 276 -76 t90 -252q0 -125 -42 -226t-114.5 -173t-173 -111t-217.5 -39q-86 0 -170 11.5t-149 27.5q-78 18 -146 41z" />
<glyph unicode="6" d="M4 453q0 102 20.5 210.5t60.5 211t100.5 193.5t141.5 159.5t181 108.5t219 40q57 0 122.5 -7t121.5 -15q66 -10 129 -23l-76 -194q-45 8 -98 16q-45 6 -102.5 11t-116.5 5q-78 0 -141.5 -30.5t-115 -85t-90 -126t-65.5 -151.5q55 23 111 43q47 16 102 29.5t102 13.5 q195 0 281 -92t86 -254q0 -119 -36 -218t-105.5 -170t-172 -111t-237.5 -40q-111 0 -189.5 26t-131 82t-77 147.5t-24.5 220.5zM250 446q0 -137 41 -199.5t145 -62.5q143 0 219 82t76 223q0 92 -50 129t-142 37q-53 0 -103.5 -10t-89.5 -20q-45 -12 -84 -29q-4 -27 -6 -51 q-4 -23 -5 -49.5t-1 -49.5z" />
<glyph unicode="7" d="M43 31l735 1032l19 82h-596l47 207h833l-71 -314l-750 -1071z" />
<glyph unicode="8" d="M-23 301q0 78 28 140.5t71 110.5t94 85t98 63q-39 33 -61.5 60.5t-33.5 53.5t-14 50.5t-3 50.5q0 209 150.5 335t441.5 126q207 0 305 -73.5t98 -198.5q0 -152 -70.5 -246t-193.5 -158q84 -51 107.5 -118.5t23.5 -135.5q0 -96 -43 -182t-124 -149.5t-196.5 -100.5 t-259.5 -37q-217 0 -317.5 74t-100.5 250zM223 338q0 -86 56.5 -120t171.5 -34q76 0 135 22.5t100 58.5t63.5 80t22.5 85q0 63 -30.5 97t-98.5 59h-188q-41 -12 -82 -35t-75 -54.5t-54.5 -71.5t-20.5 -87zM401 938q0 -55 22.5 -86t80.5 -66h188q33 14 71 40t69.5 57.5 t52 68.5t20.5 74q0 143 -211 143q-72 0 -126 -20.5t-91 -53t-56.5 -74.5t-19.5 -83z" />
<glyph unicode="9" d="M4 20l76 195q45 -8 98 -16q45 -6 102.5 -10.5t116.5 -4.5q78 0 141.5 31t115 84t90 125t65.5 151q-55 -25 -111 -43q-47 -16 -102 -29.5t-102 -13.5q-195 0 -281 92.5t-86 254.5q0 119 36 218t105.5 170.5t172 111.5t237.5 40q111 0 189.5 -25.5t131 -83t77 -148.5 t24.5 -220q0 -154 -46 -317.5t-136.5 -297.5t-225.5 -220.5t-315 -86.5q-59 0 -124 6.5t-120 14.5q-66 8 -129 22zM373 862q0 -92 50 -129t142 -37q53 0 103.5 9.5t89.5 19.5q45 12 84 31q2 27 6 51q2 23 4 48.5t2 49.5q0 137 -41 200.5t-145 63.5q-143 0 -219 -82.5 t-76 -224.5z" />
<glyph unicode=":" horiz-adv-x="411" d="M84 0l66 285h237l-65 -285h-238zM229 629l66 285h237l-65 -285h-238z" />
<glyph unicode=";" horiz-adv-x="483" d="M-72 -266l226 551h258l-291 -551h-193zM229 629l66 285h237l-65 -285h-238z" />
<glyph unicode="&#x3c;" d="M143 416v196l840 387v-237l-588 -244l588 -256v-239z" />
<glyph unicode="=" d="M113 203v213h901v-213h-901zM113 614v211h901v-211h-901z" />
<glyph unicode="&#x3e;" d="M143 23l840 393v196l-840 387v-237l588 -244l-588 -256v-239z" />
<glyph unicode="?" horiz-adv-x="751" d="M211 0l65 283h238l-65 -283h-238zM322 1186l22 184q53 14 109 27q47 10 104 18t111 8q82 0 149.5 -16t114.5 -52t73.5 -93.5t26.5 -137.5q0 -76 -16.5 -133t-54 -108.5t-99 -102.5t-149.5 -112q-61 -43 -95 -86t-43 -82l-18 -82h-219q0 27 2 55q2 25 4 53.5t8 57.5 q20 109 199 237q61 45 105 81t72 67.5t41 63.5t13 69q0 72 -45 92t-123 20q-53 0 -105 -5t-93 -9q-49 -8 -94 -14z" />
<glyph unicode="@" horiz-adv-x="1916" d="M176 328q0 258 60.5 465.5t184.5 355t314.5 226.5t448.5 79q180 0 330.5 -28.5t259 -99.5t170 -191.5t61.5 -303.5q0 -156 -26.5 -308t-89 -274t-167 -197t-260.5 -75q-55 0 -102 8.5t-84 30t-60.5 57.5t-29.5 91q-23 -29 -56.5 -61.5t-75.5 -60.5t-87 -46.5t-90 -18.5 q-76 0 -129.5 26t-87 73t-49 110.5t-15.5 141.5q0 109 29.5 234.5t92 233t161 179.5t235.5 72q55 0 136 -10.5t159 -20.5q90 -14 186 -31q-41 -174 -73 -315q-14 -59 -27.5 -118.5t-26 -108t-19.5 -82t-9 -42.5q-16 -76 -3 -110.5t89 -34.5q49 0 89 34t69.5 88t50 125 t33 143.5t18.5 142t6 124.5q0 133 -45 217.5t-126 130.5t-192.5 62t-244.5 16q-213 0 -364.5 -65.5t-247 -186t-139.5 -292.5t-44 -385q0 -154 25.5 -259.5t88 -170t166 -93t257.5 -28.5q29 0 76 1t92 5q53 2 110 6q-10 -41 -21.5 -89t-21.5 -99q-57 -6 -110 -11 q-47 -4 -95.5 -7t-83.5 -3q-193 0 -325.5 44t-214.5 136.5t-119 233.5t-37 334zM834 328q0 -68 34.5 -110t102.5 -42q37 0 81 31t83 69q45 43 88 101q25 111 47 203q8 39 18 77.5t17.5 71.5t13.5 56.5t8 33.5q-37 6 -72 15q-29 4 -61.5 9t-56.5 5q-72 0 -128.5 -52.5 t-95.5 -130t-59 -168.5t-20 -169z" />
<glyph unicode="A" horiz-adv-x="1177" d="M53 0l654 1401h428l-19 -1401h-239v281l-449 2l-133 -283h-242zM522 492h359l8 698h-41z" />
<glyph unicode="B" horiz-adv-x="1185" d="M162 0l323 1401h476q168 0 262 -70.5t94 -224.5q0 -74 -17.5 -130t-49 -101.5t-77 -79t-98.5 -64.5q86 -45 116 -105.5t30 -146.5q0 -104 -35 -192t-103.5 -151.5t-171 -99.5t-237.5 -36h-512zM451 207h270q117 0 184.5 73.5t67.5 194.5q0 72 -44 102.5t-124 30.5h-264z M588 809h246q51 0 94 18.5t74.5 52t49 80t17.5 101.5q0 68 -35 100.5t-112 32.5h-246z" />
<glyph unicode="C" horiz-adv-x="1032" d="M207 369q0 113 16.5 234.5t53 238t93 222t135.5 185.5t183.5 127t233.5 47q61 0 123.5 -9t111.5 -19q57 -12 113 -27l-58 -180q-41 6 -90 12q-41 4 -95 9t-116 5q-111 0 -195.5 -71.5t-143 -189t-88 -266t-29.5 -302.5q0 -92 45 -145.5t149 -53.5q59 0 120.5 4.5 t113.5 10.5q57 8 112 16l-32 -190q-57 -14 -115 -25q-51 -10 -110.5 -17.5t-119.5 -7.5q-211 0 -311 102.5t-100 289.5z" />
<glyph unicode="D" horiz-adv-x="1228" d="M160 0l323 1401h443q92 0 172 -21.5t139 -70.5t93 -128t34 -192q0 -174 -44 -350t-132 -318.5t-220 -231.5t-311 -89h-497zM451 211h204q119 0 205 78t143.5 194.5t85 251.5t27.5 250t-63.5 160t-173.5 45h-203z" />
<glyph unicode="E" horiz-adv-x="1083" d="M164 0l323 1401h807l-49 -211h-565l-88 -381h455l-50 -209h-454l-90 -389h569l-47 -211h-811z" />
<glyph unicode="F" horiz-adv-x="1056" d="M158 0l323 1401h819l-51 -211h-577l-107 -465h463l-51 -211h-459l-119 -514h-241z" />
<glyph unicode="G" horiz-adv-x="1165" d="M209 403q0 193 45 376.5t136 326.5t229.5 230t326.5 87q82 0 158 -12t135 -27q68 -16 127 -36l-55 -177q-59 12 -125 21q-55 8 -124 15t-136 7q-84 0 -151.5 -36.5t-120 -99t-89.5 -144.5t-61.5 -172t-35.5 -183.5t-11 -177.5q0 -117 61.5 -166t167.5 -49q33 0 62.5 2 t54.5 7q27 4 53 10l82 356h-160l49 201h398l-170 -731q-45 -16 -107 -27q-53 -10 -125.5 -18.5t-165.5 -8.5q-221 0 -334.5 104.5t-113.5 321.5z" />
<glyph unicode="H" horiz-adv-x="1302" d="M158 0l323 1401h240l-133 -582h508l133 582h241l-323 -1401h-242l142 608h-508l-140 -608h-241z" />
<glyph unicode="I" horiz-adv-x="520" d="M145 0l324 1401h238l-322 -1401h-240z" />
<glyph unicode="J" horiz-adv-x="606" d="M68 -141l38 209q49 2 80 8t50.5 26.5t34 59.5t30.5 106l262 1133h240q0 -2 -1 -3t-1 -3l-260 -1131q-31 -133 -60.5 -213t-78 -123t-127 -56t-207.5 -13z" />
<glyph unicode="K" horiz-adv-x="1150" d="M158 0l323 1401h240l-141 -621l149 15l408 606h264l-479 -703l161 -698h-254l-127 582l-172 -11l-131 -571h-241z" />
<glyph unicode="L" horiz-adv-x="960" d="M158 0l323 1401h240l-272 -1190h479l-47 -211h-723z" />
<glyph unicode="M" horiz-adv-x="1650" d="M158 0l323 1401h381l31 -1075l528 1075h385l-321 -1401h-242l275 1190h-13l-555 -1133h-231l-33 1133h-14l-273 -1190h-241z" />
<glyph unicode="N" horiz-adv-x="1357" d="M158 0l331 1401h385q2 -25 10.5 -101.5t19.5 -183t24.5 -231.5t26 -245t23.5 -222.5t17 -163.5h29l270 1147h232l-332 -1401h-375q-10 76 -25.5 215t-34 303t-38 335t-35.5 310h-27l-274 -1163h-227z" />
<glyph unicode="O" horiz-adv-x="1257" d="M211 408q0 125 21.5 248.5t62.5 236.5t101.5 210t139 167.5t175 111.5t209.5 41q209 0 328.5 -103t119.5 -327q0 -188 -46 -369.5t-136 -325.5t-222.5 -232.5t-304.5 -88.5q-213 0 -330.5 101.5t-117.5 329.5zM459 430q0 -129 50 -186.5t179 -57.5q74 0 134.5 38 t108.5 100.5t84 143.5t59.5 168t34.5 174t11 161q0 127 -51 185t-176 58q-74 0 -134.5 -37.5t-108.5 -100t-84 -144.5t-59.5 -169t-35.5 -173t-12 -160z" />
<glyph unicode="P" horiz-adv-x="1159" d="M166 0l323 1401h418q215 0 309.5 -90t94.5 -285q0 -143 -41 -255t-117 -188.5t-184.5 -116.5t-243.5 -40h-219l-98 -426h-242zM555 637h203q147 0 226 105.5t79 281.5q0 84 -40 125t-136 41h-205z" />
<glyph unicode="Q" horiz-adv-x="1257" d="M211 408q0 125 21.5 248.5t62.5 236.5t101.5 210t139 167.5t175 111.5t209.5 41q209 0 328.5 -103t119.5 -327q0 -188 -46 -369.5t-136 -325.5t-222.5 -232.5t-304.5 -88.5q-213 0 -330.5 101.5t-117.5 329.5zM459 430q0 -129 50 -186.5t179 -57.5q74 0 134.5 38 t108.5 100.5t84 143.5t59.5 168t34.5 174t11 161q0 127 -51 185t-176 58q-74 0 -134.5 -37.5t-108.5 -100t-84 -144.5t-59.5 -169t-35.5 -173t-12 -160zM725 18l213 74l115 -325l-230 -76z" />
<glyph unicode="R" horiz-adv-x="1196" d="M154 0l321 1401h414q205 0 307 -87t102 -292q0 -106 -27.5 -191.5t-73.5 -149t-105.5 -106.5t-120.5 -67l125 -508h-242l-115 471h-235l-111 -471h-239zM551 678h221q66 0 117 26.5t87 72.5t54.5 106.5t18.5 128.5q0 98 -39 140t-138 42h-204z" />
<glyph unicode="S" horiz-adv-x="1032" d="M133 51l41 176q68 -12 135 -20q57 -8 123 -14.5t121 -6.5q131 0 203.5 58.5t72.5 189.5q0 33 -8 57.5t-31.5 45t-65.5 42t-110 50.5q-72 29 -124 59.5t-86.5 70.5t-51 91t-16.5 121q0 100 33.5 183t96 142.5t152 93t199.5 33.5q78 0 152.5 -11t132.5 -23q68 -16 127 -35 l-43 -174q-63 10 -129 18q-55 6 -119 12.5t-117 6.5q-113 0 -176 -58.5t-63 -163.5q0 -33 8 -56.5t31.5 -42.5t64.5 -39.5t107 -47.5q82 -35 137 -68.5t87 -72.5t45 -89.5t13 -117.5q0 -117 -38 -207t-105.5 -151.5t-163.5 -93.5t-213 -32q-80 0 -155.5 11.5t-135.5 25.5 q-70 16 -131 37z" />
<glyph unicode="T" horiz-adv-x="942" d="M295 1190l49 211h905l-51 -211h-332l-274 -1190h-242l277 1190h-332z" />
<glyph unicode="U" horiz-adv-x="1255" d="M244 285q0 51 7 108.5t17 104.5l209 903h242l-217 -942q-8 -31 -13.5 -66t-5.5 -69q0 -80 53.5 -109t145.5 -29q72 0 122 16.5t84 50.5t54.5 85t36.5 121l217 942h240l-215 -942q-29 -125 -75 -215t-112.5 -149.5t-159 -88.5t-212.5 -29q-94 0 -171 18.5t-132.5 56.5 t-85 95.5t-29.5 137.5z" />
<glyph unicode="V" horiz-adv-x="1179" d="M373 0l14 1401h242l-33 -1190h78l534 1190h240l-645 -1401h-430z" />
<glyph unicode="W" horiz-adv-x="1804" d="M338 0l59 1401h242q-2 -14 -8 -105.5t-14.5 -220.5t-18.5 -276.5t-19.5 -273.5t-14.5 -212t-5 -92h39q16 43 55 136.5t88.5 209t103.5 242.5t103 240.5t87 202.5t55 128h264l-2 -49q-14 -258 -28.5 -545.5t-27.5 -564.5h37q10 25 41 99.5t74 180t94 229.5t102.5 248 t96.5 234.5t78 188.5h239q-8 -18 -33.5 -77.5t-62.5 -145.5t-83 -193.5t-95 -221.5t-98.5 -228.5t-92.5 -217t-78.5 -185.5t-56.5 -132h-368q0 20 4 95t9 178.5t12 225.5t13.5 233.5t11.5 202.5t9 136q-12 -27 -41 -96.5t-69 -164.5t-87 -208t-92 -223.5t-86 -209.5 t-67 -169h-369z" />
<glyph unicode="X" horiz-adv-x="1130" d="M45 0l539 705l-199 696h256l127 -524l379 524h254l-529 -699l205 -702h-254l-137 530l-387 -530h-254z" />
<glyph unicode="Y" horiz-adv-x="1097" d="M375 1401h250l123 -541l380 541h271l-578 -797l-143 -604h-242l142 608z" />
<glyph unicode="Z" horiz-adv-x="1107" d="M127 0l53 244q119 139 204 235t147.5 168t110.5 126t95 107.5t98.5 115t122.5 145.5l7 49h-566l52 211h849l-57 -244l-778 -897l-8 -51h569l-49 -209h-850z" />
<glyph unicode="[" horiz-adv-x="583" d="M-14 -250l415 1780h482l-56 -227h-200l-308 -1326h201l-57 -227h-477z" />
<glyph unicode="\" horiz-adv-x="1081" d="M489 1427l191 41l311 -1531l-190 -41z" />
<glyph unicode="]" horiz-adv-x="583" d="M-37 -250l56 227h200l308 1326h-201l57 227h477l-415 -1780h-482z" />
<glyph unicode="^" d="M70 645l391 707h201l395 -707h-246l-246 479l-250 -479h-245z" />
<glyph unicode="_" horiz-adv-x="1030" d="M-39 -383l49 219h918l-49 -219h-918z" />
<glyph unicode="`" horiz-adv-x="1060" d="M524 1368l113 193l428 -187l-92 -157z" />
<glyph unicode="a" horiz-adv-x="1024" d="M129 328q0 109 29.5 234.5t93 233t162 179.5t235.5 72q53 0 134 -10.5t159 -20.5q90 -14 188 -31l-155 -663q-10 -47 -20.5 -102.5t-18.5 -102.5q-8 -55 -16 -111l-232 -10q6 39 12 76q4 31 9.5 60.5t9.5 43.5q-43 -57 -92 -100q-43 -37 -98.5 -68t-118.5 -31 q-76 0 -129.5 26t-87 73t-49 110.5t-15.5 141.5zM369 328q0 -66 24.5 -109t93.5 -43q39 0 86.5 33t88 73t68.5 72l28 33l102 432q-41 6 -78 15q-33 4 -67.5 9t-59.5 5q-72 0 -125 -52.5t-88.5 -130t-54 -168.5t-18.5 -169z" />
<glyph unicode="b" horiz-adv-x="1058" d="M125 41l324 1405h233l-119 -520q39 33 82 59q37 23 84 42.5t100 19.5q86 0 143.5 -29t91.5 -75t47 -104.5t13 -117.5q0 -139 -33.5 -273.5t-99 -239t-162 -168t-221.5 -63.5q-82 0 -166 9.5t-155 21.5q-82 14 -162 33zM395 201q31 -6 66 -13q29 -4 62.5 -7t68.5 -3 q82 0 138 59.5t90 142.5t49.5 171t15.5 147q0 27 -4 54.5t-17.5 48t-38 34t-65.5 13.5t-84 -20.5t-78 -43.5q-41 -29 -82 -63z" />
<glyph unicode="c" horiz-adv-x="847" d="M141 317q0 150 33 282t100.5 231.5t168 158t235.5 58.5q51 0 102 -9.5t92 -19.5q49 -12 95 -27l-60 -172l-86 12q-37 4 -78 8.5t-75 4.5q-74 0 -129.5 -43t-90 -111.5t-52 -153.5t-17.5 -169q0 -90 41 -138.5t133 -48.5q33 0 71 3t72 7q39 4 80 11l-18 -176 q-45 -14 -92 -25q-41 -10 -91.5 -16.5t-103.5 -6.5q-152 0 -241 88.5t-89 251.5z" />
<glyph unicode="d" horiz-adv-x="1058" d="M141 317q0 127 33 257.5t98.5 234.5t160.5 171t222 67q35 0 80 -6.5t84 -14.5q45 -8 90 -20l105 440h233l-336 -1446h-225l25 131q-39 -43 -84 -78q-39 -29 -90.5 -52.5t-110.5 -23.5q-143 0 -214 89.5t-71 250.5zM379 319q0 -63 27.5 -103t93.5 -40q35 0 80 27.5 t86 62.5q47 39 96 90l106 461q-37 6 -73 14q-33 4 -70 9.5t-70 5.5q-68 0 -119 -53.5t-86.5 -132t-53 -171t-17.5 -170.5z" />
<glyph unicode="e" horiz-adv-x="987" d="M162 313q0 135 31.5 267.5t99 236t173 167t253.5 63.5q156 0 248 -67t92 -220q0 -100 -34 -166t-104.5 -103.5t-178 -53t-253.5 -15.5h-81q-6 -23 -9.5 -50.5t-3.5 -52.5q0 -72 47 -106.5t119 -34.5q53 0 112.5 5t110.5 12q57 8 115 16l-25 -176q-55 -16 -116 -29 q-53 -10 -122 -19.5t-140 -9.5q-168 0 -251 81t-83 255zM434 598h94q164 0 231.5 35t67.5 123q0 55 -30.5 77.5t-89.5 22.5q-106 0 -173 -67.5t-100 -190.5z" />
<glyph unicode="f" horiz-adv-x="661" d="M45 -440l295 1261h-102l49 203h96l14 57q25 102 53.5 176t70.5 121t100.5 68.5t140.5 21.5q35 0 67.5 -6t61.5 -14q33 -8 61 -21l-45 -172q-23 2 -45 7q-20 4 -44.5 6t-47.5 2q-63 0 -90 -53.5t-49 -137.5l-13 -55h234l-49 -201h-230l-190 -823l-129 -440h-209z" />
<glyph unicode="g" horiz-adv-x="1034" d="M47 -195q0 55 23.5 98.5t60.5 77t83 60.5t89 49q-23 23 -31 45.5t-8 57.5t18.5 70.5t41.5 64.5q27 35 61 67q-59 37 -100 92.5t-41 155.5q0 82 28.5 154.5t83 128t132 88.5t176.5 33q39 0 78.5 -6.5t74.5 -12.5l78 -16l301 12l-45 -190h-139q6 -20 11 -50t5 -67 q0 -74 -30.5 -144.5t-86 -124t-135.5 -86t-178 -32.5q-16 0 -30.5 1t-24.5 3q-12 2 -25 6q-14 -16 -22 -33q-8 -14 -14.5 -30.5t-6.5 -30.5q0 -29 44 -42.5t149 -27.5q59 -8 113.5 -24.5t95.5 -45t64.5 -73.5t23.5 -111q0 -84 -34 -156.5t-98.5 -126t-157.5 -84t-210 -30.5 q-94 0 -171 16.5t-132.5 50t-85 87t-29.5 126.5zM260 -143q0 -55 46 -95.5t157 -40.5q51 0 101 9.5t89 29t63.5 53t24.5 83.5q0 49 -39.5 67.5t-117.5 30.5q-29 4 -60.5 9t-58.5 9l-62 11q-23 -12 -47 -30t-45.5 -40.5t-36 -47t-14.5 -48.5zM461 653q0 -59 35.5 -95 t115.5 -36q47 0 84 17.5t62.5 46t39 63.5t13.5 72q0 66 -37 100.5t-119 34.5q-47 0 -82.5 -17.5t-60.5 -46t-38 -65.5t-13 -74z" />
<glyph unicode="h" horiz-adv-x="1093" d="M152 0l333 1446h234l-125 -547q41 41 86 74q39 29 89 51.5t108 22.5q133 0 192 -80t59 -199q0 -29 -5 -63.5t-11 -70.5t-14 -70t-15 -58l-116 -506h-234l113 492q6 20 12 49.5t12.5 61.5t10.5 60.5t4 49.5q0 63 -22.5 97t-82.5 34q-35 0 -74.5 -25.5t-76.5 -54.5 q-43 -37 -86 -80l-156 -684h-235z" />
<glyph unicode="i" horiz-adv-x="501" d="M141 0l236 1024h233l-235 -1024h-234zM408 1165l59 250h235l-57 -250h-237z" />
<glyph unicode="j" horiz-adv-x="512" d="M-121 -287q84 43 132 72t76 57.5t41 64.5t26 93l235 1024h234l-236 -1024q-25 -111 -46.5 -176.5t-63 -113.5t-116.5 -88t-208 -97zM418 1153l57 248h236l-56 -248h-237z" />
<glyph unicode="k" horiz-adv-x="993" d="M158 0l334 1446h233l-188 -817l90 12l297 381h260l-383 -485l155 -537h-241l-123 446l-100 -10l-101 -436h-233z" />
<glyph unicode="l" horiz-adv-x="505" d="M152 0l333 1446h234l-332 -1446h-235z" />
<glyph unicode="m" horiz-adv-x="1658" d="M147 0l236 1024h223l-18 -125q37 41 84 74q39 29 92 51.5t113 22.5q70 0 112.5 -26t65.5 -54q27 -35 39 -78q49 43 102 78q47 29 104.5 54.5t118.5 25.5q68 0 114 -21.5t74.5 -58.5t42 -88.5t13.5 -110.5q0 -29 -4 -64.5t-10.5 -71.5t-12.5 -69t-12 -57l-117 -506h-233 l117 492q4 20 10 48.5t12 59.5t10 59.5t4 47.5q0 66 -21.5 101.5t-74.5 35.5q-35 0 -73.5 -22.5t-73.5 -49.5q-39 -31 -80 -70q-4 -33 -8 -67q-4 -29 -9.5 -63.5t-13.5 -65.5l-117 -506h-233l113 492q6 20 12 49.5t11 61.5t9 60.5t4 49.5q0 63 -21.5 97t-80.5 34 q-35 0 -75 -25.5t-74 -54.5q-41 -35 -82 -78l-158 -686h-234z" />
<glyph unicode="n" horiz-adv-x="1095" d="M147 0l236 1024h225l-20 -127q39 41 86 74q39 29 90 52.5t106 23.5q133 0 191.5 -80t58.5 -199q0 -29 -4 -64.5t-10 -70.5t-13.5 -68t-13.5 -57l-121 -508h-233l113 492q6 20 12 49.5t12 61.5t10.5 60.5t4.5 49.5q0 63 -21.5 97t-81.5 34q-35 0 -76 -25.5t-75 -54.5 q-41 -35 -84 -78l-158 -686h-234z" />
<glyph unicode="o" horiz-adv-x="1028" d="M172 346q0 127 36 252t102.5 225.5t162.5 162t217 61.5q182 0 284.5 -89.5t102.5 -285.5q0 -127 -33.5 -251t-99 -222.5t-163 -160t-224.5 -61.5q-182 0 -283.5 87.5t-101.5 281.5zM406 344q0 -80 37.5 -124t113.5 -44q68 0 121 44t90 115t56.5 161t19.5 180 q0 78 -38 124t-116 46q-68 0 -120 -44t-89 -116t-56 -161t-19 -181z" />
<glyph unicode="p" horiz-adv-x="1173" d="M115 -438l338 1462h227l-27 -131q39 41 86 76q41 29 91.5 53.5t105.5 24.5q74 0 127 -25t89 -69t53.5 -104.5t17.5 -133.5q0 -129 -33 -260t-97.5 -236.5t-160.5 -173.5t-223 -68q-41 0 -85 6.5t-83 14.5q-45 8 -88 22l-107 -458h-231zM496 207q37 -8 73 -14 q33 -6 69 -10.5t71 -4.5q68 0 119 53.5t86.5 132t53 170t17.5 168.5q0 66 -27.5 106t-93.5 40q-35 0 -80 -27.5t-86 -62.5q-47 -39 -96 -90z" />
<glyph unicode="q" horiz-adv-x="1056" d="M129 315q0 129 34 260.5t99.5 235.5t161.5 170t219 66q63 0 146 -10.5t159 -22.5q88 -14 178 -31l-325 -1417h-234l131 567q-39 -43 -84 -78q-39 -29 -90 -53.5t-110 -24.5q-141 0 -213 89.5t-72 248.5zM367 322q0 -66 27.5 -106t92.5 -40q35 0 80 26.5t86 61.5 q47 39 97 90l106 463q-37 6 -74 14q-33 4 -69.5 9.5t-71.5 5.5q-63 0 -114.5 -51.5t-86 -128t-54 -170t-19.5 -174.5z" />
<glyph unicode="r" horiz-adv-x="698" d="M143 0l238 1024h231l-32 -143q55 43 110 80q47 31 103.5 57t107.5 31l-65 -244q-41 -12 -93.5 -33.5t-99.5 -44.5q-53 -25 -108 -51l-156 -676h-236z" />
<glyph unicode="s" horiz-adv-x="960" d="M139 39l43 174q57 -10 115 -18q49 -8 105.5 -13.5t107.5 -5.5q96 0 142 36t46 101q0 39 -35.5 56.5t-113.5 40.5q-129 35 -204 85t-75 158q0 94 34 167t91.5 123t133 77t159.5 27q74 0 139.5 -9.5t114.5 -19.5q57 -12 105 -29l-43 -174q-59 6 -119 14q-51 6 -110.5 11.5 t-108.5 5.5q-78 0 -120 -40t-42 -93q0 -41 33.5 -60.5t126.5 -46.5q66 -20 116.5 -38.5t85.5 -45t53.5 -65.5t18.5 -97q0 -98 -35 -169.5t-95 -119.5t-143 -71t-182 -23q-72 0 -133 9.5t-108 21.5q-55 12 -103 31z" />
<glyph unicode="t" horiz-adv-x="688" d="M219 188q0 49 9.5 104.5t21.5 106.5l100 424h-119l54 201h112l64 276h235l-65 -276h239l-49 -201h-237l-103 -444q-8 -31 -13 -69t-5 -64q0 -35 16.5 -52.5t57.5 -17.5q45 0 92 6q25 2 53 6l-18 -170q-31 -12 -68 -20q-31 -8 -71 -14.5t-81 -6.5q-100 0 -162.5 59.5 t-62.5 151.5z" />
<glyph unicode="u" horiz-adv-x="1089" d="M139 256q0 29 4 64.5t10.5 70.5t13.5 68t13 57l119 508h233l-112 -492q-4 -20 -10.5 -49.5t-12.5 -60.5t-10 -60.5t-4 -50.5q0 -61 21.5 -96t80.5 -35q33 0 74 24.5t76 53.5q41 35 84 80l158 686h235l-238 -1024h-223l21 127q-39 -43 -86 -76q-41 -29 -92.5 -51.5 t-106.5 -22.5q-133 0 -190.5 80t-57.5 199z" />
<glyph unicode="v" horiz-adv-x="940" d="M270 1024h230l-15 -829h41l387 829h238l-494 -1024h-383z" />
<glyph unicode="w" horiz-adv-x="1462" d="M197 0l45 1024h235l-51 -823h45l356 803h269l-25 -803h45l336 823h238l-435 -1024h-395l25 692l-301 -692h-387z" />
<glyph unicode="x" horiz-adv-x="905" d="M35 0l397 512l-156 512h240l90 -352l256 352h242l-410 -532l168 -492h-239l-101 330l-241 -330h-246z" />
<glyph unicode="y" horiz-adv-x="942" d="M215 -438l211 438h-152l-4 1024h230l-15 -829h41l387 829h238l-702 -1462h-234z" />
<glyph unicode="z" horiz-adv-x="929" d="M115 0l41 197l575 626h-428l49 201h697l-48 -195l-577 -628h436l-49 -201h-696z" />
<glyph unicode="{" horiz-adv-x="638" d="M164 537l45 202q68 18 109.5 38t66.5 42.5t36 52t19 66.5q6 20 15.5 67.5t18.5 95.5t16.5 87t9.5 45q27 86 66.5 144.5t98 95t135.5 55t175 22.5l-53 -235q-53 -4 -88 -12.5t-56.5 -25.5t-35 -43t-21.5 -65q0 -6 -7 -44t-16.5 -83t-16.5 -82.5t-7 -44.5q-14 -61 -35 -105 t-50.5 -76t-68.5 -53.5t-92 -39.5q74 -35 100.5 -74.5t26.5 -115.5q0 -31 -14.5 -85.5t-31.5 -113.5t-31.5 -111.5t-14.5 -79.5q0 -53 34.5 -73.5t106.5 -20.5l-59 -235q-68 0 -127.5 10t-105.5 39t-72.5 81t-26.5 136q0 29 14.5 84t33 115.5t32.5 116t14 85.5 q0 51 -32.5 82t-110.5 56z" />
<glyph unicode="|" horiz-adv-x="1085" d="M418 -438v1884h235v-1884h-235z" />
<glyph unicode="}" horiz-adv-x="638" d="M-39 -274l53 235q53 4 88 12.5t56.5 25.5t35 43t21.5 65q0 6 7 44t16.5 83t16.5 82.5t7 44.5q14 61 35 105t50.5 76t68.5 53.5t92 39.5q-74 35 -100.5 74.5t-26.5 115.5q0 31 14.5 85.5t31.5 113.5t31.5 111.5t14.5 79.5q0 53 -34.5 73.5t-106.5 20.5l59 235 q68 0 127.5 -10t105.5 -39t72.5 -81t26.5 -136q0 -29 -14.5 -84t-33 -115.5t-32.5 -116t-14 -85.5q0 -51 32.5 -82t110.5 -56l-45 -202q-68 -18 -109.5 -38t-66.5 -42.5t-36 -52t-19 -66.5q-6 -20 -15.5 -67.5t-18.5 -95.5t-16.5 -87t-9.5 -45q-27 -86 -66.5 -144.5t-98 -95 t-135.5 -55t-175 -22.5z" />
<glyph unicode="~" d="M119 571q39 31 80 54q35 20 79 36.5t89 16.5q43 0 99 -16.5t113.5 -35t110.5 -35t90 -16.5q29 0 65 12.5t68 28.5q37 18 76 43l19 -188q-35 -31 -72 -53q-33 -20 -74 -36.5t-86 -16.5q-43 0 -101.5 16t-118.5 34.5t-112.5 35t-83.5 16.5q-35 0 -72.5 -13.5t-70.5 -29.5 q-37 -18 -76 -41z" />
<glyph unicode="&#xa1;" horiz-adv-x="970" d="M307 -408l232 920h217l-201 -920h-248zM576 737l65 285h238l-66 -285h-237z" />
<glyph unicode="&#xa2;" horiz-adv-x="849" d="M139 303q-4 43 1 95.5t20 111.5q55 217 174 326.5t280 121.5v-4q4 14 7.5 28.5t7.5 29.5q4 10 5 18t3 17q4 16 7 31.5t7 31.5q4 18 7.5 36.5t5.5 29.5h190q-4 -16 -8 -35t-8 -35t-8.5 -31.5t-8.5 -32.5q-6 -25 -10 -46t-12 -46q29 -4 58.5 -7t51.5 -7q27 -4 49 -6 q-2 -4 -3 -9.5t-3 -9.5q-4 -10 -7 -20t-9 -33v-2q-4 -16 -8 -32.5t-8 -32.5q-4 -10 -5.5 -17.5t-5.5 -17.5q-2 -10 -6 -35q-47 2 -90 4q-37 2 -76 3t-67 1q-66 0 -112 -11t-79 -37t-55.5 -68t-38.5 -103q-10 -35 -13 -66.5t-1 -54.5q8 -53 56 -74.5t144 -21.5q27 0 67 1 t77 3q43 2 90 6q-4 -14 -6 -23.5t-4 -17.5q-2 -4 -2 -8t-2 -8q0 -4 -1.5 -8.5t-1.5 -8.5q-8 -35 -14 -68.5t-12 -66.5q-27 -4 -55 -8q-25 -4 -55.5 -7t-59.5 -7v4q-6 -29 -13.5 -57.5t-13.5 -57.5q-6 -31 -12 -59.5t-14 -57.5h-187q0 6 2 11q2 14 5 29.5t8 27.5q4 16 8 31.5 t8 31.5q2 14 5 26.5t7 25.5q4 8 4 18t2 18q-115 10 -183 68.5t-79 171.5z" />
<glyph unicode="&#xa3;" horiz-adv-x="1030" d="M102 0l48 201h194l111 491h-160l47 201h160l20 84q27 106 58.5 185t78 129t111 75t156.5 25q39 0 88 -7.5t94 -15.5q53 -10 104 -22l-53 -179q-39 4 -78 9q-35 4 -72.5 6t-70.5 2q-47 0 -75.5 -16.5t-48 -47t-33 -75t-27.5 -97.5l-13 -55h346l-47 -201h-346l-112 -491 h219l145 35l-4 -201l-156 -35h-684z" />
<glyph unicode="&#xa4;" horiz-adv-x="1085" d="M47 184l219 217l160 -159l-217 -219zM47 848l162 162l217 -219l-160 -160zM150 516q0 76 28.5 147.5t85.5 129.5q57 57 129 84.5t147.5 27.5t147.5 -27.5t129 -84.5t85 -129t28 -148t-28 -147.5t-85 -128.5t-129 -86t-147.5 -29t-147.5 29t-129 86t-85.5 128.5 t-28.5 147.5zM363 516q0 -74 53 -125q51 -53 124.5 -53t125.5 53q53 51 53 125t-53 125q-51 53 -125 53t-125 -53q-53 -51 -53 -125zM655 242l160 159l219 -217l-162 -161zM655 791l217 219l162 -162l-219 -217z" />
<glyph unicode="&#xa5;" horiz-adv-x="1050" d="M154 281l49 206h315l19 76l-7 25h-303l45 207h183l-226 557h258l211 -506l402 506h311l-457 -557h181l-48 -207h-290l-21 -27l-18 -74h307l-49 -206h-307l-64 -281h-239l65 281h-317z" />
<glyph unicode="&#xa6;" horiz-adv-x="1085" d="M418 338h235v-776h-235v776zM418 682v764h235v-764h-235z" />
<glyph unicode="&#xa7;" horiz-adv-x="1030" d="M72 -317l65 196q59 -8 115 -14q47 -6 100.5 -10.5t93.5 -4.5q111 0 175.5 48.5t64.5 113.5q0 31 -10 49.5t-37 30.5t-73 24.5t-115 33.5q-139 39 -193.5 98t-54.5 151q0 63 21.5 117.5t52 96.5t62.5 72t54 46q-14 14 -22.5 34.5t-12.5 44.5t-5 45.5t-1 39.5q0 63 31 137 t93.5 136.5t156.5 103.5t223 41q49 0 105.5 -7.5t103.5 -15.5q55 -8 111 -20l-54 -197q-61 6 -116 14q-47 6 -98.5 11.5t-86.5 5.5q-117 0 -178 -44t-61 -120q0 -35 20.5 -57.5t52 -35.5t72.5 -22.5t84 -17.5q76 -16 124 -45t74.5 -64.5t36 -72.5t9.5 -68q0 -51 -18.5 -100 t-46 -93.5t-57.5 -81t-50 -61.5q23 -35 29 -61.5t6 -55.5q0 -45 -16.5 -122.5t-69 -153.5t-152.5 -131t-266 -55q-49 0 -108.5 6t-112.5 14q-61 8 -121 21zM442 461q0 -41 32 -59.5t91 -34.5q51 -16 92 -29.5t72 -30.5q8 8 22.5 30.5t29 51.5t23.5 59.5t9 55.5 q0 41 -34.5 65.5t-112.5 40.5q-43 10 -86 21.5t-54 19.5q-6 -6 -20 -27.5t-27.5 -49t-25 -57.5t-11.5 -56z" />
<glyph unicode="&#xa8;" horiz-adv-x="1165" d="M465 1243l57 248h187l-58 -248h-186zM848 1243l57 248h187l-58 -248h-186z" />
<glyph unicode="&#xa9;" horiz-adv-x="1085" d="M-12 889q0 123 42 228.5t115.5 182t176 119.5t223.5 43q125 0 228.5 -45t175 -124t111.5 -183t40 -221q0 -121 -40 -226.5t-113 -182.5t-176 -121t-230 -44q-119 0 -220.5 44t-175 122t-115.5 182.5t-42 225.5zM102 889q0 -94 33 -178t91.5 -147.5t139 -100.5t175.5 -37 q96 0 178 37t141.5 99.5t92 146.5t32.5 180q0 94 -33.5 178t-93 147.5t-140.5 100.5t-175 37t-175 -37t-139.5 -100.5t-92.5 -147.5t-34 -178zM303 897q0 178 60.5 251t199.5 73q35 0 64.5 -5.5t52.5 -9.5q25 -8 45 -14l-12 -154q-23 2 -45 6l-45 4.5t-50 2.5 q-53 0 -70.5 -35t-17.5 -119q0 -90 18.5 -131t69.5 -41q23 0 48.5 1t46.5 3q23 2 45 6l12 -147q-20 -8 -45 -17q-23 -6 -53.5 -11t-69.5 -5q-68 0 -116 16.5t-78.5 56.5t-45 105.5t-14.5 163.5z" />
<glyph unicode="&#xaa;" horiz-adv-x="1030" d="M444 879q0 27 11 67q45 180 235 193h19h20q4 0 7 1t7 1q12 0 23.5 1t26.5 1h23t26 4v-4q0 2 4 10v4q4 18 1 41t-44 23q-25 0 -66 -2t-82 -5q-47 -4 -98 -6q4 37 12 70q0 4 1 9t1 9q2 4 2 8.5t2 8.5q2 10 4.5 19t4.5 16q57 4 110 10l90 8t74 4q66 0 101.5 -38t37.5 -105 q0 -37 -8 -72q0 -4 -1 -4t-1 -2q0 -8 -2 -10l-12 -49q-4 -12 -6 -23.5t-6 -22.5q-4 -16 -6.5 -29.5t-6.5 -29.5q-4 -14 -6 -28.5t-6 -26.5q-4 -18 1 -31.5t36 -19.5q-4 -10 -7 -20.5t-8 -20.5q-4 -10 -8 -31q-4 -10 -5 -17.5t-5 -15.5t-6 -15t-4 -20q-35 2 -76 10.5 t-59 32.5v-2q-35 -12 -70 -20q-31 -8 -65.5 -14.5t-67.5 -6.5q-147 0 -148 140zM602 944q-10 -35 2 -49t39 -14q18 0 42 2t46 6q25 4 53 10v-2q4 12 6.5 26.5t6.5 28.5q-4 -8 -2 -1t5 19.5t6 27t5 22.5q-6 -2 -16 -2q-4 0 -8.5 -1t-8.5 -1h-49h-18q-4 0 -9.5 -1t-9.5 -1h-16 q-61 -2 -74 -70z" />
<glyph unicode="&#xab;" horiz-adv-x="1021" d="M90 446l41 109l487 319l-59 -210l-256 -162l176 -178l-59 -211zM559 446l41 109l487 319l-59 -210l-256 -162l176 -178l-59 -211z" />
<glyph unicode="&#xac;" d="M119 512v211h889v-502h-213v291h-676z" />
<glyph unicode="&#xad;" horiz-adv-x="856" d="M258 438l53 211h514l-53 -211h-514z" />
<glyph unicode="&#xae;" horiz-adv-x="1085" d="M-12 889q0 123 42 228.5t115.5 182t175 119.5t222.5 43q127 0 229 -45t175 -124t113 -183t40 -221q0 -121 -40 -226.5t-113 -182.5t-175 -121t-229 -44q-121 0 -222.5 44t-175 122t-115.5 182.5t-42 225.5zM102 889q0 -94 34 -178t93.5 -147.5t140.5 -100.5t173 -37 q96 0 177 37t140.5 99.5t92 146.5t32.5 180q0 94 -33.5 178t-93 147.5t-140.5 100.5t-175 37t-175 -37t-139.5 -100.5t-92.5 -147.5t-34 -178zM305 569v637h260q102 0 168 -47t66 -162q0 -78 -18.5 -122t-67.5 -76l92 -230h-178l-72 201h-80v-201h-170zM473 899h78 q82 0 82 88t-90 88h-70v-176z" />
<glyph unicode="&#xaf;" horiz-adv-x="929" d="M455 1303l41 178h610l-43 -178h-608z" />
<glyph unicode="&#xb0;" d="M262 1122q0 68 21.5 123t61.5 95t95.5 61.5t122.5 21.5q68 0 123 -21.5t95 -61.5t61.5 -95t21.5 -123q0 -135 -83 -217t-218 -82t-218 82t-83 217zM399 1122q0 -74 45 -120t119 -46t121 46.5t47 119.5q0 76 -47 123t-121 47t-119 -47t-45 -123z" />
<glyph unicode="&#xb1;" d="M96 51v211h934v-211h-934zM96 569v209h359v234h213v-234h362v-209h-362v-223h-213v223h-359z" />
<glyph unicode="&#xb2;" horiz-adv-x="542" d="M279 979l38 162l195 139q61 43 92 72.5t39 60.5q6 27 -12.5 36t-59.5 9q-20 0 -47.5 -2t-54.5 -6q-31 -4 -63 -6l36 176q43 4 84 10q35 4 76 7t76 3q121 0 158.5 -47t11.5 -151q-16 -72 -57 -119t-115 -96l-113 -78h215l-41 -170h-458z" />
<glyph unicode="&#xb3;" horiz-adv-x="542" d="M287 975l51 166l70 -8q29 -4 62.5 -5.5t61.5 -1.5q41 0 60.5 12.5t25.5 39.5q8 29 -7 38t-48 9h-135l37 153h133q23 0 41 13.5t25 35.5q12 43 -58 43q-29 0 -60.5 -2t-58.5 -4q-31 -4 -61 -6l31 162q41 4 80 10q35 4 71.5 7t69.5 3q238 0 192 -180q-14 -59 -44.5 -95 t-57.5 -50q35 -16 47 -48t-6 -104q-27 -104 -100.5 -155.5t-184.5 -51.5q-39 0 -80 2.5t-75 6.5q-41 4 -82 10z" />
<glyph unicode="&#xb4;" horiz-adv-x="1136" d="M518 1378l516 189l23 -219q-147 -43 -260 -78q-49 -14 -95.5 -28.5t-82 -25t-57.5 -16.5l-23 -6z" />
<glyph unicode="&#xb6;" horiz-adv-x="1030" d="M250 946q0 88 32.5 175t94 156t146.5 111t190 42h639l-43 -189h-95l-292 -1241h-191l293 1241h-152l-294 -1241h-191l150 641q-80 0 -135.5 25.5t-89 68.5t-48 97.5t-14.5 113.5z" />
<glyph unicode="&#xb7;" horiz-adv-x="483" d="M188 451l66 285h237l-65 -285h-238z" />
<glyph unicode="&#xb8;" horiz-adv-x="1619" d="M612 -436l35 145q18 -2 39 -2q16 -2 33.5 -2h34.5q78 0 92 57q8 33 -11.5 41.5t-54.5 8.5h-57l45 198h96l-22 -86h12q45 0 84 -8t64.5 -28.5t33.5 -55.5t-6 -86q-23 -100 -90.5 -151.5t-159.5 -51.5q-63 0 -114 11q-27 4 -54 10z" />
<glyph unicode="&#xb9;" horiz-adv-x="542" d="M408 1468l249 150h172l-157 -639h-189l107 432l-129 -76z" />
<glyph unicode="&#xba;" horiz-adv-x="1030" d="M471 952q2 25 5 52.5t11 56.5v-2q39 170 124 239.5t206 69.5q82 0 134.5 -31.5t66.5 -105.5q4 -14 6 -28.5t0 -31.5q0 -25 -4 -52t-10 -60q-41 -170 -129 -245t-211 -75q-98 0 -151.5 51.5t-47.5 161.5zM623 987q-4 -53 15.5 -74.5t66.5 -21.5q61 0 97 35t60 133 q10 45 10 69q4 49 -19.5 69t-68.5 20q-59 0 -93 -34t-56 -124q-12 -41 -12 -72z" />
<glyph unicode="&#xbb;" d="M66 113l59 210l256 162l-176 178l59 211l330 -333l-41 -109zM545 113l59 210l256 162l-176 178l59 211l330 -333l-41 -109z" />
<glyph unicode="&#xbc;" horiz-adv-x="3282" d="M205 1063l512 289h209l-312 -1352h-239l246 1067l-353 -193zM1288 -27l880 1495l191 -77l-881 -1495zM2218 238l41 176l590 938h252l-604 -914h356l90 389h240l-90 -389h137l-45 -200h-137l-55 -238h-240l55 238h-590z" />
<glyph unicode="&#xbf;" horiz-adv-x="751" />
<glyph unicode="&#xc0;" horiz-adv-x="1177" d="M53 0l654 1401h428l-19 -1401h-239v281l-449 2l-133 -283h-242zM522 492h359l8 698h-41zM729 1731l113 200l430 -188l-100 -170z" />
<glyph unicode="&#xc1;" horiz-adv-x="1177" d="M53 0l654 1401h428l-19 -1401h-239v281l-449 2l-133 -283h-242zM522 492h359l8 698h-41zM731 1763l516 189l23 -230l-518 -153z" />
<glyph unicode="&#xc2;" horiz-adv-x="1177" d="M53 0l654 1401h428l-19 -1401h-239v281l-449 2l-133 -283h-242zM522 492h359l8 698h-41zM620 1606l330 301h131l192 -301h-221l-78 125l-133 -125h-221z" />
<glyph unicode="&#xc3;" horiz-adv-x="1177" d="M53 0l654 1401h428l-19 -1401h-239v281l-449 2l-133 -283h-242zM522 492h359l8 698h-41zM651 1788q39 35 80 63q35 25 74.5 45.5t74.5 20.5q43 0 88 -15.5t85 -33t72 -32.5t52 -15q16 0 46 12t59 29q33 18 69 43l6 -195q-39 -33 -77 -57q-35 -23 -74 -40.5t-74 -17.5 q-37 0 -78 15.5t-80.5 33t-76.5 33t-64 15.5q-18 0 -48 -15.5t-58 -33.5q-33 -23 -68 -50z" />
<glyph unicode="&#xc4;" horiz-adv-x="1177" d="M53 0l654 1401h428l-19 -1401h-239v281l-449 2l-133 -283h-242zM522 492h359l8 698h-41zM674 1632l55 248h199l-60 -248h-194zM1077 1632l57 248h199l-61 -248h-195z" />
<glyph unicode="&#xc5;" horiz-adv-x="1177" d="M53 0l654 1401h428l-19 -1401h-239v281l-449 2l-133 -283h-242zM522 492h359l8 698h-41zM686.5 1388q-8.5 43 8.5 98q27 119 112.5 174.5t196.5 55.5q51 0 94 -13.5t70.5 -41t35.5 -71t-6 -104.5q-27 -113 -109.5 -171t-197.5 -58q-53 0 -97 14.5t-71.5 44t-36 72.5z M848 1486q-6 -35 14.5 -55t65.5 -20t76 20.5t41 54.5q8 41 -19.5 58.5t-60.5 17.5q-45 0 -76 -20.5t-41 -55.5z" />
<glyph unicode="&#xc6;" horiz-adv-x="1177" d="M53 0l652 1401h1128l-53 -230h-592l-88 -352h477l-49 -229h-479l-88 -361h591l-49 -229h-819l66 281h-334l-22.5 -45t-36 -74t-40 -85t-34.5 -77h-230zM520 510h285l156 664h-134z" />
<glyph unicode="&#xc7;" horiz-adv-x="1044" d="M207 369q0 113 16.5 234.5t53 238t93 222t135.5 185.5t183.5 127t233.5 47q61 0 123.5 -9t111.5 -19q57 -12 113 -27l-58 -180q-41 6 -90 12q-41 4 -95 9t-116 5q-111 0 -195.5 -71.5t-143 -189t-88 -266t-29.5 -302.5q0 -92 45 -145.5t149 -53.5q59 0 120.5 4.5 t113.5 10.5q57 8 112 16l-32 -190q-57 -14 -115 -25q-51 -10 -110.5 -17.5t-119.5 -7.5q-211 0 -311 102.5t-100 289.5zM362 -436l35 145q18 -2 39 -2q16 -2 33.5 -2h34.5q78 0 92 57q8 33 -11.5 41.5t-54.5 8.5h-57l45 198h96l-22 -86h12q45 0 84 -8t64.5 -28.5t33.5 -55.5 t-6 -86q-23 -100 -90.5 -151.5t-159.5 -51.5q-63 0 -114 11q-27 4 -54 10z" />
<glyph unicode="&#xc8;" horiz-adv-x="1083" d="M164 0l323 1401h807l-49 -211h-565l-88 -381h455l-50 -209h-454l-90 -389h569l-47 -211h-811zM708 1731l113 200l430 -188l-100 -170z" />
<glyph unicode="&#xc9;" horiz-adv-x="1083" d="M164 0l323 1401h807l-49 -211h-565l-88 -381h455l-50 -209h-454l-90 -389h569l-47 -211h-811zM710 1763l516 189l23 -230l-518 -153z" />
<glyph unicode="&#xca;" horiz-adv-x="1083" d="M164 0l323 1401h807l-49 -211h-565l-88 -381h455l-50 -209h-454l-90 -389h569l-47 -211h-811zM618 1608l330 301h131l192 -301h-221l-78 125l-133 -125h-221z" />
<glyph unicode="&#xcb;" horiz-adv-x="1083" d="M164 0l323 1401h807l-49 -211h-565l-88 -381h455l-50 -209h-454l-90 -389h569l-47 -211h-811zM652 1632l55 248h199l-60 -248h-194zM1055 1632l57 248h199l-61 -248h-195z" />
<glyph unicode="&#xcc;" horiz-adv-x="520" d="M145 0l324 1401h238l-322 -1401h-240zM409 1731l113 200l430 -188l-100 -170z" />
<glyph unicode="&#xcd;" horiz-adv-x="520" d="M145 0l324 1401h238l-322 -1401h-240zM411 1763l516 189l23 -230l-518 -153z" />
<glyph unicode="&#xce;" horiz-adv-x="520" d="M145 0l324 1401h238l-322 -1401h-240zM319 1608l330 301h131l192 -301h-221l-78 125l-133 -125h-221z" />
<glyph unicode="&#xcf;" horiz-adv-x="520" d="M145 0l324 1401h238l-322 -1401h-240zM353 1652l55 248h199l-60 -248h-194zM756 1652l57 248h199l-61 -248h-195z" />
<glyph unicode="&#xd0;" horiz-adv-x="1228" d="M158 4l329 1417h445q86 0 161.5 -17.5t131 -58t88.5 -108.5t33 -170q0 -94 -12.5 -210t-44.5 -233.5t-85 -229t-135 -198.5t-195.5 -139.5t-263.5 -52.5h-452zM174 586q6 29 12.5 56.5t12.5 55.5v9q6 29 13 58.5t13 59.5h611q-14 -59 -27 -118q-8 -31 -14.5 -62 t-12.5 -59h-608zM436 233h213q96 0 167 48.5t121 124t83 166t50 174t24.5 151t7.5 94.5q0 96 -50.5 148.5t-172.5 52.5h-217z" />
<glyph unicode="&#xd1;" horiz-adv-x="1357" d="M158 0l331 1401h385q2 -25 10.5 -101.5t19.5 -183t24.5 -231.5t26 -245t23.5 -222.5t17 -163.5h29l270 1147h232l-332 -1401h-375q-10 76 -25.5 215t-34 303t-38 335t-35.5 310h-27l-274 -1163h-227zM737 1786q39 35 80 63q35 25 74.5 45.5t74.5 20.5q43 0 88 -15.5 t85 -33t72 -32.5t52 -15q16 0 46 12t59 29q33 18 69 43l6 -195q-39 -33 -77 -57q-35 -23 -74 -40.5t-74 -17.5q-37 0 -78 15.5t-80.5 33t-76.5 33t-64 15.5q-18 0 -48 -15.5t-58 -33.5q-33 -23 -68 -50z" />
<glyph unicode="&#xd2;" horiz-adv-x="1257" d="M211 408q0 125 21.5 248.5t62.5 236.5t101.5 210t139 167.5t175 111.5t209.5 41q209 0 328.5 -103t119.5 -327q0 -188 -46 -369.5t-136 -325.5t-222.5 -232.5t-304.5 -88.5q-213 0 -330.5 101.5t-117.5 329.5zM459 430q0 -129 50 -186.5t179 -57.5q74 0 134.5 38 t108.5 100.5t84 143.5t59.5 168t34.5 174t11 161q0 127 -51 185t-176 58q-74 0 -134.5 -37.5t-108.5 -100t-84 -144.5t-59.5 -169t-35.5 -173t-12 -160zM762 1731l113 200l430 -188l-100 -170z" />
<glyph unicode="&#xd3;" horiz-adv-x="1257" d="M211 408q0 125 21.5 248.5t62.5 236.5t101.5 210t139 167.5t175 111.5t209.5 41q209 0 328.5 -103t119.5 -327q0 -188 -46 -369.5t-136 -325.5t-222.5 -232.5t-304.5 -88.5q-213 0 -330.5 101.5t-117.5 329.5zM459 430q0 -129 50 -186.5t179 -57.5q74 0 134.5 38 t108.5 100.5t84 143.5t59.5 168t34.5 174t11 161q0 127 -51 185t-176 58q-74 0 -134.5 -37.5t-108.5 -100t-84 -144.5t-59.5 -169t-35.5 -173t-12 -160zM764 1763l516 189l23 -230l-518 -153z" />
<glyph unicode="&#xd4;" horiz-adv-x="1257" d="M211 408q0 125 21.5 248.5t62.5 236.5t101.5 210t139 167.5t175 111.5t209.5 41q209 0 328.5 -103t119.5 -327q0 -188 -46 -369.5t-136 -325.5t-222.5 -232.5t-304.5 -88.5q-213 0 -330.5 101.5t-117.5 329.5zM459 430q0 -129 50 -186.5t179 -57.5q74 0 134.5 38 t108.5 100.5t84 143.5t59.5 168t34.5 174t11 161q0 127 -51 185t-176 58q-74 0 -134.5 -37.5t-108.5 -100t-84 -144.5t-59.5 -169t-35.5 -173t-12 -160zM672 1606l330 301h131l192 -301h-221l-78 125l-133 -125h-221z" />
<glyph unicode="&#xd5;" horiz-adv-x="1257" d="M211 408q0 125 21.5 248.5t62.5 236.5t101.5 210t139 167.5t175 111.5t209.5 41q209 0 328.5 -103t119.5 -327q0 -188 -46 -369.5t-136 -325.5t-222.5 -232.5t-304.5 -88.5q-213 0 -330.5 101.5t-117.5 329.5zM459 430q0 -129 50 -186.5t179 -57.5q74 0 134.5 38 t108.5 100.5t84 143.5t59.5 168t34.5 174t11 161q0 127 -51 185t-176 58q-74 0 -134.5 -37.5t-108.5 -100t-84 -144.5t-59.5 -169t-35.5 -173t-12 -160zM682 1786q39 35 80 63q35 25 74.5 45.5t74.5 20.5q43 0 88 -15.5t85 -33t72 -32.5t52 -15q16 0 46 12t59 29 q33 18 69 43l6 -195q-39 -33 -77 -57q-35 -23 -74 -40.5t-74 -17.5q-37 0 -78 15.5t-80.5 33t-76.5 33t-64 15.5q-18 0 -48 -15.5t-58 -33.5q-33 -23 -68 -50z" />
<glyph unicode="&#xd6;" horiz-adv-x="1257" d="M211 408q0 125 21.5 248.5t62.5 236.5t101.5 210t139 167.5t175 111.5t209.5 41q209 0 328.5 -103t119.5 -327q0 -188 -46 -369.5t-136 -325.5t-222.5 -232.5t-304.5 -88.5q-213 0 -330.5 101.5t-117.5 329.5zM459 430q0 -129 50 -186.5t179 -57.5q74 0 134.5 38 t108.5 100.5t84 143.5t59.5 168t34.5 174t11 161q0 127 -51 185t-176 58q-74 0 -134.5 -37.5t-108.5 -100t-84 -144.5t-59.5 -169t-35.5 -173t-12 -160zM705 1632l55 248h199l-60 -248h-194zM1108 1632l57 248h199l-61 -248h-195z" />
<glyph unicode="&#xd7;" d="M115 213l305 299l-303 299l149 147l297 -303l301 308l148 -150l-307 -301l307 -299l-150 -150l-299 306l-299 -303z" />
<glyph unicode="&#xd8;" horiz-adv-x="1275" d="M115 -172q324 477 585 862q111 164 220.5 325t199.5 293t150.5 222t77.5 112l133 -55l-1245 -1831zM211 408q0 125 21.5 248.5t62.5 236.5t101.5 210t139 167.5t175 111.5t209.5 41q209 0 328.5 -103t119.5 -327q0 -188 -46 -369.5t-136 -325.5t-222.5 -232.5 t-304.5 -88.5q-213 0 -330.5 101.5t-117.5 329.5zM459 430q0 -129 50 -186.5t179 -57.5q74 0 134.5 38t108.5 100.5t84 143.5t59.5 168t34.5 174t11 161q0 127 -51 185t-176 58q-74 0 -134.5 -37.5t-108.5 -100t-84 -144.5t-59.5 -169t-35.5 -173t-12 -160z" />
<glyph unicode="&#xd9;" horiz-adv-x="1255" d="M244 285q0 51 7 108.5t17 104.5l209 903h242l-217 -942q-8 -31 -13.5 -66t-5.5 -69q0 -80 53.5 -109t145.5 -29q72 0 122 16.5t84 50.5t54.5 85t36.5 121l217 942h240l-215 -942q-29 -125 -75 -215t-112.5 -149.5t-159 -88.5t-212.5 -29q-94 0 -171 18.5t-132.5 56.5 t-85 95.5t-29.5 137.5zM766 1731l113 200l430 -188l-100 -170z" />
<glyph unicode="&#xda;" horiz-adv-x="1255" d="M244 285q0 51 7 108.5t17 104.5l209 903h242l-217 -942q-8 -31 -13.5 -66t-5.5 -69q0 -80 53.5 -109t145.5 -29q72 0 122 16.5t84 50.5t54.5 85t36.5 121l217 942h240l-215 -942q-29 -125 -75 -215t-112.5 -149.5t-159 -88.5t-212.5 -29q-94 0 -171 18.5t-132.5 56.5 t-85 95.5t-29.5 137.5zM768 1763l516 189l23 -230l-518 -153z" />
<glyph unicode="&#xdb;" horiz-adv-x="1255" d="M244 285q0 51 7 108.5t17 104.5l209 903h242l-217 -942q-8 -31 -13.5 -66t-5.5 -69q0 -80 53.5 -109t145.5 -29q72 0 122 16.5t84 50.5t54.5 85t36.5 121l217 942h240l-215 -942q-29 -125 -75 -215t-112.5 -149.5t-159 -88.5t-212.5 -29q-94 0 -171 18.5t-132.5 56.5 t-85 95.5t-29.5 137.5zM678 1606l330 301h131l192 -301h-221l-78 125l-133 -125h-221z" />
<glyph unicode="&#xdc;" horiz-adv-x="1255" d="M244 285q0 51 7 108.5t17 104.5l209 903h242l-217 -942q-8 -31 -13.5 -66t-5.5 -69q0 -80 53.5 -109t145.5 -29q72 0 122 16.5t84 50.5t54.5 85t36.5 121l217 942h240l-215 -942q-29 -125 -75 -215t-112.5 -149.5t-159 -88.5t-212.5 -29q-94 0 -171 18.5t-132.5 56.5 t-85 95.5t-29.5 137.5zM709 1652l55 248h199l-60 -248h-194zM1112 1652l57 248h199l-61 -248h-195z" />
<glyph unicode="&#xdd;" horiz-adv-x="1097" d="M375 1401h250l123 -541l380 541h271l-578 -797l-143 -604h-242l142 608zM690 1763l516 189l23 -230l-518 -153z" />
<glyph unicode="&#xde;" horiz-adv-x="1159" d="M158 0q23 94 44 190.5t44 190.5q20 92 41.5 182t44.5 182q39 160 81 337.5t79 334.5h229q-4 -16 -9 -35.5t-10 -35.5q-4 -16 -7 -31t-7 -37q-4 -10 -6 -18.5t-4 -18.5q-2 -8 -4 -15t-6 -18h239q162 0 252 -70.5t107 -195.5q2 -14 2 -29.5v-31.5q0 -35 -5.5 -75t-17.5 -85 q-29 -115 -81 -208t-123.5 -158.5t-164 -101.5t-202.5 -36h-238v2q-6 -20 -10 -39.5t-8 -32.5q-4 -4 -7 -23.5t-8 -41.5q-6 -18 -8 -39q-8 -27 -10 -43h-227zM492 457h235q117 0 188.5 70.5t100.5 193.5q8 35 10 66.5t-2 58.5q-10 59 -52 92t-120 33h-238v4 q-16 -66 -30.5 -132.5t-30.5 -131.5q-10 -35 -18.5 -70t-16.5 -70q-8 -31 -14 -57.5t-12 -56.5z" />
<glyph unicode="&#xdf;" horiz-adv-x="1208" d="M39 -438l356 1509q27 115 69 191.5t101.5 123t138 64.5t179.5 18q193 0 288 -72.5t95 -205.5q0 -109 -42 -180.5t-149 -114.5q-98 -41 -138 -67.5t-40 -67.5q0 -18 5 -31.5t19.5 -28t40 -32t66.5 -43.5q43 -29 75 -51.5t51.5 -48t29.5 -60.5t10 -86q0 -186 -113.5 -294 t-316.5 -108q-53 0 -107.5 7.5t-99.5 17.5q-53 10 -100 27l49 174q41 -8 82 -15q35 -4 76 -8t75 -4q113 0 165 50t52 120q0 23 -5 39t-19 31.5t-40 33t-69 44.5q-94 55 -129 102t-35 121q0 57 13.5 99t40 76t66.5 60.5t93 51.5q47 23 78 40t48.5 35.5t23.5 38t6 45.5 q0 49 -40 78t-128 29q-111 0 -168 -53.5t-86 -176.5l-346 -1478h-221z" />
<glyph unicode="&#xe0;" horiz-adv-x="1030" d="M129 328q0 109 29.5 234.5t93 233t162 179.5t235.5 72q53 0 134 -10.5t159 -20.5q90 -14 188 -31l-155 -663q-10 -47 -20.5 -102.5t-18.5 -102.5q-8 -55 -16 -111l-232 -10q6 39 12 76q4 31 9.5 60.5t9.5 43.5q-43 -57 -92 -100q-43 -37 -98.5 -68t-118.5 -31 q-76 0 -129.5 26t-87 73t-49 110.5t-15.5 141.5zM369 328q0 -66 24.5 -109t93.5 -43q39 0 86.5 33t88 73t68.5 72l28 33l102 432q-41 6 -78 15q-33 4 -67.5 9t-59.5 5q-72 0 -125 -52.5t-88.5 -130t-54 -168.5t-18.5 -169zM559 1368l113 193l428 -187l-92 -157z" />
<glyph unicode="&#xe1;" horiz-adv-x="1030" d="M129 328q0 109 29.5 234.5t93 233t162 179.5t235.5 72q53 0 134 -10.5t159 -20.5q90 -14 188 -31l-155 -663q-10 -47 -20.5 -102.5t-18.5 -102.5q-8 -55 -16 -111l-232 -10q6 39 12 76q4 31 9.5 60.5t9.5 43.5q-43 -57 -92 -100q-43 -37 -98.5 -68t-118.5 -31 q-76 0 -129.5 26t-87 73t-49 110.5t-15.5 141.5zM369 328q0 -66 24.5 -109t93.5 -43q39 0 86.5 33t88 73t68.5 72l28 33l102 432q-41 6 -78 15q-33 4 -67.5 9t-59.5 5q-72 0 -125 -52.5t-88.5 -130t-54 -168.5t-18.5 -169zM555 1378l516 189l23 -219q-147 -43 -260 -78 q-49 -14 -95.5 -28.5t-82 -25t-57.5 -16.5l-23 -6z" />
<glyph unicode="&#xe2;" horiz-adv-x="1030" d="M129 328q0 109 29.5 234.5t93 233t162 179.5t235.5 72q53 0 134 -10.5t159 -20.5q90 -14 188 -31l-155 -663q-10 -47 -20.5 -102.5t-18.5 -102.5q-8 -55 -16 -111l-232 -10q6 39 12 76q4 31 9.5 60.5t9.5 43.5q-43 -57 -92 -100q-43 -37 -98.5 -68t-118.5 -31 q-76 0 -129.5 26t-87 73t-49 110.5t-15.5 141.5zM369 328q0 -66 24.5 -109t93.5 -43q39 0 86.5 33t88 73t68.5 72l28 33l102 432q-41 6 -78 15q-33 4 -67.5 9t-59.5 5q-72 0 -125 -52.5t-88.5 -130t-54 -168.5t-18.5 -169zM469 1186l336 342h116l176 -342h-211q-4 8 -21 50 t-46 110l-139 -160h-211z" />
<glyph unicode="&#xe3;" horiz-adv-x="1030" d="M129 328q0 109 29.5 234.5t93 233t162 179.5t235.5 72q53 0 134 -10.5t159 -20.5q90 -14 188 -31l-155 -663q-10 -47 -20.5 -102.5t-18.5 -102.5q-8 -55 -16 -111l-232 -10q6 39 12 76q4 31 9.5 60.5t9.5 43.5q-43 -57 -92 -100q-43 -37 -98.5 -68t-118.5 -31 q-76 0 -129.5 26t-87 73t-49 110.5t-15.5 141.5zM369 328q0 -66 24.5 -109t93.5 -43q39 0 86.5 33t88 73t68.5 72l28 33l102 432q-41 6 -78 15q-33 4 -67.5 9t-59.5 5q-72 0 -125 -52.5t-88.5 -130t-54 -168.5t-18.5 -169zM490 1397q39 35 78 61q35 23 73.5 43.5t73.5 20.5 q39 0 78 -14.5t73.5 -31t64.5 -30.5t48 -14q16 0 45 11t58 27q33 18 67 41l6 -186q-39 -33 -75 -57q-33 -23 -72 -39.5t-74 -16.5t-71.5 14.5t-72.5 33t-66.5 33t-55.5 14.5q-20 0 -48 -15.5t-56 -31.5q-33 -23 -68 -48z" />
<glyph unicode="&#xe4;" horiz-adv-x="1030" d="M129 328q0 109 29.5 234.5t93 233t162 179.5t235.5 72q53 0 134 -10.5t159 -20.5q90 -14 188 -31l-155 -663q-10 -47 -20.5 -102.5t-18.5 -102.5q-8 -55 -16 -111l-232 -10q6 39 12 76q4 31 9.5 60.5t9.5 43.5q-43 -57 -92 -100q-43 -37 -98.5 -68t-118.5 -31 q-76 0 -129.5 26t-87 73t-49 110.5t-15.5 141.5zM369 328q0 -66 24.5 -109t93.5 -43q39 0 86.5 33t88 73t68.5 72l28 33l102 432q-41 6 -78 15q-33 4 -67.5 9t-59.5 5q-72 0 -125 -52.5t-88.5 -130t-54 -168.5t-18.5 -169zM510 1243l57 248h187l-58 -248h-186zM893 1243 l57 248h187l-58 -248h-186z" />
<glyph unicode="&#xe5;" horiz-adv-x="1030" d="M129 328q0 109 29.5 234.5t93 233t162 179.5t235.5 72q53 0 134 -10.5t159 -20.5q90 -14 188 -31l-155 -663q-10 -47 -20.5 -102.5t-18.5 -102.5q-8 -55 -16 -111l-232 -10q6 39 12 76q4 31 9.5 60.5t9.5 43.5q-43 -57 -92 -100q-43 -37 -98.5 -68t-118.5 -31 q-76 0 -129.5 26t-87 73t-49 110.5t-15.5 141.5zM369 328q0 -66 24.5 -109t93.5 -43q39 0 86.5 33t88 73t68.5 72l28 33l102 432q-41 6 -78 15q-33 4 -67.5 9t-59.5 5q-72 0 -125 -52.5t-88.5 -130t-54 -168.5t-18.5 -169zM633 1348q23 90 89 151.5t163 61.5 q96 0 129.5 -62.5t13.5 -152.5q-25 -100 -93.5 -156.5t-160.5 -56.5q-96 0 -130 62.5t-11 152.5zM760 1348q-10 -29 6 -51.5t47 -22.5t55.5 21.5t32.5 50.5q10 31 -7.5 51t-45.5 20q-31 0 -55.5 -19t-32.5 -50z" />
<glyph unicode="&#xe6;" horiz-adv-x="1611" d="M174 235.5q2 34.5 12 71.5q20 84 57.5 141.5t88.5 93.5t115.5 55t140.5 26q29 0 71 6q16 2 38 3t38 1h15q6 0 12 1t12 1q10 2 19.5 2t19.5 2v-4q2 8 3 15t3 18q0 8 2 12q0 6 8 22v-2q4 16 4.5 29.5t0.5 26.5q-10 70 -89 69q-53 0 -118.5 -5t-122.5 -9q-68 -6 -135 -12 q4 25 9 51.5t9 52.5q2 10 3 21.5t5 25.5q4 12 5 26.5t6 29.5q72 12 143 20q59 8 129 14.5t123 6.5q84 0 143.5 -26t87.5 -81q61 51 135 79t158 28q152 0 228.5 -72t80.5 -203q2 -41 -3 -90t-21 -107q0 -8 -2 -12q-4 -10 -7.5 -19t-7.5 -20q-6 -16 -10 -29.5t-6 -19.5 q-2 -2 -1 -3t-1 -5q-2 -2 -3 -7t-1 -7q-2 -2 -3 -7.5t-1 -7.5q-8 -12 -8 -28h-578v4q-6 -29 -9 -57.5t1 -51.5q6 -53 45 -84t117 -31q53 0 114.5 2.5t114.5 6.5q63 4 125 10q-6 -10 -6 -25q-4 -8 -4 -10q-4 -20 -6 -29q-6 -29 -12.5 -58.5t-12.5 -59.5q-57 -14 -121 -25 q-53 -10 -120.5 -17.5t-137.5 -7.5q-98 0 -169 25t-107 78q-10 -6 -21 -10q-6 -4 -18 -9q-4 -4 -9.5 -4t-9.5 -2q-2 -2 -5 -3t-5 -3q-45 -18 -127 -45t-195 -27q-92 0 -153.5 53.5t-73.5 141.5q-4 29 -2 63.5zM408 246q12 -66 75 -66q37 0 78 6.5t77 14.5t59.5 15t27.5 9v-4 q2 16 3 31.5t5 34.5q0 18 6 30v-2q4 35 11.5 69t17.5 73q-14 -2 -29.5 -3t-29.5 -1q-10 0 -18.5 -1t-18.5 -3h-27q-10 -2 -24.5 -3.5t-24.5 -1.5q-10 -2 -33 -2q-55 -4 -96 -37.5t-55 -91.5q-8 -35 -4 -67zM1022 596h375v-4q10 41 14 79t0 66q-12 104 -137 105 q-104 0 -163.5 -63.5t-88.5 -182.5z" />
<glyph unicode="&#xe7;" horiz-adv-x="847" d="M141 317q0 150 33 282t100.5 231.5t168 158t235.5 58.5q51 0 102 -9.5t92 -19.5q49 -12 95 -27l-60 -172l-86 12q-37 4 -78 8.5t-75 4.5q-74 0 -129.5 -43t-90 -111.5t-52 -153.5t-17.5 -169q0 -90 41 -138.5t133 -48.5q33 0 71 3t72 7q39 4 80 11l-18 -176 q-45 -14 -92 -25q-41 -10 -91.5 -16.5t-103.5 -6.5q-152 0 -241 88.5t-89 251.5zM270 -436l35 145q18 -2 39 -2q16 -2 33.5 -2h34.5q78 0 92 57q8 33 -11.5 41.5t-54.5 8.5h-57l45 198h96l-22 -86h12q45 0 84 -8t64.5 -28.5t33.5 -55.5t-6 -86q-23 -100 -90.5 -151.5 t-159.5 -51.5q-63 0 -114 11q-27 4 -54 10z" />
<glyph unicode="&#xe8;" horiz-adv-x="987" d="M162 313q0 135 31.5 267.5t99 236t173 167t253.5 63.5q156 0 248 -67t92 -220q0 -100 -34 -166t-104.5 -103.5t-178 -53t-253.5 -15.5h-81q-6 -23 -9.5 -50.5t-3.5 -52.5q0 -72 47 -106.5t119 -34.5q53 0 112.5 5t110.5 12q57 8 115 16l-25 -176q-55 -16 -116 -29 q-53 -10 -122 -19.5t-140 -9.5q-168 0 -251 81t-83 255zM434 598h94q164 0 231.5 35t67.5 123q0 55 -30.5 77.5t-89.5 22.5q-106 0 -173 -67.5t-100 -190.5zM536 1368l113 193l428 -187l-92 -157z" />
<glyph unicode="&#xe9;" horiz-adv-x="987" d="M162 313q0 135 31.5 267.5t99 236t173 167t253.5 63.5q156 0 248 -67t92 -220q0 -100 -34 -166t-104.5 -103.5t-178 -53t-253.5 -15.5h-81q-6 -23 -9.5 -50.5t-3.5 -52.5q0 -72 47 -106.5t119 -34.5q53 0 112.5 5t110.5 12q57 8 115 16l-25 -176q-55 -16 -116 -29 q-53 -10 -122 -19.5t-140 -9.5q-168 0 -251 81t-83 255zM434 598h94q164 0 231.5 35t67.5 123q0 55 -30.5 77.5t-89.5 22.5q-106 0 -173 -67.5t-100 -190.5zM534 1378l516 189l23 -219q-147 -43 -260 -78q-49 -14 -95.5 -28.5t-82 -25t-57.5 -16.5l-23 -6z" />
<glyph unicode="&#xea;" horiz-adv-x="987" d="M162 313q0 135 31.5 267.5t99 236t173 167t253.5 63.5q156 0 248 -67t92 -220q0 -100 -34 -166t-104.5 -103.5t-178 -53t-253.5 -15.5h-81q-6 -23 -9.5 -50.5t-3.5 -52.5q0 -72 47 -106.5t119 -34.5q53 0 112.5 5t110.5 12q57 8 115 16l-25 -176q-55 -16 -116 -29 q-53 -10 -122 -19.5t-140 -9.5q-168 0 -251 81t-83 255zM434 598h94q164 0 231.5 35t67.5 123q0 55 -30.5 77.5t-89.5 22.5q-106 0 -173 -67.5t-100 -190.5zM447 1186l336 342h116l176 -342h-211q-4 8 -21 50t-46 110l-139 -160h-211z" />
<glyph unicode="&#xeb;" horiz-adv-x="987" d="M162 313q0 135 31.5 267.5t99 236t173 167t253.5 63.5q156 0 248 -67t92 -220q0 -100 -34 -166t-104.5 -103.5t-178 -53t-253.5 -15.5h-81q-6 -23 -9.5 -50.5t-3.5 -52.5q0 -72 47 -106.5t119 -34.5q53 0 112.5 5t110.5 12q57 8 115 16l-25 -176q-55 -16 -116 -29 q-53 -10 -122 -19.5t-140 -9.5q-168 0 -251 81t-83 255zM434 598h94q164 0 231.5 35t67.5 123q0 55 -30.5 77.5t-89.5 22.5q-106 0 -173 -67.5t-100 -190.5zM488 1243l57 248h187l-58 -248h-186zM871 1243l57 248h187l-58 -248h-186z" />
<glyph unicode="&#xec;" horiz-adv-x="520" d="M154 0l239 1022h209l-240 -1022h-208zM225 1368l113 193l428 -187l-92 -157z" />
<glyph unicode="&#xed;" horiz-adv-x="507" d="M154 0l239 1022h209l-240 -1022h-208zM340 1378l516 189l23 -219q-147 -43 -260 -78q-49 -14 -95.5 -28.5t-82 -25t-57.5 -16.5l-23 -6z" />
<glyph unicode="&#xee;" horiz-adv-x="520" d="M154 0l239 1022h209l-240 -1022h-208zM224 1186l336 342h116l176 -342h-211q-4 8 -21 50t-46 110l-139 -160h-211z" />
<glyph unicode="&#xef;" horiz-adv-x="520" d="M154 0l239 1022h209l-240 -1022h-208zM266 1243l57 248h187l-58 -248h-186zM649 1243l57 248h187l-58 -248h-186z" />
<glyph unicode="&#xf0;" horiz-adv-x="1030" d="M145.5 254q-12.5 80 8.5 164q20 104 66 190t113.5 149.5t154.5 99.5t190 36q51 0 98 -9.5t82 -19.5q41 -12 76 -26l4 24q2 10 3 22.5t1 24.5q0 63 -24.5 113.5t-83 90.5t-155.5 70.5t-241 57.5l80 205q391 -35 549 -216t80 -505q-47 -188 -107.5 -328.5t-140.5 -232.5 t-180.5 -137t-224.5 -45q-104 -2 -177 33.5t-116 97t-55.5 141.5zM390 358q1 -41 16.5 -73.5t49 -55t91.5 -24.5q121 0 205 107.5t137 312.5q-2 2 -21.5 10t-52.5 18.5t-77 18.5t-93 8q-47 0 -90 -19.5t-76 -52.5t-54.5 -77t-27.5 -91q-8 -41 -7 -82zM467 1126l577 390 l78 -132l-573 -387z" />
<glyph unicode="&#xf1;" horiz-adv-x="1116" d="M161 0l236 1024h225l-20 -127q39 41 86 74q39 29 90 52.5t106 23.5q133 0 191.5 -80t58.5 -199q0 -29 -4 -64.5t-10 -70.5t-13.5 -68t-13.5 -57l-121 -508h-233l113 492q6 20 12 49.5t12 61.5t10.5 60.5t4.5 49.5q0 63 -21.5 97t-81.5 34q-35 0 -76 -25.5t-75 -54.5 q-41 -35 -84 -78l-158 -686h-234zM555 1397q39 35 78 61q35 23 73.5 43.5t73.5 20.5q39 0 78 -14.5t73.5 -31t64.5 -30.5t48 -14q16 0 45 11t58 27q33 18 67 41l6 -186q-39 -33 -75 -57q-33 -23 -72 -39.5t-74 -16.5t-71.5 14.5t-72.5 33t-66.5 33t-55.5 14.5 q-20 0 -48 -15.5t-56 -31.5q-33 -23 -68 -48z" />
<glyph unicode="&#xf2;" horiz-adv-x="1032" d="M172 346q0 127 36 252t102.5 225.5t162.5 162t217 61.5q182 0 284.5 -89.5t102.5 -285.5q0 -127 -33.5 -251t-99 -222.5t-163 -160t-224.5 -61.5q-182 0 -283.5 87.5t-101.5 281.5zM406 344q0 -80 37.5 -124t113.5 -44q68 0 121 44t90 115t56.5 161t19.5 180 q0 78 -38 124t-116 46q-68 0 -120 -44t-89 -116t-56 -161t-19 -181zM565 1368l113 193l428 -187l-92 -157z" />
<glyph unicode="&#xf3;" horiz-adv-x="1032" d="M172 346q0 127 36 252t102.5 225.5t162.5 162t217 61.5q182 0 284.5 -89.5t102.5 -285.5q0 -127 -33.5 -251t-99 -222.5t-163 -160t-224.5 -61.5q-182 0 -283.5 87.5t-101.5 281.5zM406 344q0 -80 37.5 -124t113.5 -44q68 0 121 44t90 115t56.5 161t19.5 180 q0 78 -38 124t-116 46q-68 0 -120 -44t-89 -116t-56 -161t-19 -181zM563 1378l516 189l23 -219q-147 -43 -260 -78q-49 -14 -95.5 -28.5t-82 -25t-57.5 -16.5l-23 -6z" />
<glyph unicode="&#xf4;" horiz-adv-x="1032" d="M172 346q0 127 36 252t102.5 225.5t162.5 162t217 61.5q182 0 284.5 -89.5t102.5 -285.5q0 -127 -33.5 -251t-99 -222.5t-163 -160t-224.5 -61.5q-182 0 -283.5 87.5t-101.5 281.5zM406 344q0 -80 37.5 -124t113.5 -44q68 0 121 44t90 115t56.5 161t19.5 180 q0 78 -38 124t-116 46q-68 0 -120 -44t-89 -116t-56 -161t-19 -181zM475 1186l336 342h116l176 -342h-211q-4 8 -21 50t-46 110l-139 -160h-211z" />
<glyph unicode="&#xf5;" horiz-adv-x="1032" d="M172 346q0 127 36 252t102.5 225.5t162.5 162t217 61.5q182 0 284.5 -89.5t102.5 -285.5q0 -127 -33.5 -251t-99 -222.5t-163 -160t-224.5 -61.5q-182 0 -283.5 87.5t-101.5 281.5zM406 344q0 -80 37.5 -124t113.5 -44q68 0 121 44t90 115t56.5 161t19.5 180 q0 78 -38 124t-116 46q-68 0 -120 -44t-89 -116t-56 -161t-19 -181zM498 1397q39 35 78 61q35 23 73.5 43.5t73.5 20.5q39 0 78 -14.5t73.5 -31t64.5 -30.5t48 -14q16 0 45 11t58 27q33 18 67 41l6 -186q-39 -33 -75 -57q-33 -23 -72 -39.5t-74 -16.5t-71.5 14.5t-72.5 33 t-66.5 33t-55.5 14.5q-20 0 -48 -15.5t-56 -31.5q-33 -23 -68 -48z" />
<glyph unicode="&#xf6;" horiz-adv-x="1032" d="M172 346q0 127 36 252t102.5 225.5t162.5 162t217 61.5q182 0 284.5 -89.5t102.5 -285.5q0 -127 -33.5 -251t-99 -222.5t-163 -160t-224.5 -61.5q-182 0 -283.5 87.5t-101.5 281.5zM406 344q0 -80 37.5 -124t113.5 -44q68 0 121 44t90 115t56.5 161t19.5 180 q0 78 -38 124t-116 46q-68 0 -120 -44t-89 -116t-56 -161t-19 -181zM518 1243l57 248h187l-58 -248h-186zM901 1243l57 248h187l-58 -248h-186z" />
<glyph unicode="&#xf7;" d="M178 469v229h770v-229h-770zM362 672v231h398v-231h-398zM446 43v250h232v-250h-232z" />
<glyph unicode="&#xf8;" horiz-adv-x="1028" d="M121 -166q8 12 12 21q8 10 16.5 23t16.5 28q10 12 17 25.5t16 25.5q41 66 77 123q6 10 17 16q0 2 2 2t4 2l6 6q125 209 258 418q25 41 48.5 79t47.5 79q10 14 18.5 30.5t18.5 30.5q18 31 37 62t37 59q18 29 37.5 59.5t38.5 61.5l6 12q2 4 4 7.5t4 7.5q14 29 33 53 q2 6 14.5 27.5t20.5 33.5q4 4 6 9q2 4 5 7t5 7l25 37q6 10 18 29.5t14 25.5q8 -4 15.5 -8t13.5 -6q14 -10 31 -13l4 -4q2 -2 4 -2q6 -2 12 -6t13 -4q10 -4 18 -7t16 -7q-8 -8 -11 -15.5t-7 -11.5t-6 -9t-6 -9q-12 -16 -23.5 -35t-21.5 -35q-6 -10 -12.5 -18.5t-12.5 -16.5 t-11 -16t-9 -17q-4 -8 -8.5 -14t-8.5 -14q-4 -4 -6 -9.5t-4 -9.5q-2 -2 -3 -4t-3 -4l-8 -8l-9 -8q-16 -25 -32.5 -52.5t-34.5 -54.5q-16 -25 -30.5 -50t-31.5 -52q-35 -53 -66.5 -103.5t-64.5 -103.5q-16 -29 -33.5 -57.5t-35.5 -55.5q-16 -27 -31.5 -52t-32.5 -52 q-35 -59 -74.5 -120.5t-76.5 -119.5q-2 -4 -3 -7t-3 -7l-7 -12q-6 -10 -12 -19.5t-10 -17.5q-14 -23 -26.5 -46.5t-26.5 -43.5q-41 -59 -80 -125q-16 6 -31.5 12t-30.5 14h-4q-10 6 -29.5 14.5t-29.5 14.5zM172 350q0 127 36 252t102.5 225.5t162.5 162t217 61.5 q182 0 284.5 -89.5t102.5 -285.5q0 -127 -33.5 -251t-99 -222.5t-163 -159.5t-224.5 -61q-182 0 -283.5 87t-101.5 281zM406 348q0 -80 37.5 -124t113.5 -44q68 0 121 44t90 115t56.5 161t19.5 180q0 78 -38 124t-116 46q-68 0 -120 -44t-89 -116t-56 -161t-19 -181z" />
<glyph unicode="&#xf9;" horiz-adv-x="1089" d="M139 256q0 29 4 64.5t10.5 70.5t13.5 68t13 57l119 508h233l-112 -492q-4 -20 -10.5 -49.5t-12.5 -60.5t-10 -60.5t-4 -50.5q0 -61 21.5 -96t80.5 -35q33 0 74 24.5t76 53.5q41 35 84 80l158 686h235l-238 -1024h-223l21 127q-39 -43 -86 -76q-41 -29 -92.5 -51.5 t-106.5 -22.5q-133 0 -190.5 80t-57.5 199zM557 1368l113 193l428 -187l-92 -157z" />
<glyph unicode="&#xfa;" horiz-adv-x="1089" d="M139 256q0 29 4 64.5t10.5 70.5t13.5 68t13 57l119 508h233l-112 -492q-4 -20 -10.5 -49.5t-12.5 -60.5t-10 -60.5t-4 -50.5q0 -61 21.5 -96t80.5 -35q33 0 74 24.5t76 53.5q41 35 84 80l158 686h235l-238 -1024h-223l21 127q-39 -43 -86 -76q-41 -29 -92.5 -51.5 t-106.5 -22.5q-133 0 -190.5 80t-57.5 199zM555 1378l516 189l23 -219q-147 -43 -260 -78q-49 -14 -95.5 -28.5t-82 -25t-57.5 -16.5l-23 -6z" />
<glyph unicode="&#xfb;" horiz-adv-x="1089" d="M139 256q0 29 4 64.5t10.5 70.5t13.5 68t13 57l119 508h233l-112 -492q-4 -20 -10.5 -49.5t-12.5 -60.5t-10 -60.5t-4 -50.5q0 -61 21.5 -96t80.5 -35q33 0 74 24.5t76 53.5q41 35 84 80l158 686h235l-238 -1024h-223l21 127q-39 -43 -86 -76q-41 -29 -92.5 -51.5 t-106.5 -22.5q-133 0 -190.5 80t-57.5 199zM428 1186l336 342h116l176 -342h-211q-4 8 -21 50t-46 110l-139 -160h-211z" />
<glyph unicode="&#xfc;" horiz-adv-x="1089" d="M139 256q0 29 4 64.5t10.5 70.5t13.5 68t13 57l119 508h233l-112 -492q-4 -20 -10.5 -49.5t-12.5 -60.5t-10 -60.5t-4 -50.5q0 -61 21.5 -96t80.5 -35q33 0 74 24.5t76 53.5q41 35 84 80l158 686h235l-238 -1024h-223l21 127q-39 -43 -86 -76q-41 -29 -92.5 -51.5 t-106.5 -22.5q-133 0 -190.5 80t-57.5 199zM455 1243l57 248h187l-58 -248h-186zM838 1243l57 248h187l-58 -248h-186z" />
<glyph unicode="&#xfd;" horiz-adv-x="933" d="M215 -438l211 438h-152l-4 1024h230l-15 -829h41l387 829h238l-702 -1462h-234zM518 1378l516 189l23 -219q-147 -43 -260 -78q-49 -14 -95.5 -28.5t-82 -25t-57.5 -16.5l-23 -6z" />
<glyph unicode="&#xfe;" horiz-adv-x="1062" d="M49 -434l445 1876h219l-115 -494q4 2 25.5 17.5t54.5 34t74 33t84 14.5q258 0 282 -238q6 -68 -3 -137.5t-25 -147.5q-37 -154 -88.5 -259t-119 -168.5t-154.5 -91.5t-196 -28q-31 0 -59.5 1.5t-52 3.5t-37.5 4t-14 4l-99 -424h-221zM420 201q4 -2 46.5 -8.5t108.5 -6.5 q115 0 182.5 89.5t106.5 248.5q10 43 16.5 83t4.5 73q-2 72 -32 110.5t-93 38.5q-33 0 -71 -15t-69.5 -33.5t-52 -33t-20.5 -12.5z" />
<glyph unicode="&#xff;" horiz-adv-x="942" d="M215 -438l211 438h-152l-4 1024h230l-15 -829h41l387 829h238l-702 -1462h-234zM473 1243l57 248h187l-58 -248h-186zM856 1243l57 248h187l-58 -248h-186z" />
<glyph unicode="&#x152;" horiz-adv-x="1744" d="M205 385q0 10 1 17.5t1 17.5q0 80 11 155.5t22 131.5q86 352 255 534t423 182q51 0 114.5 -6t116.5 -16h788l-49 -211h-547l-90 -381h439l-52 -209h-436l-90 -389h551l-47 -211h-791q-61 -10 -129.5 -16.5t-122.5 -6.5q-102 4 -170.5 39t-111.5 91.5t-63.5 128 t-22.5 149.5zM455 424q0 -55 9 -99t31.5 -75t62.5 -46.5t99 -15.5q16 0 52 1t71 4q41 2 90 6l234 1007q-4 0 -54.5 3t-158.5 3q-57 0 -115.5 -30.5t-112 -93t-98.5 -157.5t-76 -224q-23 -86 -28.5 -157t-5.5 -126z" />
<glyph unicode="&#x153;" horiz-adv-x="1703" d="M219 311q2 47 8 98.5t21 106.5q29 113 75 210t111.5 168t155.5 112t209 41q113 0 180.5 -36t101.5 -104q133 139 332 140q147 0 224 -67t87 -189q4 -45 -2 -98.5t-20 -117.5q-6 -23 -12.5 -42t-14.5 -41q-4 -20 -10 -42t-14 -40h-576v4q-16 -70 -8 -115q6 -53 44 -81 t116 -28q53 0 114.5 2.5t114.5 6.5q63 4 125 10q-4 -10 -5 -22.5t-5 -24.5t-6 -24.5t-4 -22.5v-2q-4 -10 -5.5 -19.5t-5.5 -19.5q-6 -18 -8 -47q-57 -14 -121 -25q-53 -10 -121.5 -17.5t-138.5 -7.5q-209 0 -276 125v-2q-63 -59 -143 -91t-193 -32q-160 0 -235.5 63.5 t-90.5 178.5q-6 47 -4 92zM449.5 391q-7.5 -57 1.5 -100q6 -51 39.5 -78t105.5 -27q63 0 108.5 25t78 68t54 104t40.5 135l4 8q12 66 18 113q2 18 2 34.5v31.5q-4 66 -38 98.5t-111 32.5q-61 0 -106.5 -21.5t-78 -63.5t-54 -101.5t-40.5 -133.5q-16 -68 -23.5 -125z M1116 596h373v-4q23 94 16 145q-4 51 -36.5 72.5t-98.5 21.5q-104 0 -164.5 -58t-89.5 -177z" />
<glyph unicode="&#x178;" horiz-adv-x="1097" d="M375 1401h250l123 -541l380 541h271l-578 -797l-143 -604h-242l142 608zM631 1632l55 248h199l-60 -248h-194zM1034 1632l57 248h199l-61 -248h-195z" />
<glyph unicode="&#x2c6;" horiz-adv-x="1619" d="M754 1186l336 342h116l176 -342h-211q-4 8 -21 50t-46 110l-139 -160h-211z" />
<glyph unicode="&#x2dc;" horiz-adv-x="901" d="M418 1397q39 35 78 61q35 23 73.5 43.5t73.5 20.5q39 0 78 -14.5t73.5 -31t64.5 -30.5t48 -14q16 0 45 11t58 27q33 18 67 41l6 -186q-39 -33 -75 -57q-33 -23 -72 -39.5t-74 -16.5t-71.5 14.5t-72.5 33t-66.5 33t-55.5 14.5q-20 0 -48 -15.5t-56 -31.5q-33 -23 -68 -48z " />
<glyph unicode="&#x2000;" horiz-adv-x="976" />
<glyph unicode="&#x2001;" horiz-adv-x="1952" />
<glyph unicode="&#x2002;" horiz-adv-x="976" />
<glyph unicode="&#x2003;" horiz-adv-x="1952" />
<glyph unicode="&#x2004;" horiz-adv-x="650" />
<glyph unicode="&#x2005;" horiz-adv-x="488" />
<glyph unicode="&#x2006;" horiz-adv-x="325" />
<glyph unicode="&#x2007;" horiz-adv-x="325" />
<glyph unicode="&#x2008;" horiz-adv-x="244" />
<glyph unicode="&#x2009;" horiz-adv-x="390" />
<glyph unicode="&#x200a;" horiz-adv-x="108" />
<glyph unicode="&#x2010;" horiz-adv-x="856" d="M258 438l53 211h514l-53 -211h-514z" />
<glyph unicode="&#x2011;" horiz-adv-x="856" d="M258 438l53 211h514l-53 -211h-514z" />
<glyph unicode="&#x2012;" horiz-adv-x="856" d="M258 438l53 211h514l-53 -211h-514z" />
<glyph unicode="&#x2013;" horiz-adv-x="1024" d="M0 446v201h1024v-201h-1024z" />
<glyph unicode="&#x2014;" horiz-adv-x="2048" d="M0 446v201h2048v-201h-2048z" />
<glyph unicode="&#x2018;" horiz-adv-x="415" d="M219 899l264 500h174l-204 -500h-234z" />
<glyph unicode="&#x2019;" horiz-adv-x="415" d="M238 901l204 500h234l-264 -500h-174z" />
<glyph unicode="&#x201a;" horiz-adv-x="415" d="M-105 -385l224 549h257l-290 -549h-191z" />
<glyph unicode="&#x201c;" horiz-adv-x="862" d="M315 905l264 500h174l-204 -500h-234zM684 905l264 500h174l-204 -500h-234z" />
<glyph unicode="&#x201d;" horiz-adv-x="841" d="M271 901l204 500h234l-264 -500h-174zM639 901l204 500h234l-264 -500h-174z" />
<glyph unicode="&#x201e;" horiz-adv-x="841" d="M-63 -373l224 549h257l-290 -549h-191zM335 -373l224 549h257l-290 -549h-191z" />
<glyph unicode="&#x2022;" horiz-adv-x="1085" d="M287 209v577h512v-577h-512z" />
<glyph unicode="&#x2026;" horiz-adv-x="1531" d="M84 0l66 285h237l-65 -285h-238zM559 0l66 285h237l-65 -285h-238zM1036 0l66 285h237l-65 -285h-238z" />
<glyph unicode="&#x202f;" horiz-adv-x="390" />
<glyph unicode="&#x2039;" horiz-adv-x="602" d="M121 446l41 109l487 319l-59 -210l-256 -162l176 -178l-59 -211z" />
<glyph unicode="&#x203a;" horiz-adv-x="618" d="M76 113l59 210l256 162l-176 178l59 211l330 -333l-41 -109z" />
<glyph unicode="&#x205f;" horiz-adv-x="488" />
<glyph unicode="&#x20ac;" d="M66 393l43 185h817l-43 -185h-817zM145 743l43 187h816l-41 -187h-818zM184 356q0 109 16.5 225.5t51.5 230.5t89 215t131 179t176.5 123t225.5 45q59 0 120 -8t108 -18q55 -12 108 -27l-55 -174q-39 6 -86 12q-41 4 -93 9.5t-112 5.5q-106 0 -189 -70t-139.5 -182.5 t-85 -257t-28.5 -291.5q0 -90 44 -141.5t144 -51.5q57 0 117.5 4t108.5 11q55 6 108 14l-31 -182q-55 -14 -110 -25q-47 -10 -106.5 -17.5t-114.5 -7.5q-205 0 -301.5 99.5t-96.5 279.5z" />
<glyph unicode="&#x2122;" horiz-adv-x="1085" d="M14 1167v142h410v-142h-100v-487h-158v487h-152zM479 678v631h189l102 -357l109 357h188v-631h-147v391l-93 -352h-104l-96 352v-391h-148z" />
<glyph unicode="&#xe000;" horiz-adv-x="1024" d="M0 0v1024h1024v-1024h-1024z" />
<glyph unicode="&#xfb04;" horiz-adv-x="1828" d="M45 -440l295 1261h-102l49 203h96l14 57q25 102 53.5 176t70.5 121t100.5 68.5t140.5 21.5q35 0 67.5 -6t61.5 -14q33 -8 61 -21l-45 -172q-23 2 -45 7q-20 4 -44.5 6t-47.5 2q-63 0 -90 -53.5t-49 -137.5l-13 -55h234l-49 -201h-230l-190 -823l-129 -440h-209zM707 -440 l295 1261h-102l49 203h96l14 57q25 102 53.5 176t70.5 121t100.5 68.5t140.5 21.5q35 0 67.5 -6t61.5 -14q33 -8 61 -21l-45 -172q-23 2 -45 7q-20 4 -44.5 6t-47.5 2q-63 0 -90 -53.5t-49 -137.5l-13 -55h234l-49 -201h-230l-190 -823l-129 -440h-209zM1475 0l333 1446h234 l-332 -1446h-235z" />
</font>
</defs>
</svg>
