<?xml version="1.0" standalone="no"?>
<!DOCTYPE svg PUBLIC "-//W3C//DTD SVG 1.1//EN" "http://www.w3.org/Graphics/SVG/1.1/DTD/svg11.dtd" >
<svg xmlns="http://www.w3.org/2000/svg">
<metadata></metadata>
<defs>
<font id="titilliumtextitali400wt1000sl" horiz-adv-x="1126" >
<font-face units-per-em="2048" ascent="1536" descent="-512" />
<missing-glyph horiz-adv-x="456" />
<glyph horiz-adv-x="2048" />
<glyph horiz-adv-x="2048" />
<glyph unicode="&#xd;" horiz-adv-x="456" />
<glyph unicode=" "  horiz-adv-x="456" />
<glyph unicode="&#x09;" horiz-adv-x="456" />
<glyph unicode="&#xa0;" horiz-adv-x="456" />
<glyph unicode="!" horiz-adv-x="739" d="M184 0l52 227h155l-51 -227h-156zM291 471l217 956h158l-236 -956h-139z" />
<glyph unicode="&#x22;" horiz-adv-x="202" d="M446 954l106 467h146l-117 -467h-135zM479 954l106 467h146l-117 -467h-135z" />
<glyph unicode="#" horiz-adv-x="1085" d="M106 369l33 131h226l90 364h-226l33 131h225l93 369h139l-92 -369h317l92 369h140l-93 -369h226l-33 -131h-225l-90 -364h225l-33 -131h-225l-90 -369h-140l90 369h-317l-90 -369h-139l90 369h-226zM504 500h317l90 364h-317z" />
<glyph unicode="$" horiz-adv-x="1030" d="M152 31l26 119q63 -10 131 -19q57 -8 122 -13t120 -5q156 0 241 84t85 237q0 43 -10.5 72t-35 50.5t-67.5 40.5t-109 42q-72 25 -127 50.5t-92 60t-56.5 82t-19.5 114.5q0 100 34 180t95.5 135.5t148.5 85t196 29.5q68 0 132 -9t117 -19q59 -12 115 -27l-27 -113 q-59 8 -120 17q-53 6 -112.5 12t-111.5 6q-147 0 -231 -71.5t-84 -213.5q0 -41 12.5 -68.5t42 -49t75.5 -41t114 -43.5q74 -27 126 -53.5t85.5 -60.5t49 -81t15.5 -112q0 -111 -34.5 -198t-98 -147.5t-154 -92t-200.5 -31.5q-70 0 -139.5 7t-126.5 17q-68 10 -127 27z M276 -246l728 1848h110l-729 -1848h-109z" />
<glyph unicode="%" horiz-adv-x="1085" d="M311 12l738 1440l102 -31l-735 -1439zM330 1155q37 147 114.5 215t182.5 68q104 0 147 -67.5t6 -217.5q-37 -147 -114.5 -218t-182.5 -71q-104 0 -147 70.5t-6 220.5zM443.5 1016q11.5 -47 66.5 -47q57 0 91 46t56 138q23 92 11.5 135t-68.5 43q-55 0 -89 -43t-56 -133 q-23 -92 -11.5 -139zM692 291q37 147 114 214.5t181 67.5t147.5 -67.5t6.5 -216.5q-37 -147 -114 -218t-181 -71t-147.5 70.5t-6.5 220.5zM802.5 151.5q10.5 -47.5 67.5 -47.5t91 46.5t57 138.5t11.5 135t-68.5 43t-90 -43t-56 -133q-23 -92 -12.5 -139.5z" />
<glyph unicode="&#x26;" horiz-adv-x="1361" d="M168 307q0 106 24.5 187t75.5 143.5t130 112t190 90.5q-27 53 -40 94t-13 102q0 193 105.5 297.5t281.5 104.5q135 0 213.5 -58.5t78.5 -193.5q0 -160 -97 -263.5t-302 -181.5l227 -311q29 49 62 125t55 150h148q-14 -51 -36 -104.5t-45.5 -104t-49 -95.5t-50.5 -77 l193 -242l-107 -96l-186 229q-96 -115 -205.5 -175t-265.5 -60q-203 0 -295 86t-92 241zM328 322q0 -113 66.5 -160t183.5 -47q104 0 202.5 54t167.5 150l-299 418q-92 -35 -153.5 -77t-98.5 -93t-53 -111.5t-16 -133.5zM692 1032q0 -115 62 -196q84 35 141 70.5t93 76.5 t52.5 88t16.5 107q0 68 -37 98.5t-105 30.5q-57 0 -99 -21.5t-69.5 -58.5t-41 -87.5t-13.5 -107.5z" />
<glyph unicode="'" horiz-adv-x="202" d="M256 954l106 467h146l-117 -467h-135z" />
<glyph unicode="(" horiz-adv-x="505" d="M166 199q0 129 19.5 255t51 243.5t71.5 226t83 200.5q98 217 225 408h156q-127 -195 -225 -414q-43 -94 -83 -201.5t-72 -225.5t-51 -242.5t-19 -249.5q0 -102 4 -185.5t10 -142.5q6 -70 14 -125h-157q-8 66 -15 139q-4 63 -8 144.5t-4 169.5z" />
<glyph unicode=")" horiz-adv-x="505" d="M8 -242q127 195 225 414q43 94 83 201.5t72 225.5t51 242.5t19 249.5q0 102 -4 185.5t-10 142.5q-6 70 -14 125h157q8 -66 15 -139q4 -63 8 -144.5t4 -169.5q0 -129 -19.5 -255t-51 -243.5t-71.5 -226t-83 -200.5q-98 -217 -225 -408h-156z" />
<glyph unicode="*" horiz-adv-x="1085" d="M254 938l221 162l-219 157l63 86l218 -159l84 258l100 -33l-82 -260h266v-102h-268l82 -256l-98 -31l-86 258l-220 -162z" />
<glyph unicode="+" d="M102 444v140h387v399h144v-399h391v-140h-391v-403h-144v403h-387z" />
<glyph unicode="," horiz-adv-x="329" d="M-37 -264l201 491h170l-246 -491h-125z" />
<glyph unicode="-" horiz-adv-x="856" d="M268 477l33 141h508l-35 -141h-506z" />
<glyph unicode="." horiz-adv-x="483" d="M115 0l53 227h156l-54 -227h-155z" />
<glyph unicode="/" horiz-adv-x="1030" d="M188 -53l875 1544l123 -53l-877 -1542z" />
<glyph unicode="0" d="M43 373q0 184 42 363t122 321.5t197.5 229.5t269.5 87q209 0 309 -102.5t100 -298.5q0 -193 -44 -372t-126 -317.5t-199.5 -221t-264.5 -82.5q-203 0 -304.5 100t-101.5 293zM203 391q0 -141 62.5 -207.5t183.5 -66.5q78 0 143 36.5t117.5 100t93.5 146.5t67.5 177.5 t40 191.5t13.5 187q0 139 -61.5 210t-190.5 71q-80 0 -145.5 -40t-118 -105.5t-91 -152.5t-64.5 -180t-38 -188.5t-12 -179.5z" />
<glyph unicode="1" d="M250 1077l493 277h136l-312 -1354h-157l270 1163l-389 -213z" />
<glyph unicode="2" d="M14 0l31 129l524 440q84 70 154 133.5t119 122t75.5 113.5t26.5 111q0 104 -63.5 146t-192.5 42q-59 0 -124.5 -7t-121.5 -16q-66 -8 -127 -20l19 121q59 16 125 28q55 10 123.5 20.5t138.5 10.5q193 0 288 -71.5t95 -225.5q0 -84 -28.5 -156.5t-79 -139t-118 -128 t-147.5 -123.5l-491 -393h671l-30 -137h-867z" />
<glyph unicode="3" d="M29 41l34 125q63 -14 132 -25q57 -10 122.5 -17t124.5 -7q72 0 140.5 20.5t122 60.5t85 100t31.5 140q0 90 -54 142.5t-183 52.5h-265l33 133h266q47 0 103.5 21.5t104.5 59.5t80 91t32 119q0 94 -56.5 137t-179.5 43q-70 0 -137 -6t-123 -14q-66 -8 -123 -19l17 123 q61 14 129 27q57 10 127 18t139 8q193 0 280 -69.5t87 -208.5q0 -147 -77 -233.5t-202 -143.5q76 -35 119 -94.5t43 -178.5q0 -111 -44 -197.5t-119 -146t-175 -91t-213 -31.5q-74 0 -145.5 9t-128.5 21q-68 12 -127 31z" />
<glyph unicode="4" d="M72 254l28 117l643 983h166l-653 -967h483l101 442h155l-100 -442h164l-33 -133h-162l-59 -254h-156l58 254h-635z" />
<glyph unicode="5" d="M-10 47l37 129q68 -18 135 -31q59 -10 126.5 -19t129.5 -9q86 0 159.5 31.5t128 87t86 130t31.5 158.5q0 188 -233 189q-53 0 -109.5 -14.5t-103.5 -30.5q-53 -20 -107 -43l-123 24l218 705h772l-33 -137h-633l-147 -449q53 20 106 39q47 16 99.5 28.5t99.5 12.5 q174 0 264 -71.5t90 -231.5q0 -123 -43 -226.5t-119 -178t-177 -117.5t-220 -43q-78 0 -156 10t-139 22q-72 14 -139 35z" />
<glyph unicode="6" d="M23 444q0 96 18 203t57 210.5t97.5 197.5t138.5 164.5t182 112.5t225 42q59 0 121 -6t113 -14q59 -8 115 -21l-48 -129q-47 8 -100 17q-47 6 -104.5 11t-116.5 5q-102 0 -183 -43t-142.5 -111.5t-103.5 -155.5t-67 -173q63 25 129 47q55 16 120 31.5t124 15.5 q188 0 274 -88t86 -240q0 -121 -35.5 -220t-105 -170t-171 -110.5t-232.5 -39.5q-207 0 -299 109.5t-92 354.5zM182 440q0 -166 51.5 -244.5t184.5 -78.5q94 0 165.5 28.5t119 79.5t72 119t24.5 148q0 113 -58.5 166t-187.5 53q-66 0 -128.5 -12.5t-113.5 -28.5 q-59 -18 -112 -41q-4 -27 -9 -58q-4 -27 -6 -61.5t-2 -69.5z" />
<glyph unicode="7" d="M68 20l782 1119l18 73h-657l31 142h815l-53 -236l-795 -1145z" />
<glyph unicode="8" d="M-23 270q0 90 30 160t77 122t108.5 90t122.5 65q-92 51 -120.5 104t-28.5 127q0 86 32.5 166t103.5 139.5t180 95t263 35.5q213 0 309.5 -71.5t96.5 -200.5q0 -131 -82 -237.5t-238 -157.5q57 -25 93.5 -53.5t55.5 -61.5t25.5 -70t6.5 -73q0 -66 -30 -147t-100.5 -152.5 t-189.5 -120.5t-297 -49q-96 0 -173 15t-131 49t-84 89t-30 137zM137 295q0 -90 75 -134t220 -44q111 0 190.5 31.5t131 78.5t75 101.5t23.5 99.5q0 47 -13.5 79t-38 54.5t-60 38.5t-83.5 31h-206q-53 -16 -109.5 -43t-101.5 -68t-74 -96t-29 -129zM326 948q0 -61 32.5 -105 t124.5 -79h207q39 12 91.5 36.5t98.5 61.5t78.5 86t32.5 109q0 92 -67.5 136t-214.5 44q-104 0 -177 -25.5t-119 -67.5t-66.5 -93.5t-20.5 -102.5z" />
<glyph unicode="9" d="M23 20l47 130q47 -8 100 -17q45 -6 103.5 -11t117.5 -5q100 0 181 43t142.5 111.5t104.5 154.5t68 172q-63 -27 -129 -47q-55 -16 -121 -30.5t-123 -14.5q-188 0 -274 87t-86 241q0 119 35.5 218t105.5 170.5t171 111.5t232 40q207 0 299.5 -109.5t92.5 -355.5 q0 -96 -18.5 -202.5t-57.5 -210t-97.5 -197.5t-138.5 -165t-182 -112.5t-225 -41.5q-59 0 -121 6t-113 14q-59 8 -114 20zM313 860q0 -111 58.5 -164t187.5 -53q63 0 127 12.5t115 28.5q59 18 112 41q4 27 9 57q4 27 6 61t2 68q0 168 -51.5 247t-184.5 79 q-94 0 -165.5 -28.5t-119 -80t-72 -120t-24.5 -148.5z" />
<glyph unicode=":" horiz-adv-x="344" d="M115 0l53 227h156l-54 -227h-155zM271 676l53 227h156l-54 -227h-155z" />
<glyph unicode=";" horiz-adv-x="483" d="M-25 -264l201 491h170l-246 -491h-125zM271 676l53 227h156l-54 -227h-155z" />
<glyph unicode="&#x3c;" d="M137 446v136l852 415v-159l-694 -322l694 -328v-161z" />
<glyph unicode="=" d="M121 254v141h885v-141h-885zM121 633v141h885v-141h-885z" />
<glyph unicode="&#x3e;" d="M137 27l852 419v136l-852 415v-159l694 -322l-694 -328v-161z" />
<glyph unicode="?" horiz-adv-x="751" d="M233 2l52 225h153l-53 -225h-152zM344 1262l10 124q53 14 109 25q47 10 102.5 18.5t106.5 8.5q74 0 136 -14.5t106 -46t70 -81.5t26 -120q0 -80 -16.5 -138.5t-55.5 -112t-103.5 -108.5t-160.5 -129q-74 -57 -112 -108.5t-48 -98.5l-16 -80h-146q0 18 2 41q2 18 5 41 t8 45q12 68 63 131.5t143 135.5q76 59 128.5 104t84 86t46 83t14.5 97q0 74 -55.5 103.5t-151.5 29.5q-47 0 -99.5 -6t-95.5 -12q-53 -8 -100 -18z" />
<glyph unicode="@" horiz-adv-x="1916" d="M190 285q0 279 59.5 499t186.5 370.5t325.5 230t479.5 79.5q170 0 311.5 -29.5t241.5 -101t155.5 -191.5t55.5 -300q0 -156 -24.5 -309.5t-86 -276.5t-164 -199.5t-257.5 -76.5q-117 0 -181.5 40.5t-58.5 157.5q-10 -14 -43 -47t-79 -66.5t-103.5 -59t-116.5 -25.5 q-139 0 -201.5 82.5t-62.5 222.5q0 80 14 167t43 172t72 160.5t100 134t129 92t158 33.5q47 0 118.5 -8t137.5 -18q78 -10 162 -25q-41 -170 -74 -313q-14 -61 -27.5 -121.5t-26 -113t-21.5 -90.5t-11 -54q-12 -51 -16.5 -87t6 -59.5t37 -33.5t77.5 -10q70 0 124 33.5t93 91 t66 131t42 155.5t22.5 164t7.5 154q0 143 -43 238.5t-123 150.5t-195 77.5t-258 22.5q-248 0 -421 -70.5t-280.5 -203.5t-156.5 -328t-49 -442q0 -164 32.5 -272.5t102.5 -173t179.5 -92.5t260.5 -28q29 0 76 2.5t92 6.5q53 4 109 8q-4 -20 -12.5 -61.5t-12.5 -67.5 q-57 -6 -110 -10q-47 -4 -95.5 -6.5t-81.5 -2.5q-182 0 -312 40t-213 125t-121 216t-38 316zM784 285q0 -80 39 -126t121 -46q51 0 107.5 36.5t103.5 81.5q53 53 107 119q27 111 49 211q20 86 41.5 176t33.5 146q-41 6 -81 14q-35 4 -76 9t-74 5q-90 0 -158.5 -62.5 t-115.5 -155.5t-72 -203.5t-25 -204.5z" />
<glyph unicode="A" horiz-adv-x="1175" d="M63 0l707 1417h305l31 -1417h-158l-12 360l-530 2l-183 -362h-160zM471 500h465l-18 778h-56z" />
<glyph unicode="B" horiz-adv-x="1204" d="M186 0l326 1417h459q164 0 252 -64.5t88 -215.5q0 -80 -20.5 -143.5t-57.5 -113t-85 -84t-104 -59.5q88 -35 130.5 -92t42.5 -156q0 -227 -137.5 -358t-403.5 -131h-490zM375 139h332q166 0 256 93.5t90 252.5q0 100 -66.5 135t-169.5 35h-323zM524 791h316 q70 0 126 24.5t97 67.5t63.5 102t22.5 127q0 92 -49 130t-156 38h-307z" />
<glyph unicode="C" horiz-adv-x="1038" d="M217 350q0 121 18.5 248t55.5 248t94 228.5t137 188t182.5 128t227.5 47.5q59 0 120.5 -7.5t110.5 -17.5q57 -10 109 -22l-37 -123q-45 6 -98 14q-45 6 -100.5 11t-114.5 5q-133 0 -234.5 -84t-170 -217t-103.5 -302t-35 -337q0 -109 60.5 -174t193.5 -65q59 0 120.5 5 t110.5 11q57 8 111 19l-19 -129q-55 -14 -112 -23q-49 -10 -110.5 -16t-121.5 -6q-199 0 -297 101t-98 269z" />
<glyph unicode="D" horiz-adv-x="1249" d="M184 0l328 1417h449q186 0 292.5 -97t106.5 -319q0 -113 -19.5 -230.5t-58.5 -229t-96.5 -210t-133 -172t-170 -116.5t-204.5 -43h-494zM375 139h309q125 0 221 86t160.5 215t97.5 279.5t33 279.5q0 147 -62.5 213t-197.5 66h-299z" />
<glyph unicode="E" horiz-adv-x="1097" d="M186 0l328 1417h791l-33 -139h-635l-113 -487h520l-32 -140h-518l-117 -512h633l-33 -139h-791z" />
<glyph unicode="F" horiz-adv-x="1075" d="M184 0l328 1417h799l-35 -139h-641l-129 -559h526l-35 -137h-522l-135 -582h-156z" />
<glyph unicode="G" horiz-adv-x="1183" d="M223 381q0 188 43 376.5t133 340t226.5 246t324.5 94.5q78 0 152 -10.5t131 -22.5q68 -14 127 -31l-39 -119q-61 12 -127 21q-55 8 -125 15t-137 7q-96 0 -174 -40.5t-138.5 -111.5t-104.5 -163t-72.5 -194.5t-43 -208t-14.5 -201.5q0 -137 72.5 -198.5t208.5 -61.5 q43 0 88 4t80 10q41 8 81 17l105 450h-215l33 135h370l-164 -700q-53 -16 -116 -29q-53 -10 -126 -18t-153 -8q-207 0 -316.5 98t-109.5 303z" />
<glyph unicode="H" horiz-adv-x="1329" d="M184 0l328 1417h154l-144 -633h645l146 633h155l-325 -1417h-158l150 647h-646l-149 -647h-156z" />
<glyph unicode="I" horiz-adv-x="481" d="M164 0l328 1417h155l-325 -1417h-158z" />
<glyph unicode="J" horiz-adv-x="600" d="M70 -143l26 139q63 0 103.5 8t66 36t43 79t35.5 135l270 1163h158q-2 -2 -2 -4l-268 -1171q-29 -123 -55.5 -199t-70.5 -117t-116 -55t-190 -14z" />
<glyph unicode="K" horiz-adv-x="1157" d="M184 0l328 1417h154l-150 -655l186 6l502 649h176l-551 -712l228 -705h-168l-201 629l-205 -6l-143 -623h-156z" />
<glyph unicode="L" horiz-adv-x="995" d="M184 0l328 1417h154l-293 -1278h557l-31 -139h-715z" />
<glyph unicode="M" horiz-adv-x="1652" d="M184 0l328 1417h264l90 -1200l656 1200h266l-326 -1417h-155l295 1278h-21l-668 -1227h-163l-95 1227h-20l-295 -1278h-156z" />
<glyph unicode="N" horiz-adv-x="1347" d="M184 0l332 1417h277q4 -25 17 -109.5t33.5 -201.5t43 -254t45 -268t42 -244t32.5 -178h36l299 1255h150l-334 -1417h-270q-14 82 -40 233.5t-57.5 330.5t-63.5 364.5t-58 335.5h-39l-297 -1264h-148z" />
<glyph unicode="O" horiz-adv-x="1267" d="M225 406q0 186 47 370.5t137.5 331.5t221.5 238.5t299 91.5q213 0 326.5 -101.5t113.5 -324.5q0 -186 -45 -370.5t-134 -332t-220 -238.5t-305 -91q-111 0 -194 23.5t-137 74.5t-82 132t-28 196zM387 416q0 -82 15.5 -138.5t50 -92t90 -51t137.5 -15.5q92 0 167 41 t133 108.5t101 157.5t71 188.5t41 198.5t13 188q0 154 -68.5 225.5t-222.5 71.5q-88 0 -161.5 -40.5t-132 -110.5t-102.5 -160t-73.5 -188.5t-44 -197.5t-14.5 -185z" />
<glyph unicode="P" horiz-adv-x="1177" d="M188 0l328 1417h447q186 0 268 -83t82 -253q0 -133 -36 -244.5t-104.5 -191.5t-171 -125t-235.5 -45h-309l-109 -475h-160zM489 614h302q92 0 159.5 37t111.5 100.5t66.5 147.5t22.5 180q0 98 -47 148.5t-158 50.5h-305z" />
<glyph unicode="Q" horiz-adv-x="1267" d="M225 406q0 186 47 370.5t137.5 331.5t221.5 238.5t299 91.5q213 0 326.5 -101.5t113.5 -324.5q0 -186 -45 -370.5t-134 -332t-220 -238.5t-305 -91q-111 0 -194 23.5t-137 74.5t-82 132t-28 196zM387 416q0 -82 15.5 -138.5t50 -92t90 -51t137.5 -15.5q92 0 167 41 t133 108.5t101 157.5t71 188.5t41 198.5t13 188q0 154 -68.5 225.5t-222.5 71.5q-88 0 -161.5 -40.5t-132 -110.5t-102.5 -160t-73.5 -188.5t-44 -197.5t-14.5 -185zM784 25l142 49l108 -322l-149 -49z" />
<glyph unicode="R" horiz-adv-x="1210" d="M180 0l326 1417h434q184 0 276.5 -76.5t92.5 -265.5q0 -121 -34 -212t-87 -153.5t-116.5 -101.5t-125.5 -55l154 -553h-158l-147 530h-334l-123 -530h-158zM492 668h303q80 0 145.5 29.5t110.5 84t69.5 128t24.5 161.5q0 117 -52.5 163t-168.5 46h-291z" />
<glyph unicode="S" horiz-adv-x="1036" d="M129 33l27 123q70 -10 137 -19q59 -8 126.5 -13t127.5 -5q162 0 251 87t89 249q0 43 -10.5 72.5t-37 53t-71.5 43t-113 44.5q-76 27 -133 53.5t-96 62t-59.5 85t-20.5 120.5q0 106 36 189.5t100.5 140.5t155.5 88t204 31q72 0 139.5 -9.5t120.5 -19.5q63 -12 121 -29 l-27 -116q-63 10 -127 18q-53 6 -116.5 12t-116.5 6q-154 0 -242 -75.5t-88 -223.5q0 -43 13 -71.5t43 -51t78 -43t120 -44.5q78 -29 132 -56.5t89 -63.5t51.5 -84t16.5 -118q0 -115 -36 -206t-102.5 -154.5t-161 -96t-208.5 -32.5q-74 0 -146.5 8t-132.5 18q-68 10 -133 27 z" />
<glyph unicode="T" horiz-adv-x="956" d="M317 1278l33 139h918l-35 -139h-381l-295 -1278h-156l295 1278h-379z" />
<glyph unicode="U" horiz-adv-x="1253" d="M252 274q0 41 6 91.5t16 93.5l222 958h157l-227 -985q-6 -29 -11 -65.5t-5 -71.5q0 -98 69.5 -137t190.5 -39q84 0 144 19.5t103.5 58.5t70 98t44.5 137l228 985h155l-225 -985q-27 -115 -69 -198.5t-106.5 -141t-152.5 -85t-205 -27.5q-92 0 -166.5 17t-128 54t-82 92.5 t-28.5 130.5z" />
<glyph unicode="V" horiz-adv-x="1153" d="M399 1417h158l4 -1278h94l605 1278h157l-676 -1417h-325z" />
<glyph unicode="W" horiz-adv-x="1748" d="M360 0l56 1417h155q0 -10 -3 -70.5t-8 -150.5t-10 -201.5t-11.5 -227.5t-11.5 -225.5t-10 -196.5t-7 -141t-2 -59h55q18 47 62.5 146.5t99.5 224.5t115.5 262t116 261t97.5 220.5t60 137.5h172l-2 -72q-6 -129 -11 -275.5t-9 -300l-8 -307t-9 -297.5h51q10 25 45 105 t83.5 192.5t104.5 246.5t112.5 267.5t107.5 254t88 206.5h156q-12 -27 -53 -122t-99.5 -229t-125 -291t-131 -305t-118 -273t-84.5 -197h-276q0 23 3 105.5t7 198.5t9.5 251t9.5 260t8 226.5t6 150.5q-12 -29 -46 -106.5t-80 -185t-100.5 -233.5t-107.5 -249t-100 -232.5 t-78 -185.5h-279z" />
<glyph unicode="X" horiz-adv-x="1130" d="M63 0l568 707l-228 710h170l183 -596l463 596h170l-560 -710l230 -707h-172l-185 594l-466 -594h-173z" />
<glyph unicode="Y" horiz-adv-x="1075" d="M389 1417h160l168 -637l471 637h172l-596 -807l-146 -610h-155l141 618z" />
<glyph unicode="Z" horiz-adv-x="1107" d="M125 -2l45 197q139 158 238.5 269t174 194t131 146.5t113 126t117 131t143.5 163.5l9 53h-672l33 139h850l-45 -196l-918 -1033l-10 -51h674l-33 -139h-850z" />
<glyph unicode="[" horiz-adv-x="583" d="M4 -250l416 1780h424l-35 -148h-242l-348 -1484h242l-37 -148h-420z" />
<glyph unicode="\" horiz-adv-x="1083" d="M530 1462l123 29l308 -1565l-121 -30z" />
<glyph unicode="]" horiz-adv-x="583" d="M-39 -248l35 148h242l348 1484h-242l37 148h420l-416 -1780h-424z" />
<glyph unicode="^" d="M109 653l378 699h140l391 -699h-164l-295 547l-287 -547h-163z" />
<glyph unicode="_" horiz-adv-x="1030" d="M-20 -311l32 149h918l-35 -149h-915z" />
<glyph unicode="`" horiz-adv-x="1060" d="M573 1399l74 119l379 -191l-63 -100z" />
<glyph unicode="a" horiz-adv-x="1015" d="M172 285q0 80 14.5 167t43 172t71.5 160.5t100.5 134t129 92t157.5 33.5q47 0 120 -8t138 -18q78 -10 162 -25l-156 -665q-10 -49 -20 -105.5t-19 -105.5q-8 -57 -18 -113l-150 -6q6 51 15 94q6 37 12 73t10 52q-49 -66 -104 -119q-47 -45 -109.5 -81.5t-132.5 -36.5 q-139 0 -201.5 82.5t-62.5 222.5zM330 285q0 -78 33.5 -125t117.5 -47q51 0 109.5 42t109 92t82.5 92l31 42l119 502q-41 6 -84 14q-37 4 -80 9t-78 5q-90 0 -156.5 -62.5t-112.5 -155.5t-68.5 -203.5t-22.5 -204.5z" />
<glyph unicode="b" horiz-adv-x="1052" d="M178 31l332 1439h154l-136 -581q43 43 95 78q43 29 99.5 53t117.5 24q82 0 135 -24.5t84 -66.5t43 -98t12 -120q0 -72 -13.5 -155.5t-41 -167.5t-69.5 -162t-99 -138.5t-131 -96t-162 -35.5q-66 0 -138.5 7t-135.5 17q-74 10 -146 27zM356 139q41 -8 82 -14q35 -4 76 -8 t76 -4q70 0 124 34.5t94 89t68.5 123t46 136t25.5 128t8 97.5q0 39 -5 72.5t-22.5 60.5t-49 42t-84.5 15q-49 0 -101.5 -27.5t-97.5 -60.5q-53 -39 -102 -88z" />
<glyph unicode="c" horiz-adv-x="849" d="M180 291q0 147 33 283.5t100.5 241t168 166.5t235.5 62q45 0 90 -6t82 -14q43 -8 84 -18l-39 -119l-78 12q-35 4 -73 8t-70 4q-98 0 -169 -52t-117 -136t-68.5 -190.5t-22.5 -213.5q0 -98 49 -152t162 -54q31 0 70.5 4t74.5 10q41 8 84 16l-8 -120q-43 -14 -88 -23 q-39 -8 -87 -14t-95 -6q-158 0 -238 82.5t-80 228.5z" />
<glyph unicode="d" horiz-adv-x="1052" d="M176 279q0 129 34 265t98.5 247.5t159.5 182t218 70.5q45 0 93 -6t89 -12q47 -8 93 -18l108 462h152l-340 -1470h-148l39 182q-47 -57 -100 -102q-47 -39 -106.5 -69.5t-125.5 -30.5q-133 0 -198.5 77.5t-65.5 221.5zM332 281q0 -80 37 -124t116 -44q49 0 106.5 36.5 t106.5 83.5q57 53 113 121l121 527q-39 6 -80 14q-35 6 -80 11t-86 5q-57 0 -105.5 -28.5t-88 -77.5t-69.5 -113.5t-50.5 -134.5t-30.5 -141.5t-10 -134.5z" />
<glyph unicode="e" horiz-adv-x="987" d="M184 291q0 131 32 265t99.5 242.5t172 177t249.5 68.5q137 0 220 -58t83 -191q0 -96 -35.5 -160t-107.5 -100.5t-179.5 -52t-250.5 -15.5h-107q-10 -39 -15 -85t-5 -81q0 -92 54.5 -139t140.5 -47q57 0 116.5 6t108.5 16q57 8 112 23l-12 -121q-55 -18 -115 -31 q-53 -10 -117.5 -19t-133.5 -9q-147 0 -228.5 78.5t-81.5 232.5zM381 588h113q100 0 173.5 9t123 32.5t73 63.5t23.5 100q0 68 -40 95t-118 27q-139 0 -222 -90t-126 -237z" />
<glyph unicode="f" horiz-adv-x="651" d="M68 -455l313 1344h-117l33 135h113l22 88q25 102 54.5 175t70.5 118t95.5 65.5t127.5 20.5q29 0 59.5 -5t55.5 -9l57 -15l-30 -119q-25 2 -50 7q-23 4 -47 6t-49 2q-82 0 -122 -61.5t-70 -186.5l-21 -86h275l-33 -133h-270l-207 -891l-125 -455h-135z" />
<glyph unicode="g" horiz-adv-x="1007" d="M53 -205q0 55 25.5 101.5t65.5 84t87.5 67.5t92.5 52q-33 31 -33 88q0 35 16.5 70t38.5 64q25 35 57 67q-66 35 -103.5 92.5t-37.5 151.5q0 74 27.5 147.5t80 132t129 95t175.5 36.5q41 0 74.5 -5t62.5 -11q31 -8 59 -16l304 12l-31 -131h-182q14 -23 23 -57.5t9 -83.5 q0 -68 -26.5 -138.5t-81 -130t-135 -97.5t-187.5 -38h-23.5t-21.5 2t-22 4q-18 -25 -33 -47q-12 -20 -21.5 -43.5t-9.5 -44.5q0 -35 42 -51t147 -27q156 -16 232.5 -70.5t76.5 -174.5q0 -74 -35 -142.5t-100.5 -121t-160.5 -83t-216 -30.5q-164 0 -264.5 71.5t-100.5 204.5z M197 -174q0 -78 56 -127t173 -49q70 0 134.5 15.5t113.5 45t77.5 72.5t28.5 100q0 66 -46 92.5t-152 40.5q-29 4 -62 9.5t-61 9.5q-33 6 -66 10q-35 -18 -69.5 -41.5t-63.5 -52.5t-46 -60.5t-17 -64.5zM406 639q0 -72 38 -118t134 -46q70 0 122 27.5t84.5 67.5t49 87.5 t16.5 85.5q0 86 -42 129t-142 43q-63 0 -111.5 -26.5t-81.5 -67.5t-50 -90t-17 -92z" />
<glyph unicode="h" horiz-adv-x="1099" d="M166 0l340 1470h153l-145 -626q47 55 100 100q47 37 106.5 68.5t125.5 31.5q123 0 183.5 -70.5t60.5 -187.5q0 -66 -14.5 -140.5t-26.5 -129.5l-121 -516h-152l117 510q6 25 13 56.5t12.5 65.5t9.5 65.5t4 58.5q0 72 -35 112.5t-106 40.5q-51 0 -105.5 -36.5 t-101.5 -79.5q-53 -51 -109 -115l-156 -678h-153z" />
<glyph unicode="i" horiz-adv-x="458" d="M158 0l237 1024h152l-236 -1024h-153zM442 1237l43 184h154l-41 -184h-156z" />
<glyph unicode="j" horiz-adv-x="481" d="M-131 -358q92 47 145.5 79.5t84 68.5t48 84t35.5 126l238 1024h151l-235 -1024q-27 -115 -49.5 -183.5t-63.5 -116.5t-111.5 -87t-193.5 -94zM469 1233l41 184h154l-41 -184h-154z" />
<glyph unicode="k" horiz-adv-x="966" d="M184 0l338 1470h154l-199 -856l131 7l371 403h178l-432 -477l193 -547h-160l-174 489l-135 -4l-113 -485h-152z" />
<glyph unicode="l" horiz-adv-x="471" d="M166 0l340 1470h153l-340 -1470h-153z" />
<glyph unicode="m" horiz-adv-x="1681" d="M190 0l236 1024h149l-36 -178q45 55 98 98q47 37 107.5 68.5t127.5 31.5q76 0 121 -28.5t68 -63.5q27 -39 35 -90q51 51 106 90q47 35 108.5 63.5t127.5 28.5q123 0 181 -70.5t58 -187.5q0 -66 -14 -140.5t-27 -129.5l-118 -516h-154l119 510q6 25 13 56.5t12 64.5 t9.5 64.5t4.5 58.5q0 74 -34 114.5t-102 40.5q-47 0 -98 -29.5t-92 -64.5q-49 -41 -94 -92q-2 -29 -6 -61q-4 -29 -11.5 -67t-17.5 -79l-119 -516h-153l118 510q6 25 13.5 56.5t12.5 65.5t9 66.5t4 57.5q0 72 -33.5 112.5t-105.5 40.5q-51 0 -105.5 -35.5t-101.5 -78.5 q-53 -51 -106 -115l-158 -680h-152z" />
<glyph unicode="n" horiz-adv-x="1105" d="M180 0l238 1024h147l-37 -178q47 55 101 98q47 37 106.5 68.5t124.5 31.5q123 0 182.5 -70.5t59.5 -187.5q0 -66 -13.5 -138.5t-25.5 -127.5l-123 -520h-152l117 510q6 25 13.5 56.5t12.5 65.5t9 65.5t4 58.5q0 72 -33.5 112.5t-105.5 40.5q-51 0 -105.5 -35.5 t-101.5 -78.5q-53 -51 -106 -115l-158 -680h-154z" />
<glyph unicode="o" horiz-adv-x="1026" d="M188 315q0 143 38 274.5t105.5 233t163 161.5t210.5 60q172 0 264 -85t92 -263q0 -141 -36 -270t-103.5 -228.5t-163.5 -158.5t-219 -59q-172 0 -261.5 78.5t-89.5 256.5zM342 313q0 -98 48.5 -149t148.5 -51q84 0 151.5 49t115.5 131t74.5 187.5t26.5 217.5 q0 98 -49 155.5t-153 57.5q-82 0 -149 -50t-115 -133t-73.5 -191.5t-25.5 -223.5z" />
<glyph unicode="p" horiz-adv-x="1112" d="M104 -455l342 1479h150l-41 -182q47 55 100 100q47 39 105.5 70.5t124.5 31.5q137 0 201.5 -80.5t64.5 -220.5q0 -127 -34 -261t-98.5 -246.5t-159.5 -184t-218 -71.5q-47 0 -95 5t-89 13q-47 8 -92 20l-109 -473h-152zM395 143q39 -8 80 -16q35 -6 79 -10t87 -4 q86 0 152.5 63.5t111.5 157.5t67.5 203.5t22.5 199.5q0 86 -36.5 130t-116.5 44q-49 0 -106.5 -37.5t-106.5 -82.5q-57 -53 -113 -121z" />
<glyph unicode="q" horiz-adv-x="1050" d="M170 281q0 127 34 262t98.5 246.5t160.5 183t219 71.5q57 0 130 -8t138 -18q76 -10 154 -25l-330 -1435h-151l143 624q-47 -57 -100 -102q-47 -39 -106.5 -69.5t-125.5 -30.5q-135 0 -199.5 79.5t-64.5 221.5zM328 287q0 -84 34.5 -129t118.5 -45q49 0 105.5 36.5 t105.5 81.5q55 53 113 121l123 529q-41 6 -82 14q-35 6 -79 11t-87 5q-84 0 -149.5 -61.5t-110.5 -154.5t-68.5 -202.5t-23.5 -205.5z" />
<glyph unicode="r" horiz-adv-x="692" d="M170 0l238 1024h149l-33 -150q57 41 119 76q53 29 116.5 57.5t127.5 39.5l-41 -158q-49 -12 -110.5 -38t-114.5 -52q-63 -31 -127 -64l-170 -735h-154z" />
<glyph unicode="s" horiz-adv-x="950" d="M137 27l29 118l110 -16q47 -6 101.5 -11t101.5 -5q117 0 194 51t77 158q0 61 -45.5 83.5t-149.5 47.5q-66 16 -116 33.5t-83.5 42t-52 60.5t-18.5 87q0 82 30.5 150.5t85 116.5t128 74.5t159.5 26.5q61 0 121.5 -7t108.5 -15q55 -8 108 -21l-31 -118l-114 14 q-49 4 -105.5 9t-105.5 5q-109 0 -170.5 -59t-61.5 -139q0 -25 8.5 -43.5t30 -32.5t58 -26.5t92.5 -26.5q68 -16 121 -34t87.5 -43.5t53 -62t18.5 -92.5q0 -94 -34.5 -164.5t-95 -116.5t-142.5 -68.5t-174 -22.5q-59 0 -116.5 6t-104.5 16q-53 10 -103 25z" />
<glyph unicode="t" horiz-adv-x="706" d="M246 174q0 49 9 105.5t21 105.5l119 506h-133l33 133h133l72 303h153l-73 -303h286l-32 -133h-285l-121 -514q-10 -41 -16 -88t-6 -82q0 -43 23.5 -68.5t76.5 -25.5q20 0 47 1t51 5q29 2 60 6l-11 -117q-31 -8 -65 -14q-29 -6 -64 -10t-69 -4q-96 0 -152.5 51t-56.5 143z " />
<glyph unicode="u" horiz-adv-x="1087" d="M174 238q0 68 14.5 139.5t26.5 126.5l123 520h151l-116 -510q-6 -25 -13.5 -56.5t-12.5 -65.5t-9 -65.5t-4 -58.5q0 -72 32.5 -112.5t106.5 -40.5q51 0 105.5 35.5t101.5 78.5q53 51 106 115l158 680h154l-238 -1024h-147l37 178q-47 -57 -101 -100q-47 -37 -106.5 -67.5 t-124.5 -30.5q-123 0 -183.5 70.5t-60.5 187.5z" />
<glyph unicode="v" horiz-adv-x="937" d="M291 1024h151l17 -893h61l449 893h155l-518 -1024h-289z" />
<glyph unicode="w" horiz-adv-x="1472" d="M264 0l17 1024h153l-18 -891h37l421 871h179l8 -871h41l401 891h156l-465 -1024h-274l-5 805l-383 -805h-268z" />
<glyph unicode="x" horiz-adv-x="894" d="M57 0l416 512l-174 512h158l133 -408l323 408h164l-426 -526l180 -498h-159l-135 393l-314 -393h-166z" />
<glyph unicode="y" horiz-adv-x="937" d="M221 -453l232 453h-136l-26 1024h151l17 -893h61l449 893h155l-747 -1477h-156z" />
<glyph unicode="z" horiz-adv-x="931" d="M117 0l24 131l699 760h-518l32 133h697l-31 -131l-696 -760h522l-33 -133h-696z" />
<glyph unicode="{" horiz-adv-x="595" d="M152 567l30 138q70 18 114 39.5t70.5 49t40 63.5t23.5 83q6 27 14.5 69t15.5 85t15 79.5t14 53.5q25 82 63 139t91 95t125 57.5t164 23.5l-33 -156q-68 -4 -115 -18t-78.5 -41t-50 -66.5t-30.5 -93.5q-4 -16 -10.5 -51t-12.5 -73.5t-13 -72.5t-9 -48q-14 -66 -35 -111 t-49.5 -78t-68.5 -54.5t-95 -39.5q63 -27 96 -66.5t33 -117.5q0 -31 -15.5 -87.5t-34 -120t-34 -124t-15.5 -96.5q0 -70 45.5 -100.5t137.5 -30.5l-39 -156q-70 2 -126 14.5t-95 40t-60.5 73.5t-21.5 116q0 41 15 102t33.5 124.5t34 120t15.5 87.5q0 63 -36 95t-113 54z" />
<glyph unicode="|" horiz-adv-x="1085" d="M457 -455v1925h153v-1925h-153z" />
<glyph unicode="}" horiz-adv-x="595" d="M-47 -266l33 156q68 4 115 18t78.5 41t50 66.5t30.5 93.5q4 16 10.5 51t12.5 73.5t13 72.5t9 48q14 66 35 111t49.5 78t68.5 54.5t95 39.5q-63 27 -96 66.5t-33 117.5q0 31 15.5 87.5t34 120t34 124t15.5 96.5q0 70 -45.5 100.5t-137.5 30.5l39 156q70 -2 126 -14.5 t95 -40t60.5 -73.5t21.5 -116q0 -41 -15 -102t-33.5 -124.5t-34 -120t-15.5 -87.5q0 -63 36 -95t113 -54l-30 -138q-70 -18 -114 -39.5t-70.5 -49t-40 -63.5t-23.5 -83q-6 -27 -14.5 -69t-15.5 -85t-15 -79.5t-14 -53.5q-25 -82 -63 -139t-91 -95t-125 -57.5t-164 -23.5z " />
<glyph unicode="~" d="M125 557q37 31 78 53q35 20 78 38t84 18q43 0 98 -19.5t112.5 -43t109.5 -43t87 -19.5q29 0 64.5 14t68.5 33q37 20 76 47l20 -125q-37 -33 -73 -55q-35 -23 -76 -39.5t-82 -16.5q-43 0 -99.5 19.5t-114.5 44t-110.5 44t-83.5 19.5q-33 0 -69.5 -15t-69.5 -34 q-37 -23 -76 -47z" />
<glyph unicode="&#xa1;" horiz-adv-x="739" d="M184 -405l236 956h139l-217 -956h-158zM459 795l51 227h156l-52 -227h-155z" />
<glyph unicode="&#xa2;" horiz-adv-x="849" d="M170 305q0 41 5 92.5t20 110.5q55 217 170.5 325.5t275.5 118.5v-4q4 16 9 34.5t9 37.5q4 16 9 41q4 16 8 31.5t8 31.5q4 18 7 36t7 32h129q-4 -16 -8 -34.5t-8 -35.5q-4 -16 -8 -32.5t-8 -32.5q-6 -29 -12.5 -55.5t-14.5 -55.5q31 -4 63.5 -6t61.5 -6q33 -4 63 -8 q-2 -4 -2 -8.5t-2 -8.5q-4 -8 -5 -14t-5 -18v-7q-4 -10 -6 -19t-6 -20q-2 -8 -3 -13t-3 -11q-4 -12 -4 -25q-49 2 -97 6q-41 4 -82 6.5t-69 2.5q-141 0 -214 -67.5t-112 -221.5q-10 -45 -15 -82t-3 -66q4 -74 55 -102.5t166 -28.5q29 0 71 1t80 6q45 2 95 6 q-4 -12 -5.5 -18.5t-1.5 -10.5q-2 -4 -2 -7t-2 -7q0 -4 -1 -7.5t-1 -5.5q-4 -23 -9 -44t-9 -44l-70 -8q-29 -4 -63.5 -7t-65.5 -5v4q-6 -31 -13 -61.5t-15 -61.5t-14.5 -62.5t-14.5 -60.5h-129q2 4 3 10.5t3 10.5q2 10 4 22t4 23q4 16 8.5 32.5t8.5 32.5q4 18 8 34.5t8 33.5 q4 10 5 19t5 20q-123 8 -191.5 59t-74.5 172z" />
<glyph unicode="&#xa3;" horiz-adv-x="1030" d="M104 0l31 133h195l135 594h-154l33 135h152l24 105q25 102 53.5 181t71.5 133t106.5 82t157.5 28q41 0 89.5 -6.5t88.5 -12.5q49 -8 97 -16l-35 -119q-43 4 -84 8q-35 4 -78 6t-80 2q-59 0 -97 -22.5t-62.5 -62.5t-41 -95t-32.5 -123l-21 -88h398l-33 -135h-395 l-136 -594h283l156 35l-2 -131l-160 -37h-660z" />
<glyph unicode="&#xa4;" horiz-adv-x="1083" d="M86 170l207 205l106 -107l-204 -207zM86 862l109 109l204 -207l-106 -107zM170 516q0 72 27.5 139.5t81.5 122.5q55 53 122.5 80t139 27t139.5 -27t123 -80q53 -55 79.5 -122.5t26.5 -139.5t-26.5 -139.5t-79.5 -122.5q-55 -53 -123 -81t-139.5 -28t-139 28t-122.5 81 q-53 55 -81 122.5t-28 139.5zM315 516q0 -43 16.5 -85t49.5 -75t75 -49t85 -16t85 16.5t74 48.5q33 33 48.5 75t15.5 85t-15.5 85t-48.5 75t-74.5 48t-84.5 15t-85 -15t-75 -48t-49.5 -75t-16.5 -85zM682 268l106 107l207 -205l-108 -109zM682 764l205 207l108 -109 l-207 -205z" />
<glyph unicode="&#xa5;" horiz-adv-x="1050" d="M166 328l33 137h354l33 137l-8 33h-340l32 137h256l-233 582h168l231 -572l473 572h203l-489 -582h249l-30 -137h-328l-29 -35l-30 -135h348l-33 -137h-348l-76 -328h-156l76 328h-356z" />
<glyph unicode="&#xa6;" horiz-adv-x="1085" d="M457 319h153v-774h-153v774zM457 705v765h153v-765h-153z" />
<glyph unicode="&#xa7;" horiz-adv-x="1030" d="M98 -270l45 135q59 -8 117 -15q49 -6 101.5 -10t93.5 -4q68 0 121 22.5t88.5 57.5t54 77t18.5 81q0 33 -9 53t-35.5 35.5t-72 27t-114.5 27.5q-76 14 -126 35.5t-81 51.5t-44 67t-13 80q0 63 23.5 119.5t54 100.5t60.5 71.5t40 35.5q-25 29 -33 68t-8 88q0 68 28.5 138.5 t87 127.5t144.5 94t203 37q47 0 100 -6t100 -12q53 -8 107 -17l-37 -135q-59 6 -113 15q-47 4 -97 9t-85 5q-141 0 -211.5 -63.5t-70.5 -168.5q0 -43 18 -68.5t50 -40.5t74 -23.5t87 -16.5q76 -12 125 -35.5t78.5 -55.5t41 -68t11.5 -70q0 -53 -21.5 -108.5t-49 -101.5 t-54.5 -80t-37 -46q25 -33 30 -59.5t5 -61.5q0 -41 -18.5 -112.5t-68.5 -141.5t-141.5 -121t-234.5 -51q-47 0 -104.5 5t-108.5 11q-59 8 -119 17zM397 500q0 -59 39 -91t142 -49q55 -14 101 -26t81 -31q4 4 20.5 29.5t35 61.5t32.5 76t14 75q0 49 -41 81t-145 48 q-53 10 -103.5 24.5t-64.5 24.5q-4 -4 -21.5 -26.5t-37 -55.5t-36 -71t-16.5 -70z" />
<glyph unicode="&#xa8;" horiz-adv-x="1392" d="M500 1270l45 190h121l-45 -190h-121zM870 1270l41 190h125l-45 -190h-121z" />
<glyph unicode="&#xa9;" horiz-adv-x="1085" d="M4 889q0 119 40 220t112.5 177t171 119t215.5 43q119 0 219 -44t171 -120t110.5 -178t39.5 -217q0 -117 -39.5 -219.5t-110.5 -178t-171 -118.5t-219 -43q-117 0 -215.5 44t-170 118.5t-112.5 177t-41 219.5zM94 889q0 -96 34 -182t93.5 -149.5t141 -100.5t180.5 -37 q98 0 180 37t142.5 100.5t94 148.5t33.5 183q0 96 -33.5 182t-94 150.5t-143.5 101.5t-179 37t-179 -37t-142.5 -101.5t-93.5 -150.5t-34 -182zM311 891q0 160 51.5 239.5t190.5 79.5q33 0 60.5 -3t50.5 -7q25 -6 47 -10l-9 -109q-25 2 -47 6q-23 2 -47 4.5t-49 2.5 q-82 0 -103.5 -50.5t-21.5 -152.5t24.5 -155.5t100.5 -53.5q23 0 47.5 1t46.5 5q25 4 49 8l9 -106q-25 -6 -49 -12q-23 -4 -51.5 -8.5t-59.5 -4.5q-135 0 -187.5 79t-52.5 247z" />
<glyph unicode="&#xaa;" horiz-adv-x="1030" d="M455 893q0 12 2 25.5t6 29.5q41 164 209 176h24h13.5t13.5 2h14q12 2 25.5 3t28.5 4h27t30 4v-4q0 6 4 14q0 6 4 14q8 41 -2 63.5t-57 22.5q-25 0 -64 -2t-74 -4q-43 -4 -88 -6q2 12 4.5 25.5t4.5 25.5q0 4 1 7t1 5q2 4 2 7.5t2 7.5q0 14 4 26q49 4 94 11q39 4 79 7t68 3 q133 0 134 -127q0 -16 -3.5 -33.5t-7.5 -40.5v-4v-6q-4 -14 -8 -27.5t-8 -29.5t-6 -28.5t-6 -27.5q-4 -16 -8.5 -34.5t-8.5 -34.5q-4 -14 -6 -28.5t-6 -27.5q-2 -18 8 -30.5t41 -16.5q-4 -10 -7 -18t-5 -17q-2 -8 -6 -20q-2 -6 -2 -11t-4 -14q-2 -4 -3 -8t-4 -14 q-35 2 -65.5 11t-48.5 34v-2q-37 -14 -74 -23q-33 -8 -73 -14t-74 -6q-61 0 -95 34.5t-30 96.5zM567 946q-10 -41 3 -58.5t46 -17.5q23 0 53.5 4.5t57.5 8.5q31 6 64 14v-2q4 16 8 33.5t8 34.5q0 4 6 29.5t10 45.5q-8 -2 -22 -2q-6 0 -11.5 -1t-9.5 -1q-10 0 -26.5 -1 t-26.5 -1q-6 -2 -15.5 -2h-15.5q-4 0 -9 -1t-11 -1h-14q-76 -2 -95 -82z" />
<glyph unicode="&#xab;" horiz-adv-x="929" d="M146 469l28 78l439 291l-41 -140l-281 -188l187 -205l-39 -141zM533 469l28 78l439 291l-41 -140l-281 -188l187 -205l-39 -141z" />
<glyph unicode="&#xac;" d="M125 561v139h876v-460h-143v321h-733z" />
<glyph unicode="&#xad;" horiz-adv-x="856" d="M268 477l33 141h508l-35 -141h-506z" />
<glyph unicode="&#xae;" horiz-adv-x="1085" d="M4 889q0 119 40 220t112.5 177t171 119t215.5 43q119 0 219 -44t171 -120t110.5 -178t39.5 -217q0 -117 -39.5 -219.5t-110.5 -178t-171 -118.5t-219 -43q-117 0 -215.5 44t-170 118.5t-112.5 177t-41 219.5zM94 889q0 -96 34 -182t94.5 -149.5t142 -100.5t178.5 -37 q98 0 180 37t142.5 100.5t94 148.5t33.5 183q0 96 -33.5 182t-94 150.5t-143.5 101.5t-179 37t-179 -37t-142.5 -101.5t-93.5 -150.5t-34 -182zM319 578v620h226q111 0 171 -42t60 -152q0 -76 -21.5 -120t-80.5 -71l112 -235h-124l-105 219h-121v-219h-117zM436 893h121 q53 0 79 24.5t26 79.5t-31 80t-96 25h-99v-209z" />
<glyph unicode="&#xaf;" horiz-adv-x="899" d="M469 1313l29 117h563l-29 -117h-563z" />
<glyph unicode="&#xb0;" d="M272 1149q0 129 81 209t210 80t210 -80t81 -209q0 -131 -81 -210t-210 -79t-210 79t-81 210zM377 1149q0 -86 50 -138.5t136 -52.5t138.5 52.5t52.5 138.5t-52.5 138t-138.5 52t-136 -52t-50 -138z" />
<glyph unicode="&#xb1;" d="M102 78v139h922v-139h-922zM102 600v139h387v258h144v-258h391v-139h-391v-260h-144v260h-387z" />
<glyph unicode="&#xb2;" horiz-adv-x="542" d="M289 979l28 115l226 176q59 47 96 85t49 85q10 41 -13.5 57t-68.5 16q-23 0 -52.5 -3t-57.5 -7q-33 -6 -68 -10l25 121q39 6 75 12q33 4 70 8t72 4q106 0 144 -45t13 -141q-18 -72 -63 -124t-121 -107l-156 -123h261l-29 -119h-430z" />
<glyph unicode="&#xb3;" horiz-adv-x="542" d="M295 979l37 115q33 -4 67 -9q29 -4 65 -5t71 -1q53 0 81.5 22.5t38.5 61.5q12 49 -9 67.5t-64 18.5h-133l26 111h133q29 0 60.5 25.5t42.5 64.5q8 35 -9.5 51.5t-68.5 16.5q-33 0 -65.5 -2.5t-61.5 -6.5q-33 -4 -64 -6l21 115q37 4 74 10q33 4 68.5 7t70.5 3 q111 0 154.5 -41t21.5 -131q-10 -37 -27.5 -64.5t-37 -46t-36 -28.5t-22.5 -14q20 -8 36.5 -18.5t25 -28t8.5 -44t-8 -65.5q-27 -102 -96.5 -150.5t-174.5 -48.5q-39 0 -78 3.5t-71 7.5q-37 4 -76 10z" />
<glyph unicode="&#xb4;" horiz-adv-x="1118" d="M557 1339l467 193l16 -141l-233 -86q-43 -16 -85 -32t-75 -28t-53 -18l-21 -6z" />
<glyph unicode="&#xb6;" horiz-adv-x="1030" d="M254 965q0 82 34 164.5t93 149.5t143 109t187 42h637l-29 -132h-141l-308 -1298h-129l306 1298h-222l-307 -1298h-131l160 676q-80 0 -135.5 24.5t-91 64.5t-51 92t-15.5 108z" />
<glyph unicode="&#xb7;" horiz-adv-x="483" d="M234 502l53 227h156l-54 -227h-155z" />
<glyph unicode="&#xb8;" horiz-adv-x="1619" d="M639 -418l27 105q23 -2 45 -4q18 -2 39.5 -2h42.5q43 0 68.5 16t35.5 57q10 43 -12.5 54.5t-57.5 11.5h-79l45 190h79l-26 -102h10q39 0 75 -8.5t60.5 -27.5t34.5 -50t-2 -76q-23 -92 -83 -135t-138 -43q-70 0 -115 6q-27 4 -49 8z" />
<glyph unicode="&#xb9;" horiz-adv-x="542" d="M428 1475l244 143h123l-158 -639h-131l123 496l-164 -97z" />
<glyph unicode="&#xba;" horiz-adv-x="1030" d="M483 954q0 53 15 111q41 158 116.5 225.5t192.5 67.5q84 0 130 -35t54 -115q2 -10 3 -22t-1 -25q0 -23 -4 -46t-10 -52v2q-37 -158 -116 -230.5t-195 -72.5q-92 0 -140.5 47t-44.5 145zM592 977q-2 -55 22.5 -79t77.5 -24q72 0 114 42t66 149q8 27 10.5 48.5t2.5 37.5 q2 53 -23.5 73.5t-79.5 20.5q-72 0 -112.5 -39t-65.5 -141q-12 -53 -12 -88z" />
<glyph unicode="&#xbb;" horiz-adv-x="1009" d="M39 163l41 140l281 188l-187 205l39 141l293 -305l-28 -78zM495 163l41 140l281 188l-187 205l39 141l293 -305l-28 -78z" />
<glyph unicode="&#xbc;" horiz-adv-x="3282" d="M250 1077l493 277h136l-312 -1354h-157l270 1163l-389 -213zM1314 -53l875 1544l123 -53l-877 -1542zM2229 254l28 117l643 983h166l-653 -967h483l101 442h155l-100 -442h164l-33 -133h-162l-59 -254h-156l58 254h-635z" />
<glyph unicode="&#xbf;" horiz-adv-x="751" />
<glyph unicode="&#xc0;" horiz-adv-x="1175" d="M63 0l707 1417h305l31 -1417h-158l-12 360l-530 2l-183 -362h-160zM471 500h465l-18 778h-56zM772 1778l71 127l379 -193l-67 -113z" />
<glyph unicode="&#xc1;" horiz-adv-x="1175" d="M63 0l707 1417h305l31 -1417h-158l-12 360l-530 2l-183 -362h-160zM471 500h465l-18 778h-56zM758 1724l467 193l21 -145l-469 -173z" />
<glyph unicode="&#xc2;" horiz-adv-x="1175" d="M63 0l707 1417h305l31 -1417h-158l-12 360l-530 2l-183 -362h-160zM471 500h465l-18 778h-56zM629 1624l324 283h79l201 -283h-149l-117 162l-191 -162h-147z" />
<glyph unicode="&#xc3;" horiz-adv-x="1175" d="M63 0l707 1417h305l31 -1417h-158l-12 360l-530 2l-183 -362h-160zM471 500h465l-18 778h-56zM669 1774q39 35 78 61q33 23 71 42.5t67 19.5q37 0 78.5 -17.5t79.5 -39t72 -39t56 -17.5q16 0 43 14.5t56 32.5q33 20 69 47l6 -127q-37 -33 -73 -55q-31 -23 -67 -39 t-64 -16q-35 0 -74 17t-79 38.5t-75 39t-59 17.5q-16 0 -47 -16t-60 -37q-35 -23 -71 -53z" />
<glyph unicode="&#xc4;" horiz-adv-x="1175" d="M63 0l707 1417h305l31 -1417h-158l-12 360l-530 2l-183 -362h-160zM471 500h465l-18 778h-56zM723 1667l43 191h131l-47 -191h-127zM1110 1667l45 191h129l-47 -191h-127z" />
<glyph unicode="&#xc5;" horiz-adv-x="1175" d="M63 0l707 1417h305l31 -1417h-158l-12 360l-530 2l-183 -362h-160zM471 500h465l-18 778h-56zM739 1430q-7 38 7 87q27 104 99.5 155.5t168.5 51.5q90 0 142.5 -50.5t25.5 -156.5q-23 -96 -93.5 -151.5t-174.5 -53.5q-47 0 -85 14.5t-60.5 40t-29.5 63.5zM854 1517 q-10 -41 10.5 -69.5t73.5 -28.5t89 25.5t49 72.5q10 49 -14.5 74t-71.5 25q-53 0 -88.5 -26t-47.5 -73z" />
<glyph unicode="&#xc6;" horiz-adv-x="1175" d="M63 0l705 1417h1087l-32 -149h-649l-115 -473h532l-32 -150h-533l-117 -495h645l-32 -150h-795l82 360h-412q-4 -6 -29.5 -57t-57 -112.5t-59.5 -118t-36 -72.5h-152zM469 510h379l180 760h-182z" />
<glyph unicode="&#xc7;" horiz-adv-x="1044" d="M217 350q0 121 18.5 248t55.5 248t94 228.5t137 188t182.5 128t227.5 47.5q59 0 120.5 -7.5t110.5 -17.5q57 -10 109 -22l-37 -123q-45 6 -98 14q-45 6 -100.5 11t-114.5 5q-133 0 -234.5 -84t-170 -217t-103.5 -302t-35 -337q0 -109 60.5 -174t193.5 -65q59 0 120.5 5 t110.5 11q57 8 111 19l-19 -129q-55 -14 -112 -23q-49 -10 -110.5 -16t-121.5 -6q-199 0 -297 101t-98 269zM383 -418l27 105q23 -2 45 -4q18 -2 39.5 -2h42.5q43 0 68.5 16t35.5 57q10 43 -12.5 54.5t-57.5 11.5h-79l45 190h79l-26 -102h10q39 0 75 -8.5t60.5 -27.5 t34.5 -50t-2 -76q-23 -92 -83 -135t-138 -43q-70 0 -115 6q-27 4 -49 8z" />
<glyph unicode="&#xc8;" horiz-adv-x="1097" d="M186 0l328 1417h791l-33 -139h-635l-113 -487h520l-32 -140h-518l-117 -512h633l-33 -139h-791zM768 1778l71 127l379 -193l-67 -113z" />
<glyph unicode="&#xc9;" horiz-adv-x="1097" d="M186 0l328 1417h791l-33 -139h-635l-113 -487h520l-32 -140h-518l-117 -512h633l-33 -139h-791zM751 1724l467 193l21 -145l-469 -173z" />
<glyph unicode="&#xca;" horiz-adv-x="1097" d="M186 0l328 1417h791l-33 -139h-635l-113 -487h520l-32 -140h-518l-117 -512h633l-33 -139h-791zM664 1622l324 283h79l201 -283h-149l-117 162l-191 -162h-147z" />
<glyph unicode="&#xcb;" horiz-adv-x="1097" d="M186 0l328 1417h791l-33 -139h-635l-113 -487h520l-32 -140h-518l-117 -512h633l-33 -139h-791zM715 1667l43 191h131l-47 -191h-127zM1102 1667l45 191h129l-47 -191h-127z" />
<glyph unicode="&#xcc;" horiz-adv-x="481" d="M164 0l328 1417h155l-325 -1417h-158zM432 1778l71 127l379 -193l-67 -113z" />
<glyph unicode="&#xcd;" horiz-adv-x="481" d="M164 0l328 1417h155l-325 -1417h-158zM416 1724l467 193l21 -145l-469 -173z" />
<glyph unicode="&#xce;" horiz-adv-x="481" d="M164 0l328 1417h155l-325 -1417h-158zM328 1622l324 283h79l201 -283h-149l-117 162l-191 -162h-147z" />
<glyph unicode="&#xcf;" horiz-adv-x="481" d="M164 0l328 1417h155l-325 -1417h-158zM379 1677l43 191h131l-47 -191h-127zM766 1677l45 191h129l-47 -191h-127z" />
<glyph unicode="&#xd0;" horiz-adv-x="1249" d="M184 4l332 1426h463q170 0 271.5 -91.5t101.5 -289.5q0 -98 -16.5 -214t-51.5 -232t-89 -224.5t-132 -191.5t-180.5 -133t-231.5 -50h-467zM193 633q4 16 6 29.5t6 29.5q0 4 4 21q4 20 8 39.5t8 38.5h588q-6 -23 -10 -41.5t-8 -36.5q-4 -20 -9.5 -41t-9.5 -39h-583z M365 158h315q92 0 165 46t130 119.5t97 167t66.5 187.5t39 180.5t12.5 147.5q0 123 -55.5 196.5t-188.5 73.5h-315z" />
<glyph unicode="&#xd1;" horiz-adv-x="1347" d="M184 0l332 1417h277q4 -25 17 -109.5t33.5 -201.5t43 -254t45 -268t42 -244t32.5 -178h36l299 1255h150l-334 -1417h-270q-14 82 -40 233.5t-57.5 330.5t-63.5 364.5t-58 335.5h-39l-297 -1264h-148zM751 1770q39 35 78 61q33 23 71 42.5t67 19.5q37 0 78.5 -17.5 t79.5 -39t72 -39t56 -17.5q16 0 43 14.5t56 32.5q33 20 69 47l6 -127q-37 -33 -73 -55q-31 -23 -67 -39t-64 -16q-35 0 -74 17t-79 38.5t-75 39t-59 17.5q-16 0 -47 -16t-60 -37q-35 -23 -71 -53z" />
<glyph unicode="&#xd2;" horiz-adv-x="1267" d="M225 406q0 186 47 370.5t137.5 331.5t221.5 238.5t299 91.5q213 0 326.5 -101.5t113.5 -324.5q0 -186 -45 -370.5t-134 -332t-220 -238.5t-305 -91q-111 0 -194 23.5t-137 74.5t-82 132t-28 196zM387 416q0 -82 15.5 -138.5t50 -92t90 -51t137.5 -15.5q92 0 167 41 t133 108.5t101 157.5t71 188.5t41 198.5t13 188q0 154 -68.5 225.5t-222.5 71.5q-88 0 -161.5 -40.5t-132 -110.5t-102.5 -160t-73.5 -188.5t-44 -197.5t-14.5 -185zM813 1778l71 127l379 -193l-67 -113z" />
<glyph unicode="&#xd3;" horiz-adv-x="1267" d="M225 406q0 186 47 370.5t137.5 331.5t221.5 238.5t299 91.5q213 0 326.5 -101.5t113.5 -324.5q0 -186 -45 -370.5t-134 -332t-220 -238.5t-305 -91q-111 0 -194 23.5t-137 74.5t-82 132t-28 196zM387 416q0 -82 15.5 -138.5t50 -92t90 -51t137.5 -15.5q92 0 167 41 t133 108.5t101 157.5t71 188.5t41 198.5t13 188q0 154 -68.5 225.5t-222.5 71.5q-88 0 -161.5 -40.5t-132 -110.5t-102.5 -160t-73.5 -188.5t-44 -197.5t-14.5 -185zM799 1724l467 193l21 -145l-469 -173z" />
<glyph unicode="&#xd4;" horiz-adv-x="1267" d="M225 406q0 186 47 370.5t137.5 331.5t221.5 238.5t299 91.5q213 0 326.5 -101.5t113.5 -324.5q0 -186 -45 -370.5t-134 -332t-220 -238.5t-305 -91q-111 0 -194 23.5t-137 74.5t-82 132t-28 196zM387 416q0 -82 15.5 -138.5t50 -92t90 -51t137.5 -15.5q92 0 167 41 t133 108.5t101 157.5t71 188.5t41 198.5t13 188q0 154 -68.5 225.5t-222.5 71.5q-88 0 -161.5 -40.5t-132 -110.5t-102.5 -160t-73.5 -188.5t-44 -197.5t-14.5 -185zM711 1624l324 283h79l201 -283h-149l-117 162l-191 -162h-147z" />
<glyph unicode="&#xd5;" horiz-adv-x="1267" d="M225 406q0 186 47 370.5t137.5 331.5t221.5 238.5t299 91.5q213 0 326.5 -101.5t113.5 -324.5q0 -186 -45 -370.5t-134 -332t-220 -238.5t-305 -91q-111 0 -194 23.5t-137 74.5t-82 132t-28 196zM387 416q0 -82 15.5 -138.5t50 -92t90 -51t137.5 -15.5q92 0 167 41 t133 108.5t101 157.5t71 188.5t41 198.5t13 188q0 154 -68.5 225.5t-222.5 71.5q-88 0 -161.5 -40.5t-132 -110.5t-102.5 -160t-73.5 -188.5t-44 -197.5t-14.5 -185zM708 1770q39 35 78 61q33 23 71 42.5t67 19.5q37 0 78.5 -17.5t79.5 -39t72 -39t56 -17.5q16 0 43 14.5 t56 32.5q33 20 69 47l6 -127q-37 -33 -73 -55q-31 -23 -67 -39t-64 -16q-35 0 -74 17t-79 38.5t-75 39t-59 17.5q-16 0 -47 -16t-60 -37q-35 -23 -71 -53z" />
<glyph unicode="&#xd6;" horiz-adv-x="1267" d="M225 406q0 186 47 370.5t137.5 331.5t221.5 238.5t299 91.5q213 0 326.5 -101.5t113.5 -324.5q0 -186 -45 -370.5t-134 -332t-220 -238.5t-305 -91q-111 0 -194 23.5t-137 74.5t-82 132t-28 196zM387 416q0 -82 15.5 -138.5t50 -92t90 -51t137.5 -15.5q92 0 167 41 t133 108.5t101 157.5t71 188.5t41 198.5t13 188q0 154 -68.5 225.5t-222.5 71.5q-88 0 -161.5 -40.5t-132 -110.5t-102.5 -160t-73.5 -188.5t-44 -197.5t-14.5 -185zM762 1667l43 191h131l-47 -191h-127zM1149 1667l45 191h129l-47 -191h-127z" />
<glyph unicode="&#xd7;" d="M135 184l332 330l-332 328l101 98l327 -332l330 334l98 -98l-334 -330l334 -330l-98 -98l-330 332l-330 -332z" />
<glyph unicode="&#xd8;" horiz-adv-x="1275" d="M133 -182q279 412 524 770q104 154 211 310.5t202 296.5t172 255t124 182l96 -43l-1241 -1822zM225 406q0 186 47 370.5t137.5 331.5t221.5 238.5t299 91.5q213 0 326.5 -101.5t113.5 -324.5q0 -186 -45 -370.5t-134 -332t-220 -238.5t-305 -91q-111 0 -194 23.5 t-137 74.5t-82 132t-28 196zM387 416q0 -82 15.5 -138.5t50 -92t90 -51t137.5 -15.5q92 0 167 41t133 108.5t101 157.5t71 188.5t41 198.5t13 188q0 154 -68.5 225.5t-222.5 71.5q-88 0 -161.5 -40.5t-132 -110.5t-102.5 -160t-73.5 -188.5t-44 -197.5t-14.5 -185z" />
<glyph unicode="&#xd9;" horiz-adv-x="1253" d="M252 274q0 41 6 91.5t16 93.5l222 958h157l-227 -985q-6 -29 -11 -65.5t-5 -71.5q0 -98 69.5 -137t190.5 -39q84 0 144 19.5t103.5 58.5t70 98t44.5 137l228 985h155l-225 -985q-27 -115 -69 -198.5t-106.5 -141t-152.5 -85t-205 -27.5q-92 0 -166.5 17t-128 54t-82 92.5 t-28.5 130.5zM809 1778l71 127l379 -193l-67 -113z" />
<glyph unicode="&#xda;" horiz-adv-x="1253" d="M252 274q0 41 6 91.5t16 93.5l222 958h157l-227 -985q-6 -29 -11 -65.5t-5 -71.5q0 -98 69.5 -137t190.5 -39q84 0 144 19.5t103.5 58.5t70 98t44.5 137l228 985h155l-225 -985q-27 -115 -69 -198.5t-106.5 -141t-152.5 -85t-205 -27.5q-92 0 -166.5 17t-128 54t-82 92.5 t-28.5 130.5zM794 1724l467 193l21 -145l-469 -173z" />
<glyph unicode="&#xdb;" horiz-adv-x="1253" d="M252 274q0 41 6 91.5t16 93.5l222 958h157l-227 -985q-6 -29 -11 -65.5t-5 -71.5q0 -98 69.5 -137t190.5 -39q84 0 144 19.5t103.5 58.5t70 98t44.5 137l228 985h155l-225 -985q-27 -115 -69 -198.5t-106.5 -141t-152.5 -85t-205 -27.5q-92 0 -166.5 17t-128 54t-82 92.5 t-28.5 130.5zM707 1620l324 283h79l201 -283h-149l-117 162l-191 -162h-147z" />
<glyph unicode="&#xdc;" horiz-adv-x="1253" d="M252 274q0 41 6 91.5t16 93.5l222 958h157l-227 -985q-6 -29 -11 -65.5t-5 -71.5q0 -98 69.5 -137t190.5 -39q84 0 144 19.5t103.5 58.5t70 98t44.5 137l228 985h155l-225 -985q-27 -115 -69 -198.5t-106.5 -141t-152.5 -85t-205 -27.5q-92 0 -166.5 17t-128 54t-82 92.5 t-28.5 130.5zM758 1677l43 191h131l-47 -191h-127zM1145 1677l45 191h129l-47 -191h-127z" />
<glyph unicode="&#xdd;" horiz-adv-x="1075" d="M389 1417h160l168 -637l471 637h172l-596 -807l-146 -610h-155l141 618zM704 1724l467 193l21 -145l-469 -173z" />
<glyph unicode="&#xde;" horiz-adv-x="1177" d="M184 0q23 96 44.5 192.5t43.5 194.5l40 172t42 172q39 166 82 347.5t82 346.5h150q-4 -16 -8.5 -34.5t-8.5 -34.5t-7 -30.5t-7 -33.5q-4 -14 -6 -25.5t-6 -23.5q-4 -10 -6.5 -21.5t-6.5 -23.5h322q166 0 248 -70.5t90 -199.5q2 -12 2 -24.5v-24.5q-2 -59 -23 -144 q-27 -109 -75 -197.5t-115.5 -154.5t-155.5 -101.5t-194 -35.5h-322v4q-6 -20 -10 -37.5t-8 -34.5q-4 -10 -7.5 -28.5t-7.5 -36.5q-4 -16 -7 -28.5t-5 -27.5q-4 -16 -6 -29.5t-6 -27.5h-148zM426 406h319q74 0 131.5 24.5t101.5 68.5t74.5 104.5t47.5 131.5q18 70 14 133 q-4 82 -56 126t-159 44h-324v4q-18 -80 -36.5 -160.5t-36.5 -160.5q-12 -47 -23.5 -92t-21.5 -92q-10 -35 -16.5 -66t-14.5 -65z" />
<glyph unicode="&#xdf;" horiz-adv-x="1177" d="M61 -455l361 1538q27 115 66.5 193t94 126t127 68.5t167.5 20.5q172 0 253.5 -64.5t81.5 -181.5q0 -121 -50 -192.5t-146 -118.5q-92 -43 -131 -70.5t-39 -68.5q0 -18 5 -34t18.5 -31t38 -32.5t65.5 -42.5q49 -31 84 -55.5t56.5 -52t31.5 -63t10 -87.5 q0 -193 -115.5 -305t-330.5 -112q-45 0 -90.5 5t-81.5 13q-43 8 -86 20l28 121q39 -8 78 -14q35 -4 73 -8t70 -4q147 0 223 74.5t76 193.5q0 29 -6 50.5t-22.5 42t-46 42t-78.5 49.5q-90 53 -123 97.5t-33 105.5q0 45 11.5 79t37 62.5t65.5 54t95 54.5q86 45 122 90t36 119 q0 66 -44 98.5t-149 32.5q-66 0 -115 -16.5t-83.5 -51.5t-59 -90t-43.5 -135l-356 -1520h-146z" />
<glyph unicode="&#xe0;" horiz-adv-x="1036" d="M172 285q0 80 14.5 167t43 172t71.5 160.5t100.5 134t129 92t157.5 33.5q47 0 120 -8t138 -18q78 -10 162 -25l-156 -665q-10 -49 -20 -105.5t-19 -105.5q-8 -57 -18 -113l-150 -6q6 51 15 94q6 37 12 73t10 52q-49 -66 -104 -119q-47 -45 -109.5 -81.5t-132.5 -36.5 q-139 0 -201.5 82.5t-62.5 222.5zM330 285q0 -78 33.5 -125t117.5 -47q51 0 109.5 42t109 92t82.5 92l31 42l119 502q-41 6 -84 14q-37 4 -80 9t-78 5q-90 0 -156.5 -62.5t-112.5 -155.5t-68.5 -203.5t-22.5 -204.5zM589 1399l74 119l379 -191l-63 -100z" />
<glyph unicode="&#xe1;" horiz-adv-x="1036" d="M172 285q0 80 14.5 167t43 172t71.5 160.5t100.5 134t129 92t157.5 33.5q47 0 120 -8t138 -18q78 -10 162 -25l-156 -665q-10 -49 -20 -105.5t-19 -105.5q-8 -57 -18 -113l-150 -6q6 51 15 94q6 37 12 73t10 52q-49 -66 -104 -119q-47 -45 -109.5 -81.5t-132.5 -36.5 q-139 0 -201.5 82.5t-62.5 222.5zM330 285q0 -78 33.5 -125t117.5 -47q51 0 109.5 42t109 92t82.5 92l31 42l119 502q-41 6 -84 14q-37 4 -80 9t-78 5q-90 0 -156.5 -62.5t-112.5 -155.5t-68.5 -203.5t-22.5 -204.5zM580 1339l467 193l16 -141l-233 -86q-43 -16 -85 -32 t-75 -28t-53 -18l-21 -6z" />
<glyph unicode="&#xe2;" horiz-adv-x="1036" d="M172 285q0 80 14.5 167t43 172t71.5 160.5t100.5 134t129 92t157.5 33.5q47 0 120 -8t138 -18q78 -10 162 -25l-156 -665q-10 -49 -20 -105.5t-19 -105.5q-8 -57 -18 -113l-150 -6q6 51 15 94q6 37 12 73t10 52q-49 -66 -104 -119q-47 -45 -109.5 -81.5t-132.5 -36.5 q-139 0 -201.5 82.5t-62.5 222.5zM330 285q0 -78 33.5 -125t117.5 -47q51 0 109.5 42t109 92t82.5 92l31 42l119 502q-41 6 -84 14q-37 4 -80 9t-78 5q-90 0 -156.5 -62.5t-112.5 -155.5t-68.5 -203.5t-22.5 -204.5zM500 1202l317 309h74l178 -309h-143q-2 2 -15.5 24.5 t-30 51.5t-32 59.5t-21.5 46.5l-184 -182h-143z" />
<glyph unicode="&#xe3;" horiz-adv-x="1036" d="M172 285q0 80 14.5 167t43 172t71.5 160.5t100.5 134t129 92t157.5 33.5q47 0 120 -8t138 -18q78 -10 162 -25l-156 -665q-10 -49 -20 -105.5t-19 -105.5q-8 -57 -18 -113l-150 -6q6 51 15 94q6 37 12 73t10 52q-49 -66 -104 -119q-47 -45 -109.5 -81.5t-132.5 -36.5 q-139 0 -201.5 82.5t-62.5 222.5zM330 285q0 -78 33.5 -125t117.5 -47q51 0 109.5 42t109 92t82.5 92l31 42l119 502q-41 6 -84 14q-37 4 -80 9t-78 5q-90 0 -156.5 -62.5t-112.5 -155.5t-68.5 -203.5t-22.5 -204.5zM508 1382q37 31 73 54q31 20 66 37.5t63 17.5 q33 0 71 -15.5t73.5 -34t66.5 -33.5t51 -15q14 0 41 11t52 28q29 18 61 41l6 -121q-33 -27 -67 -49q-29 -18 -63 -34t-62 -16q-31 0 -68 15.5t-72.5 35t-67.5 35t-55 15.5q-18 0 -45.5 -15.5t-54.5 -31.5q-31 -23 -63 -47z" />
<glyph unicode="&#xe4;" horiz-adv-x="1036" d="M172 285q0 80 14.5 167t43 172t71.5 160.5t100.5 134t129 92t157.5 33.5q47 0 120 -8t138 -18q78 -10 162 -25l-156 -665q-10 -49 -20 -105.5t-19 -105.5q-8 -57 -18 -113l-150 -6q6 51 15 94q6 37 12 73t10 52q-49 -66 -104 -119q-47 -45 -109.5 -81.5t-132.5 -36.5 q-139 0 -201.5 82.5t-62.5 222.5zM330 285q0 -78 33.5 -125t117.5 -47q51 0 109.5 42t109 92t82.5 92l31 42l119 502q-41 6 -84 14q-37 4 -80 9t-78 5q-90 0 -156.5 -62.5t-112.5 -155.5t-68.5 -203.5t-22.5 -204.5zM551 1270l45 190h121l-45 -190h-121zM921 1270l41 190 h125l-45 -190h-121z" />
<glyph unicode="&#xe5;" horiz-adv-x="1036" d="M172 285q0 80 14.5 167t43 172t71.5 160.5t100.5 134t129 92t157.5 33.5q47 0 120 -8t138 -18q78 -10 162 -25l-156 -665q-10 -49 -20 -105.5t-19 -105.5q-8 -57 -18 -113l-150 -6q6 51 15 94q6 37 12 73t10 52q-49 -66 -104 -119q-47 -45 -109.5 -81.5t-132.5 -36.5 q-139 0 -201.5 82.5t-62.5 222.5zM330 285q0 -78 33.5 -125t117.5 -47q51 0 109.5 42t109 92t82.5 92l31 42l119 502q-41 6 -84 14q-37 4 -80 9t-78 5q-90 0 -156.5 -62.5t-112.5 -155.5t-68.5 -203.5t-22.5 -204.5zM657 1358q8 39 29.5 76t53.5 63.5t71 43t82 16.5 q88 0 121.5 -57.5t13.5 -143.5q-23 -92 -86.5 -145.5t-149.5 -53.5q-92 0 -122.5 57.5t-12.5 143.5zM747 1358q-10 -37 10.5 -70t61.5 -33t74.5 30t44.5 71q10 37 -9.5 68.5t-60.5 31.5q-43 0 -77 -28.5t-44 -69.5z" />
<glyph unicode="&#xe6;" horiz-adv-x="1611" d="M166 168q-4 59 14 127q20 86 55 141.5t85.5 90t119 52t154.5 27.5q20 2 39.5 3t42.5 5q18 2 41.5 3t44.5 6h6q10 0 18.5 1t18.5 1q10 2 21.5 2t21.5 2v-4q4 10 6 21l4 22v6q2 10 4 19t6 20v-2q8 39 9 77q-2 106 -129 107q-53 0 -117 -4t-121 -8q-68 -6 -133 -11 q4 16 6 35t6 35q4 20 4 31q4 10 5 20.5t3 20.5q68 6 136 14q59 6 124.5 11t122.5 5q195 0 226 -151q72 72 158.5 111.5t179.5 39.5q289 0 294 -276q0 -43 -5 -94t-21 -111q0 -4 -2 -6q-2 -10 -10 -31q-4 -10 -6.5 -20t-4.5 -17v-4q-4 -4 -4 -10q-4 -4 -4 -10q-4 -12 -4 -21 h-631v5q-10 -45 -15 -86t-5 -76q4 -80 49 -122t143 -42q53 0 114.5 2t115.5 6q63 4 127 10q-6 -10 -6 -18q-2 -2 -3 -8q0 -6 -4 -19q-4 -23 -8 -42t-8 -42q-59 -8 -123 -16q-53 -6 -119.5 -11t-126.5 -5q-197 0 -262 110q-4 -4 -10 -6t-10 -4t-9.5 -4t-9.5 -4 q-16 -6 -30 -11q-2 -2 -7 -2q-12 -6 -45.5 -19t-83 -26.5t-111 -23.5t-128.5 -10q-94 0 -148.5 49t-60.5 139zM319 219q7 -102 105 -102q51 0 108.5 10t108.5 22.5t88 24.5t47 16v-2q-4 35 0 80q0 4 1 7.5t1 7.5q6 94 37 217q-20 -2 -41.5 -3t-42.5 -5q-14 0 -27.5 -1.5 t-25.5 -3.5q-23 0 -33 -2q-14 -2 -29.5 -4t-29.5 -2q-14 -2 -27.5 -2t-26.5 -2q-164 -16 -204 -176q-4 -23 -7.5 -43t-1.5 -37zM979 573h494v-4q12 53 18 96.5t4 79.5q-4 84 -48 122t-134 38q-125 0 -209 -78.5t-125 -253.5z" />
<glyph unicode="&#xe7;" horiz-adv-x="849" d="M180 291q0 147 33 283.5t100.5 241t168 166.5t235.5 62q45 0 90 -6t82 -14q43 -8 84 -18l-39 -119l-78 12q-35 4 -73 8t-70 4q-98 0 -169 -52t-117 -136t-68.5 -190.5t-22.5 -213.5q0 -98 49 -152t162 -54q31 0 70.5 4t74.5 10q41 8 84 16l-8 -120q-43 -14 -88 -23 q-39 -8 -87 -14t-95 -6q-158 0 -238 82.5t-80 228.5zM283 -418l27 105q23 -2 45 -4q18 -2 39.5 -2h42.5q43 0 68.5 16t35.5 57q10 43 -12.5 54.5t-57.5 11.5h-79l45 190h79l-26 -102h10q39 0 75 -8.5t60.5 -27.5t34.5 -50t-2 -76q-23 -92 -83 -135t-138 -43q-70 0 -115 6 q-27 4 -49 8z" />
<glyph unicode="&#xe8;" horiz-adv-x="987" d="M184 291q0 131 32 265t99.5 242.5t172 177t249.5 68.5q137 0 220 -58t83 -191q0 -96 -35.5 -160t-107.5 -100.5t-179.5 -52t-250.5 -15.5h-107q-10 -39 -15 -85t-5 -81q0 -92 54.5 -139t140.5 -47q57 0 116.5 6t108.5 16q57 8 112 23l-12 -121q-55 -18 -115 -31 q-53 -10 -117.5 -19t-133.5 -9q-147 0 -228.5 78.5t-81.5 232.5zM381 588h113q100 0 173.5 9t123 32.5t73 63.5t23.5 100q0 68 -40 95t-118 27q-139 0 -222 -90t-126 -237zM575 1399l74 119l379 -191l-63 -100z" />
<glyph unicode="&#xe9;" horiz-adv-x="987" d="M184 291q0 131 32 265t99.5 242.5t172 177t249.5 68.5q137 0 220 -58t83 -191q0 -96 -35.5 -160t-107.5 -100.5t-179.5 -52t-250.5 -15.5h-107q-10 -39 -15 -85t-5 -81q0 -92 54.5 -139t140.5 -47q57 0 116.5 6t108.5 16q57 8 112 23l-12 -121q-55 -18 -115 -31 q-53 -10 -117.5 -19t-133.5 -9q-147 0 -228.5 78.5t-81.5 232.5zM381 588h113q100 0 173.5 9t123 32.5t73 63.5t23.5 100q0 68 -40 95t-118 27q-139 0 -222 -90t-126 -237zM563 1339l467 193l16 -141l-233 -86q-43 -16 -85 -32t-75 -28t-53 -18l-21 -6z" />
<glyph unicode="&#xea;" horiz-adv-x="987" d="M184 291q0 131 32 265t99.5 242.5t172 177t249.5 68.5q137 0 220 -58t83 -191q0 -96 -35.5 -160t-107.5 -100.5t-179.5 -52t-250.5 -15.5h-107q-10 -39 -15 -85t-5 -81q0 -92 54.5 -139t140.5 -47q57 0 116.5 6t108.5 16q57 8 112 23l-12 -121q-55 -18 -115 -31 q-53 -10 -117.5 -19t-133.5 -9q-147 0 -228.5 78.5t-81.5 232.5zM381 588h113q100 0 173.5 9t123 32.5t73 63.5t23.5 100q0 68 -40 95t-118 27q-139 0 -222 -90t-126 -237zM482 1202l317 309h74l178 -309h-143q-2 2 -15.5 24.5t-30 51.5t-32 59.5t-21.5 46.5l-184 -182h-143 z" />
<glyph unicode="&#xeb;" horiz-adv-x="987" d="M184 291q0 131 32 265t99.5 242.5t172 177t249.5 68.5q137 0 220 -58t83 -191q0 -96 -35.5 -160t-107.5 -100.5t-179.5 -52t-250.5 -15.5h-107q-10 -39 -15 -85t-5 -81q0 -92 54.5 -139t140.5 -47q57 0 116.5 6t108.5 16q57 8 112 23l-12 -121q-55 -18 -115 -31 q-53 -10 -117.5 -19t-133.5 -9q-147 0 -228.5 78.5t-81.5 232.5zM381 588h113q100 0 173.5 9t123 32.5t73 63.5t23.5 100q0 68 -40 95t-118 27q-139 0 -222 -90t-126 -237zM535 1270l45 190h121l-45 -190h-121zM905 1270l41 190h125l-45 -190h-121z" />
<glyph unicode="&#xec;" horiz-adv-x="514" d="M184 0l240 1024h139l-239 -1024h-140zM274 1399l74 119l379 -191l-63 -100z" />
<glyph unicode="&#xed;" horiz-adv-x="507" d="M184 0l240 1024h139l-239 -1024h-140zM379 1339l467 193l16 -141l-233 -86q-43 -16 -85 -32t-75 -28t-53 -18l-21 -6z" />
<glyph unicode="&#xee;" horiz-adv-x="514" d="M184 0l240 1024h139l-239 -1024h-140zM256 1202l317 309h74l178 -309h-143q-2 2 -15.5 24.5t-30 51.5t-32 59.5t-21.5 46.5l-184 -182h-143z" />
<glyph unicode="&#xef;" horiz-adv-x="514" d="M184 0l240 1024h139l-239 -1024h-140zM312 1270l45 190h121l-45 -190h-121zM682 1270l41 190h125l-45 -190h-121z" />
<glyph unicode="&#xf0;" horiz-adv-x="1030" d="M168 346q10 123 54 221.5t114 168t160 108.5t192 39q53 0 106.5 -11.5t96.5 -25.5q51 -16 96 -35q2 14 4 31q2 14 4 29.5t2 31.5q0 74 -25.5 137.5t-85 118.5t-154.5 100.5t-234 79.5l61 138q352 -68 493.5 -257.5t71.5 -488.5q-49 -197 -108.5 -339t-134 -233t-169 -134 t-210.5 -43q-98 -2 -167 29.5t-109 82.5t-54 118t-4 134zM326 362q-4 -45 5 -85.5t33.5 -72.5t66.5 -50.5t106 -20.5q78 0 141 39t115.5 108.5t92.5 168t70 215.5q-4 2 -30.5 13t-67.5 24.5t-92 24.5t-102 11q-66 0 -126.5 -29.5t-106.5 -79.5t-74.5 -119t-30.5 -147z M508 1159l559 359l53 -95l-555 -358z" />
<glyph unicode="&#xf1;" horiz-adv-x="1116" d="M188 0l238 1024h147l-37 -178q47 55 101 98q47 37 106.5 68.5t124.5 31.5q123 0 182.5 -70.5t59.5 -187.5q0 -66 -13.5 -138.5t-25.5 -127.5l-123 -520h-152l117 510q6 25 13.5 56.5t12.5 65.5t9 65.5t4 58.5q0 72 -33.5 112.5t-105.5 40.5q-51 0 -105.5 -35.5 t-101.5 -78.5q-53 -51 -106 -115l-158 -680h-154zM576 1382q37 31 73 54q31 20 66 37.5t63 17.5q33 0 71 -15.5t73.5 -34t66.5 -33.5t51 -15q14 0 41 11t52 28q29 18 61 41l6 -121q-33 -27 -67 -49q-29 -18 -63 -34t-62 -16q-31 0 -68 15.5t-72.5 35t-67.5 35t-55 15.5 q-18 0 -45.5 -15.5t-54.5 -31.5q-31 -23 -63 -47z" />
<glyph unicode="&#xf2;" horiz-adv-x="1038" d="M188 315q0 143 38 274.5t105.5 233t163 161.5t210.5 60q172 0 264 -85t92 -263q0 -141 -36 -270t-103.5 -228.5t-163.5 -158.5t-219 -59q-172 0 -261.5 78.5t-89.5 256.5zM342 313q0 -98 48.5 -149t148.5 -51q84 0 151.5 49t115.5 131t74.5 187.5t26.5 217.5 q0 98 -49 155.5t-153 57.5q-82 0 -149 -50t-115 -133t-73.5 -191.5t-25.5 -223.5zM602 1399l74 119l379 -191l-63 -100z" />
<glyph unicode="&#xf3;" horiz-adv-x="1038" d="M188 315q0 143 38 274.5t105.5 233t163 161.5t210.5 60q172 0 264 -85t92 -263q0 -141 -36 -270t-103.5 -228.5t-163.5 -158.5t-219 -59q-172 0 -261.5 78.5t-89.5 256.5zM342 313q0 -98 48.5 -149t148.5 -51q84 0 151.5 49t115.5 131t74.5 187.5t26.5 217.5 q0 98 -49 155.5t-153 57.5q-82 0 -149 -50t-115 -133t-73.5 -191.5t-25.5 -223.5zM592 1339l467 193l16 -141l-233 -86q-43 -16 -85 -32t-75 -28t-53 -18l-21 -6z" />
<glyph unicode="&#xf4;" horiz-adv-x="1038" d="M188 315q0 143 38 274.5t105.5 233t163 161.5t210.5 60q172 0 264 -85t92 -263q0 -141 -36 -270t-103.5 -228.5t-163.5 -158.5t-219 -59q-172 0 -261.5 78.5t-89.5 256.5zM342 313q0 -98 48.5 -149t148.5 -51q84 0 151.5 49t115.5 131t74.5 187.5t26.5 217.5 q0 98 -49 155.5t-153 57.5q-82 0 -149 -50t-115 -133t-73.5 -191.5t-25.5 -223.5zM510 1202l317 309h74l178 -309h-143q-2 2 -15.5 24.5t-30 51.5t-32 59.5t-21.5 46.5l-184 -182h-143z" />
<glyph unicode="&#xf5;" horiz-adv-x="1038" d="M188 315q0 143 38 274.5t105.5 233t163 161.5t210.5 60q172 0 264 -85t92 -263q0 -141 -36 -270t-103.5 -228.5t-163.5 -158.5t-219 -59q-172 0 -261.5 78.5t-89.5 256.5zM342 313q0 -98 48.5 -149t148.5 -51q84 0 151.5 49t115.5 131t74.5 187.5t26.5 217.5 q0 98 -49 155.5t-153 57.5q-82 0 -149 -50t-115 -133t-73.5 -191.5t-25.5 -223.5zM519 1382q37 31 73 54q31 20 66 37.5t63 17.5q33 0 71 -15.5t73.5 -34t66.5 -33.5t51 -15q14 0 41 11t52 28q29 18 61 41l6 -121q-33 -27 -67 -49q-29 -18 -63 -34t-62 -16q-31 0 -68 15.5 t-72.5 35t-67.5 35t-55 15.5q-18 0 -45.5 -15.5t-54.5 -31.5q-31 -23 -63 -47z" />
<glyph unicode="&#xf6;" horiz-adv-x="1038" d="M188 315q0 143 38 274.5t105.5 233t163 161.5t210.5 60q172 0 264 -85t92 -263q0 -141 -36 -270t-103.5 -228.5t-163.5 -158.5t-219 -59q-172 0 -261.5 78.5t-89.5 256.5zM342 313q0 -98 48.5 -149t148.5 -51q84 0 151.5 49t115.5 131t74.5 187.5t26.5 217.5 q0 98 -49 155.5t-153 57.5q-82 0 -149 -50t-115 -133t-73.5 -191.5t-25.5 -223.5zM563 1270l45 190h121l-45 -190h-121zM933 1270l41 190h125l-45 -190h-121z" />
<glyph unicode="&#xf7;" d="M236 575v150h653v-150h-653zM352 627v196h422v-196h-422zM485 61v207h154v-207h-154z" />
<glyph unicode="&#xf8;" horiz-adv-x="1026" d="M131 -188q8 12 12 20q8 10 16.5 23.5t16.5 27.5q10 12 19.5 26.5t17.5 29.5q20 33 38.5 63.5t39.5 63.5q4 4 7 6t7 6q2 2 2 3t2 3t3 4t3 4q66 104 131.5 210t131.5 212q25 41 50 81t50 81q10 16 19.5 31.5t19.5 31.5q18 29 36.5 59.5t37.5 59.5q18 29 36.5 59.5 t36.5 59.5q2 4 4 7t4 7q4 8 7 15q8 12 17 26.5t19 28.5q4 10 15.5 28.5t19.5 30.5l2 4q12 16 17 23q6 10 11 18.5t11 18.5q8 12 18.5 28.5t14.5 26.5l20 -10q6 -4 19 -8q0 -2 4 -2q2 0 4 -2q4 -2 4 -3l8 -4t9 -2q6 -4 12 -5t12 -5q-6 -8 -9 -15t-7 -12q-4 -4 -6 -7t-7 -7 q-12 -20 -24 -38.5t-25 -39.5l-24 -37q-6 -10 -11.5 -18t-9.5 -16q-6 -10 -12 -19.5t-12 -17.5q-2 -4 -3 -7t-3 -8l-5 -4q-4 -6 -6 -6q-4 -8 -6 -10q-16 -29 -33.5 -55.5t-35.5 -55.5q-16 -25 -31 -50t-31 -50q-35 -53 -66.5 -104.5t-64.5 -104.5q-20 -31 -37.5 -61.5 t-36.5 -59.5l-67 -104q-35 -59 -73 -118.5t-75 -117.5q-2 -4 -3 -7t-3 -7t-4 -6t-4 -6q-6 -10 -13.5 -20.5t-11.5 -20.5q-14 -23 -26.5 -44.5t-26.5 -41.5q-20 -31 -40.5 -64t-39.5 -65l-22.5 9l-22.5 9q-2 2 -4 2t-4 2q-8 4 -19.5 8t-19.5 9zM188 319q0 143 38 274.5 t105.5 233t163 162t210.5 60.5q172 0 264 -85t92 -264q0 -141 -36 -270t-103.5 -228.5t-163.5 -158.5t-219 -59q-172 0 -261.5 78.5t-89.5 256.5zM342 317q0 -98 48.5 -149t148.5 -51q84 0 151.5 49t115.5 131t74.5 187.5t26.5 217.5q0 98 -49 155.5t-153 57.5 q-82 0 -149 -50t-115 -133t-73.5 -191.5t-25.5 -223.5z" />
<glyph unicode="&#xf9;" horiz-adv-x="1087" d="M174 238q0 68 14.5 139.5t26.5 126.5l123 520h151l-116 -510q-6 -25 -13.5 -56.5t-12.5 -65.5t-9 -65.5t-4 -58.5q0 -72 32.5 -112.5t106.5 -40.5q51 0 105.5 35.5t101.5 78.5q53 51 106 115l158 680h154l-238 -1024h-147l37 178q-47 -57 -101 -100q-47 -37 -106.5 -67.5 t-124.5 -30.5q-123 0 -183.5 70.5t-60.5 187.5zM591 1399l74 119l379 -191l-63 -100z" />
<glyph unicode="&#xfa;" horiz-adv-x="1087" d="M174 238q0 68 14.5 139.5t26.5 126.5l123 520h151l-116 -510q-6 -25 -13.5 -56.5t-12.5 -65.5t-9 -65.5t-4 -58.5q0 -72 32.5 -112.5t106.5 -40.5q51 0 105.5 35.5t101.5 78.5q53 51 106 115l158 680h154l-238 -1024h-147l37 178q-47 -57 -101 -100q-47 -37 -106.5 -67.5 t-124.5 -30.5q-123 0 -183.5 70.5t-60.5 187.5zM580 1339l467 193l16 -141l-233 -86q-43 -16 -85 -32t-75 -28t-53 -18l-21 -6z" />
<glyph unicode="&#xfb;" horiz-adv-x="1087" d="M174 238q0 68 14.5 139.5t26.5 126.5l123 520h151l-116 -510q-6 -25 -13.5 -56.5t-12.5 -65.5t-9 -65.5t-4 -58.5q0 -72 32.5 -112.5t106.5 -40.5q51 0 105.5 35.5t101.5 78.5q53 51 106 115l158 680h154l-238 -1024h-147l37 178q-47 -57 -101 -100q-47 -37 -106.5 -67.5 t-124.5 -30.5q-123 0 -183.5 70.5t-60.5 187.5zM465 1202l317 309h74l178 -309h-143q-2 2 -15.5 24.5t-30 51.5t-32 59.5t-21.5 46.5l-184 -182h-143z" />
<glyph unicode="&#xfc;" horiz-adv-x="1087" d="M174 238q0 68 14.5 139.5t26.5 126.5l123 520h151l-116 -510q-6 -25 -13.5 -56.5t-12.5 -65.5t-9 -65.5t-4 -58.5q0 -72 32.5 -112.5t106.5 -40.5q51 0 105.5 35.5t101.5 78.5q53 51 106 115l158 680h154l-238 -1024h-147l37 178q-47 -57 -101 -100q-47 -37 -106.5 -67.5 t-124.5 -30.5q-123 0 -183.5 70.5t-60.5 187.5zM504 1270l45 190h121l-45 -190h-121zM874 1270l41 190h125l-45 -190h-121z" />
<glyph unicode="&#xfd;" horiz-adv-x="933" d="M221 -453l232 453h-136l-26 1024h151l17 -893h61l449 893h155l-747 -1477h-156zM549 1339l467 193l16 -141l-233 -86q-43 -16 -85 -32t-75 -28t-53 -18l-21 -6z" />
<glyph unicode="&#xfe;" horiz-adv-x="1064" d="M76 -451l452 1917h146l-129 -544q6 6 33.5 25.5t68.5 41t90.5 38.5t100.5 17q129 0 192.5 -67.5t69.5 -192.5q4 -59 -4.5 -121.5t-24.5 -134.5q-35 -145 -84 -248.5t-115.5 -170t-152.5 -98t-195 -31.5q-35 0 -70.5 2t-64.5 5t-46 6t-17 5l-107 -449h-143zM358 141 q2 0 20.5 -4t45.5 -7t60.5 -6t68.5 -3q152 0 236.5 102.5t134.5 306.5q23 102 22 177q0 92 -39 142t-116 50q-49 0 -99.5 -20.5t-91.5 -45t-66.5 -44t-25.5 -17.5z" />
<glyph unicode="&#xff;" horiz-adv-x="937" d="M221 -453l232 453h-136l-26 1024h151l17 -893h61l449 893h155l-747 -1477h-156zM518 1270l45 190h121l-45 -190h-121zM888 1270l41 190h125l-45 -190h-121z" />
<glyph unicode="&#x152;" horiz-adv-x="1792" d="M215 367q0 10 1 18t1 18q4 82 13.5 161t23.5 143q41 166 101.5 300t143.5 230t190.5 148.5t244.5 52.5q25 0 58.5 -2t69.5 -5.5t71.5 -6.5t66.5 -7h774l-30 -139h-621l-117 -487h506l-31 -140h-505l-119 -512h620l-32 -139l-777 -2q-68 -6 -147.5 -12t-132.5 -6 q-96 2 -167 32.5t-116 82.5t-67.5 122t-22.5 150zM379 393q0 -61 13.5 -111.5t43 -86t78.5 -55t125 -19.5q16 0 58 2t87 4t80 4l35 2l268 1153q-10 2 -74.5 6t-179.5 8q-94 0 -171.5 -45t-140 -124.5t-107.5 -188t-76 -233.5q-23 -96 -31 -173t-8 -143z" />
<glyph unicode="&#x153;" horiz-adv-x="1703" d="M207 272.5q0 24.5 4 53.5q4 45 12 95t23 105q31 125 76 221.5t108.5 163t148.5 100t197 33.5q248 0 291 -192q74 102 168 147t201 45q287 0 299 -268q2 -45 -5.5 -98t-21.5 -117q-4 -16 -9 -31.5t-9 -31.5q-4 -14 -8.5 -27.5t-8.5 -26.5h-629v5q-25 -92 -20 -164 q4 -80 48 -121t142 -41q51 0 114 2t116 6q63 4 127 10q-4 -8 -5 -16t-3 -19q-2 -10 -4.5 -18t-4.5 -16v-2q0 -6 -1 -11.5t-3 -11.5q-2 -8 -3 -16t-3 -19q-61 -8 -125 -16q-53 -6 -119.5 -11t-128.5 -5q-121 0 -186 44t-88 130v-2q-61 -88 -148 -130t-223 -42 q-164 0 -236.5 60t-80.5 185q-2 23 -2 47.5zM358 270q4 -78 48.5 -113.5t150.5 -35.5q86 0 143.5 26.5t97.5 77.5t66.5 127t48.5 172l2 4q23 96 25 162v41.5t-4 34.5q-12 72 -58.5 104.5t-132.5 32.5q-78 0 -133 -21.5t-96 -66.5t-69.5 -116.5t-53.5 -172.5 q-18 -80 -28.5 -143.5t-6.5 -112.5zM1073 573h492v-4q14 53 19 98.5t3 80.5q-2 82 -46 116.5t-132 34.5q-127 0 -211 -75.5t-125 -250.5z" />
<glyph unicode="&#x178;" horiz-adv-x="1075" d="M389 1417h160l168 -637l471 637h172l-596 -807l-146 -610h-155l141 618zM668 1667l43 191h131l-47 -191h-127zM1055 1667l45 191h129l-47 -191h-127z" />
<glyph unicode="&#x2c6;" horiz-adv-x="1619" d="M791 1202l317 309h74l178 -309h-143q-2 2 -15.5 24.5t-30 51.5t-32 59.5t-21.5 46.5l-184 -182h-143z" />
<glyph unicode="&#x2dc;" horiz-adv-x="874" d="M449 1382q37 31 73 54q31 20 66 37.5t63 17.5q33 0 71 -15.5t73.5 -34t66.5 -33.5t51 -15q14 0 41 11t52 28q29 18 61 41l6 -121q-33 -27 -67 -49q-29 -18 -63 -34t-62 -16q-31 0 -68 15.5t-72.5 35t-67.5 35t-55 15.5q-18 0 -45.5 -15.5t-54.5 -31.5q-31 -23 -63 -47z " />
<glyph unicode="&#x2000;" horiz-adv-x="958" />
<glyph unicode="&#x2001;" horiz-adv-x="1917" />
<glyph unicode="&#x2002;" horiz-adv-x="958" />
<glyph unicode="&#x2003;" horiz-adv-x="1917" />
<glyph unicode="&#x2004;" horiz-adv-x="639" />
<glyph unicode="&#x2005;" horiz-adv-x="479" />
<glyph unicode="&#x2006;" horiz-adv-x="319" />
<glyph unicode="&#x2007;" horiz-adv-x="319" />
<glyph unicode="&#x2008;" horiz-adv-x="239" />
<glyph unicode="&#x2009;" horiz-adv-x="383" />
<glyph unicode="&#x200a;" horiz-adv-x="106" />
<glyph unicode="&#x2010;" horiz-adv-x="856" d="M268 477l33 141h508l-35 -141h-506z" />
<glyph unicode="&#x2011;" horiz-adv-x="856" d="M268 477l33 141h508l-35 -141h-506z" />
<glyph unicode="&#x2012;" horiz-adv-x="856" d="M268 477l33 141h508l-35 -141h-506z" />
<glyph unicode="&#x2013;" horiz-adv-x="1024" d="M0 481v135h1024v-135h-1024z" />
<glyph unicode="&#x2014;" horiz-adv-x="2048" d="M0 481v135h2048v-135h-2048z" />
<glyph unicode="&#x2018;" horiz-adv-x="372" d="M243 959l227 456h115l-186 -456h-156z" />
<glyph unicode="&#x2019;" horiz-adv-x="372" d="M291 961l186 456h156l-227 -456h-115z" />
<glyph unicode="&#x201a;" horiz-adv-x="372" d="M-57 -355l200 489h168l-244 -489h-124z" />
<glyph unicode="&#x201c;" horiz-adv-x="761" d="M352 967l227 456h115l-186 -456h-156zM676 967l227 456h115l-186 -456h-156z" />
<glyph unicode="&#x201d;" horiz-adv-x="712" d="M309 961l186 456h156l-227 -456h-115zM633 961l186 456h156l-227 -456h-115z" />
<glyph unicode="&#x201e;" horiz-adv-x="712" d="M-16 -347l200 489h168l-244 -489h-124zM330 -347l200 489h168l-244 -489h-124z" />
<glyph unicode="&#x2022;" horiz-adv-x="1085" d="M287 217v586h512v-586h-512z" />
<glyph unicode="&#x2026;" horiz-adv-x="1513" d="M115 0l53 227h156l-54 -227h-155zM600 0l53 227h156l-54 -227h-155zM1080 0l53 227h156l-54 -227h-155z" />
<glyph unicode="&#x202f;" horiz-adv-x="383" />
<glyph unicode="&#x2039;" horiz-adv-x="565" d="M160 469l28 78l439 291l-41 -140l-281 -188l187 -205l-39 -141z" />
<glyph unicode="&#x203a;" horiz-adv-x="573" d="M137 163l41 140l281 188l-187 205l39 141l293 -305l-28 -78z" />
<glyph unicode="&#x205f;" horiz-adv-x="479" />
<glyph unicode="&#x20ac;" d="M90 428l29 127h809l-29 -127h-809zM168 770l31 125h807l-29 -125h-809zM199 334q0 115 17 236.5t53 237.5t91.5 219t131 180t173 122t218.5 45q57 0 114.5 -7t104.5 -15q53 -10 104 -23l-35 -119q-45 6 -94 15q-41 6 -95 11t-110 5q-127 0 -224 -80t-162.5 -208 t-98.5 -288.5t-33 -322.5q0 -104 57.5 -166.5t184.5 -62.5q59 0 116.5 5t104.5 11q53 8 107 18l-19 -124q-51 -14 -106 -23q-47 -8 -105.5 -14t-115.5 -6q-190 0 -284.5 97t-94.5 257z" />
<glyph unicode="&#x2122;" horiz-adv-x="1085" d="M14 1188v102h410v-102h-135v-508h-113v508h-162zM487 678v612h146l137 -426l143 426h146v-612h-107v459l-135 -428h-88l-135 428v-459h-107z" />
<glyph unicode="&#xe000;" horiz-adv-x="1024" d="M0 0v1024h1024v-1024h-1024z" />
<glyph unicode="&#xfb04;" horiz-adv-x="1773" d="M68 -455l313 1344h-117l33 135h113l22 88q25 102 54.5 175t70.5 118t95.5 65.5t127.5 20.5q29 0 59.5 -5t55.5 -9l57 -15l-30 -119q-25 2 -50 7q-23 4 -47 6t-49 2q-82 0 -122 -61.5t-70 -186.5l-21 -86h275l-33 -133h-270l-207 -891l-125 -455h-135zM719 -455l313 1344 h-117l33 135h113l22 88q25 102 54.5 175t70.5 118t95.5 65.5t127.5 20.5q29 0 59.5 -5t55.5 -9l57 -15l-30 -119q-25 2 -50 7q-23 4 -47 6t-49 2q-82 0 -122 -61.5t-70 -186.5l-21 -86h275l-33 -133h-270l-207 -891l-125 -455h-135zM1466 0l340 1470h153l-340 -1470h-153z " />
</font>
</defs>
</svg>
